<ttFont>
    <TTGlyph name="A" xMin="-5" yMin="0" xMax="875" yMax="735">
      <contour>
        <pt x="687" y="0" on="1"/>
        <pt x="688" y="1" on="0"/>
        <pt x="688" y="4" on="1"/>
        <pt x="688" y="11" on="0"/>
        <pt x="677" y="44" on="0"/>
        <pt x="664" y="81" on="0"/>
        <pt x="650" y="114" on="0"/>
        <pt x="647" y="121" on="1"/>
        <pt x="541" y="125" on="0"/>
        <pt x="328" y="123" on="0"/>
        <pt x="222" y="119" on="1"/>
        <pt x="219" y="112" on="0"/>
        <pt x="205" y="79" on="0"/>
        <pt x="192" y="43" on="0"/>
        <pt x="181" y="11" on="0"/>
        <pt x="181" y="4" on="1"/>
        <pt x="181" y="1" on="0"/>
        <pt x="182" y="0" on="1"/>
        <pt x="-5" y="0" on="1"/>
        <pt x="1" y="7" on="0"/>
        <pt x="18" y="38" on="0"/>
        <pt x="35" y="73" on="0"/>
        <pt x="51" y="106" on="0"/>
        <pt x="55" y="115" on="1"/>
        <pt x="66" y="137" on="0"/>
        <pt x="114" y="235" on="0"/>
        <pt x="173" y="360" on="0"/>
        <pt x="236" y="497" on="0"/>
        <pt x="288" y="619" on="0"/>
        <pt x="321" y="711" on="0"/>
        <pt x="321" y="728" on="1"/>
        <pt x="321" y="730" on="0"/>
        <pt x="320" y="735" on="0"/>
        <pt x="318" y="735" on="1"/>
        <pt x="552" y="735" on="1"/>
        <pt x="550" y="735" on="0"/>
        <pt x="549" y="730" on="0"/>
        <pt x="549" y="728" on="1"/>
        <pt x="549" y="711" on="0"/>
        <pt x="582" y="619" on="0"/>
        <pt x="634" y="497" on="0"/>
        <pt x="697" y="360" on="0"/>
        <pt x="756" y="235" on="0"/>
        <pt x="803" y="137" on="0"/>
        <pt x="814" y="115" on="1"/>
        <pt x="818" y="106" on="0"/>
        <pt x="834" y="73" on="0"/>
        <pt x="852" y="38" on="0"/>
        <pt x="869" y="7" on="0"/>
        <pt x="875" y="0" on="1"/>
      </contour>
      <contour>
        <pt x="305" y="213" on="1"/>
        <pt x="454" y="213" on="0"/>
        <pt x="604" y="219" on="1"/>
        <pt x="563" y="310" on="0"/>
        <pt x="482" y="488" on="0"/>
        <pt x="435" y="575" on="1"/>
        <pt x="387" y="487" on="0"/>
        <pt x="305" y="305" on="0"/>
        <pt x="263" y="214" on="1"/>
      </contour>
    </TTGlyph>
    <TTGlyph name="AE" xMin="-72" yMin="0" xMax="1367" yMax="737">
      <contour>
        <pt x="641" y="0" on="1"/>
        <pt x="646" y="6" on="0"/>
        <pt x="653" y="40" on="0"/>
        <pt x="656" y="79" on="0"/>
        <pt x="657" y="115" on="0"/>
        <pt x="657" y="123" on="1"/>
        <pt x="619" y="125" on="0"/>
        <pt x="544" y="125" on="0"/>
        <pt x="506" y="125" on="1"/>
        <pt x="433" y="125" on="0"/>
        <pt x="288" y="124" on="0"/>
        <pt x="215" y="120" on="1"/>
        <pt x="211" y="116" on="0"/>
        <pt x="179" y="81" on="0"/>
        <pt x="143" y="41" on="0"/>
        <pt x="115" y="6" on="0"/>
        <pt x="116" y="2" on="1"/>
        <pt x="-72" y="2" on="1"/>
        <pt x="-61" y="10" on="0"/>
        <pt x="-43" y="28" on="0"/>
        <pt x="-34" y="37" on="1"/>
        <pt x="-12" y="58" on="0"/>
        <pt x="31" y="100" on="0"/>
        <pt x="52" y="121" on="1"/>
        <pt x="66" y="135" on="0"/>
        <pt x="129" y="198" on="0"/>
        <pt x="213" y="282" on="0"/>
        <pt x="311" y="383" on="0"/>
        <pt x="410" y="485" on="0"/>
        <pt x="504" y="584" on="0"/>
        <pt x="577" y="665" on="0"/>
        <pt x="624" y="723" on="0"/>
        <pt x="628" y="734" on="1"/>
        <pt x="625" y="737" on="1"/>
        <pt x="1351" y="737" on="1"/>
        <pt x="1340" y="624" on="1"/>
        <pt x="1335" y="626" on="0"/>
        <pt x="1295" y="628" on="0"/>
        <pt x="1240" y="630" on="0"/>
        <pt x="1176" y="631" on="0"/>
        <pt x="1119" y="631" on="0"/>
        <pt x="1075" y="631" on="0"/>
        <pt x="1067" y="631" on="1"/>
        <pt x="939" y="631" on="0"/>
        <pt x="810" y="628" on="1"/>
        <pt x="805" y="578" on="0"/>
        <pt x="803" y="479" on="0"/>
        <pt x="802" y="428" on="1"/>
        <pt x="1263" y="433" on="1"/>
        <pt x="1262" y="326" on="1"/>
        <pt x="1255" y="329" on="0"/>
        <pt x="1196" y="331" on="0"/>
        <pt x="1125" y="332" on="0"/>
        <pt x="1062" y="332" on="0"/>
        <pt x="1052" y="332" on="1"/>
        <pt x="928" y="332" on="0"/>
        <pt x="802" y="329" on="1"/>
        <pt x="802" y="284" on="0"/>
        <pt x="801" y="195" on="0"/>
        <pt x="801" y="150" on="1"/>
        <pt x="801" y="110" on="1"/>
        <pt x="872" y="107" on="0"/>
        <pt x="1012" y="107" on="0"/>
        <pt x="1084" y="107" on="1"/>
        <pt x="1092" y="107" on="0"/>
        <pt x="1136" y="107" on="0"/>
        <pt x="1193" y="107" on="0"/>
        <pt x="1256" y="108" on="0"/>
        <pt x="1311" y="109" on="0"/>
        <pt x="1351" y="111" on="0"/>
        <pt x="1356" y="113" on="1"/>
        <pt x="1367" y="2" on="1"/>
      </contour>
      <contour>
        <pt x="305" y="216" on="1"/>
        <pt x="319" y="215" on="0"/>
        <pt x="346" y="215" on="0"/>
        <pt x="360" y="215" on="1"/>
        <pt x="510" y="215" on="0"/>
        <pt x="659" y="221" on="1"/>
        <pt x="660" y="275" on="0"/>
        <pt x="660" y="379" on="0"/>
        <pt x="660" y="433" on="1"/>
        <pt x="660" y="474" on="1"/>
        <pt x="660" y="499" on="0"/>
        <pt x="660" y="548" on="0"/>
        <pt x="659" y="572" on="1"/>
        <pt x="568" y="484" on="0"/>
        <pt x="392" y="307" on="0"/>
      </contour>
    </TTGlyph>
    <TTGlyph name="Aacute" xMin="-5" yMin="0" xMax="875" yMax="996">
      <component glyphName="A" x="0" y="0" flags="0x204"/>
      <component glyphName="acute" x="82" y="205" flags="0x4"/>
    </TTGlyph>
    <TTGlyph name="Acircumflex" xMin="-5" yMin="0" xMax="875" yMax="949">
      <component glyphName="A" x="0" y="0" flags="0x204"/>
      <component glyphName="circumflex" x="-19" y="184" flags="0x4"/>
    </TTGlyph>
    <TTGlyph name="Adieresis" xMin="-5" yMin="0" xMax="875" yMax="917">
      <component glyphName="A" x="0" y="0" flags="0x204"/>
      <component glyphName="dieresis" x="-19" y="174" flags="0x4"/>
    </TTGlyph>
    <TTGlyph name="Agrave" xMin="-5" yMin="0" xMax="875" yMax="1006">
      <component glyphName="A" x="0" y="0" flags="0x204"/>
      <component glyphName="grave" x="-122" y="215" flags="0x4"/>
    </TTGlyph>
    <TTGlyph name="Aring" xMin="-5" yMin="0" xMax="875" yMax="913">
      <contour>
        <pt x="875" y="0" on="1"/>
        <pt x="687" y="0" on="1"/>
        <pt x="688" y="1" on="0"/>
        <pt x="688" y="4" on="1"/>
        <pt x="688" y="11" on="0"/>
        <pt x="677" y="44" on="0"/>
        <pt x="664" y="81" on="0"/>
        <pt x="650" y="114" on="0"/>
        <pt x="647" y="121" on="1"/>
        <pt x="541" y="125" on="0"/>
        <pt x="328" y="123" on="0"/>
        <pt x="222" y="119" on="1"/>
        <pt x="219" y="112" on="0"/>
        <pt x="205" y="79" on="0"/>
        <pt x="192" y="43" on="0"/>
        <pt x="181" y="11" on="0"/>
        <pt x="181" y="4" on="1"/>
        <pt x="181" y="1" on="0"/>
        <pt x="182" y="0" on="1"/>
        <pt x="-5" y="0" on="1"/>
        <pt x="1" y="7" on="0"/>
        <pt x="18" y="38" on="0"/>
        <pt x="35" y="73" on="0"/>
        <pt x="51" y="106" on="0"/>
        <pt x="55" y="115" on="1"/>
        <pt x="66" y="137" on="0"/>
        <pt x="114" y="235" on="0"/>
        <pt x="173" y="360" on="0"/>
        <pt x="236" y="497" on="0"/>
        <pt x="288" y="619" on="0"/>
        <pt x="321" y="711" on="0"/>
        <pt x="321" y="728" on="1"/>
        <pt x="321" y="730" on="0"/>
        <pt x="320" y="735" on="0"/>
        <pt x="318" y="735" on="1"/>
        <pt x="385" y="735" on="1"/>
        <pt x="367" y="739" on="0"/>
        <pt x="334" y="752" on="0"/>
        <pt x="308" y="773" on="0"/>
        <pt x="292" y="802" on="0"/>
        <pt x="292" y="821" on="1"/>
        <pt x="292" y="847" on="0"/>
        <pt x="322" y="883" on="0"/>
        <pt x="366" y="904" on="0"/>
        <pt x="417" y="913" on="0"/>
        <pt x="438" y="913" on="1"/>
        <pt x="459" y="913" on="0"/>
        <pt x="509" y="903" on="0"/>
        <pt x="554" y="881" on="0"/>
        <pt x="584" y="845" on="0"/>
        <pt x="584" y="819" on="1"/>
        <pt x="584" y="801" on="0"/>
        <pt x="567" y="773" on="0"/>
        <pt x="539" y="752" on="0"/>
        <pt x="504" y="739" on="0"/>
        <pt x="486" y="735" on="1"/>
        <pt x="552" y="735" on="1"/>
        <pt x="550" y="735" on="0"/>
        <pt x="549" y="730" on="0"/>
        <pt x="549" y="728" on="1"/>
        <pt x="549" y="711" on="0"/>
        <pt x="582" y="619" on="0"/>
        <pt x="634" y="497" on="0"/>
        <pt x="697" y="360" on="0"/>
        <pt x="756" y="235" on="0"/>
        <pt x="803" y="137" on="0"/>
        <pt x="814" y="115" on="1"/>
        <pt x="818" y="106" on="0"/>
        <pt x="834" y="73" on="0"/>
        <pt x="852" y="38" on="0"/>
        <pt x="869" y="7" on="0"/>
      </contour>
      <contour>
        <pt x="501" y="821" on="1"/>
        <pt x="501" y="832" on="0"/>
        <pt x="489" y="848" on="0"/>
        <pt x="470" y="859" on="0"/>
        <pt x="448" y="864" on="0"/>
        <pt x="438" y="864" on="1"/>
        <pt x="428" y="864" on="0"/>
        <pt x="406" y="860" on="0"/>
        <pt x="387" y="849" on="0"/>
        <pt x="375" y="833" on="0"/>
        <pt x="375" y="821" on="1"/>
        <pt x="375" y="809" on="0"/>
        <pt x="387" y="793" on="0"/>
        <pt x="406" y="783" on="0"/>
        <pt x="428" y="779" on="0"/>
        <pt x="438" y="779" on="1"/>
        <pt x="447" y="779" on="0"/>
        <pt x="469" y="783" on="0"/>
        <pt x="488" y="793" on="0"/>
        <pt x="501" y="809" on="0"/>
      </contour>
      <contour>
        <pt x="604" y="219" on="1"/>
        <pt x="563" y="310" on="0"/>
        <pt x="482" y="488" on="0"/>
        <pt x="435" y="575" on="1"/>
        <pt x="387" y="487" on="0"/>
        <pt x="305" y="305" on="0"/>
        <pt x="263" y="214" on="1"/>
        <pt x="305" y="213" on="1"/>
        <pt x="454" y="213" on="0"/>
      </contour>
    </TTGlyph>
    <TTGlyph name="Atilde" xMin="-5" yMin="0" xMax="875" yMax="931">
      <component glyphName="A" x="0" y="0" flags="0x204"/>
      <component glyphName="tilde" x="-9" y="174" flags="0x4"/>
    </TTGlyph>
    <TTGlyph name="B" xMin="31" yMin="-7" xMax="759" yMax="741">
      <contour>
        <pt x="536" y="354" on="1"/>
        <pt x="567" y="343" on="0"/>
        <pt x="631" y="315" on="0"/>
        <pt x="681" y="277" on="0"/>
        <pt x="713" y="230" on="0"/>
        <pt x="713" y="200" on="1"/>
        <pt x="713" y="155" on="0"/>
        <pt x="659" y="90" on="0"/>
        <pt x="573" y="45" on="0"/>
        <pt x="465" y="17" on="0"/>
        <pt x="356" y="1" on="0"/>
        <pt x="257" y="-4" on="0"/>
        <pt x="223" y="-5" on="1"/>
        <pt x="127" y="-7" on="0"/>
        <pt x="31" y="-5" on="1"/>
        <pt x="41" y="18" on="0"/>
        <pt x="52" y="108" on="0"/>
        <pt x="55" y="158" on="1"/>
        <pt x="57" y="210" on="0"/>
        <pt x="57" y="307" on="0"/>
        <pt x="57" y="334" on="1"/>
        <pt x="57" y="344" on="0"/>
        <pt x="57" y="405" on="0"/>
        <pt x="55" y="486" on="0"/>
        <pt x="52" y="578" on="0"/>
        <pt x="46" y="661" on="0"/>
        <pt x="38" y="727" on="0"/>
        <pt x="32" y="741" on="1"/>
        <pt x="87" y="741" on="0"/>
        <pt x="184" y="741" on="0"/>
        <pt x="279" y="740" on="0"/>
        <pt x="376" y="735" on="0"/>
        <pt x="430" y="729" on="1"/>
        <pt x="459" y="726" on="0"/>
        <pt x="531" y="716" on="0"/>
        <pt x="604" y="699" on="0"/>
        <pt x="673" y="672" on="0"/>
        <pt x="727" y="631" on="0"/>
        <pt x="759" y="576" on="0"/>
        <pt x="759" y="538" on="1"/>
        <pt x="759" y="500" on="0"/>
        <pt x="718" y="441" on="0"/>
        <pt x="653" y="397" on="0"/>
        <pt x="574" y="365" on="0"/>
      </contour>
      <contour>
        <pt x="422" y="640" on="1"/>
        <pt x="391" y="644" on="0"/>
        <pt x="327" y="649" on="0"/>
        <pt x="269" y="650" on="0"/>
        <pt x="221" y="650" on="0"/>
        <pt x="205" y="650" on="1"/>
        <pt x="202" y="588" on="0"/>
        <pt x="199" y="469" on="0"/>
        <pt x="198" y="406" on="1"/>
        <pt x="219" y="406" on="0"/>
        <pt x="273" y="407" on="0"/>
        <pt x="334" y="410" on="0"/>
        <pt x="398" y="417" on="0"/>
        <pt x="428" y="423" on="1"/>
        <pt x="458" y="429" on="0"/>
        <pt x="514" y="447" on="0"/>
        <pt x="557" y="475" on="0"/>
        <pt x="583" y="513" on="0"/>
        <pt x="583" y="539" on="1"/>
        <pt x="583" y="562" on="0"/>
        <pt x="556" y="596" on="0"/>
        <pt x="511" y="620" on="0"/>
        <pt x="453" y="635" on="0"/>
      </contour>
      <contour>
        <pt x="396" y="289" on="1"/>
        <pt x="340" y="298" on="0"/>
        <pt x="230" y="301" on="0"/>
        <pt x="198" y="302" on="1"/>
        <pt x="198" y="247" on="0"/>
        <pt x="200" y="143" on="0"/>
        <pt x="203" y="88" on="1"/>
        <pt x="218" y="88" on="0"/>
        <pt x="261" y="88" on="0"/>
        <pt x="313" y="91" on="0"/>
        <pt x="370" y="96" on="0"/>
        <pt x="397" y="101" on="1"/>
        <pt x="424" y="106" on="0"/>
        <pt x="475" y="121" on="0"/>
        <pt x="514" y="144" on="0"/>
        <pt x="538" y="176" on="0"/>
        <pt x="538" y="198" on="1"/>
        <pt x="538" y="218" on="0"/>
        <pt x="514" y="248" on="0"/>
        <pt x="474" y="270" on="0"/>
        <pt x="423" y="284" on="0"/>
      </contour>
    </TTGlyph>
    <TTGlyph name="C" xMin="26" yMin="1" xMax="952" yMax="741">
      <contour>
        <pt x="758" y="431" on="0"/>
        <pt x="791" y="492" on="0"/>
        <pt x="791" y="523" on="1"/>
        <pt x="791" y="558" on="0"/>
        <pt x="744" y="603" on="0"/>
        <pt x="678" y="629" on="0"/>
        <pt x="605" y="639" on="0"/>
        <pt x="578" y="639" on="1"/>
        <pt x="513" y="639" on="0"/>
        <pt x="380" y="591" on="0"/>
        <pt x="272" y="505" on="0"/>
        <pt x="203" y="387" on="0"/>
        <pt x="203" y="317" on="1"/>
        <pt x="203" y="275" on="0"/>
        <pt x="234" y="211" on="0"/>
        <pt x="287" y="165" on="0"/>
        <pt x="355" y="133" on="0"/>
        <pt x="430" y="115" on="0"/>
        <pt x="506" y="107" on="0"/>
        <pt x="539" y="107" on="1"/>
        <pt x="621" y="107" on="0"/>
        <pt x="783" y="135" on="0"/>
        <pt x="863" y="157" on="1"/>
        <pt x="902" y="53" on="1"/>
        <pt x="859" y="39" on="0"/>
        <pt x="764" y="19" on="0"/>
        <pt x="667" y="7" on="0"/>
        <pt x="570" y="1" on="0"/>
        <pt x="525" y="1" on="1"/>
        <pt x="481" y="1" on="0"/>
        <pt x="372" y="13" on="0"/>
        <pt x="262" y="40" on="0"/>
        <pt x="157" y="84" on="0"/>
        <pt x="75" y="150" on="0"/>
        <pt x="26" y="238" on="0"/>
        <pt x="26" y="295" on="1"/>
        <pt x="26" y="364" on="0"/>
        <pt x="79" y="485" on="0"/>
        <pt x="167" y="584" on="0"/>
        <pt x="285" y="661" on="0"/>
        <pt x="415" y="714" on="0"/>
        <pt x="549" y="741" on="0"/>
        <pt x="611" y="741" on="1"/>
        <pt x="669" y="741" on="0"/>
        <pt x="790" y="723" on="0"/>
        <pt x="889" y="672" on="0"/>
        <pt x="952" y="583" on="0"/>
        <pt x="952" y="511" on="1"/>
        <pt x="952" y="485" on="0"/>
        <pt x="944" y="433" on="0"/>
        <pt x="936" y="408" on="1"/>
        <pt x="741" y="408" on="1"/>
      </contour>
    </TTGlyph>
    <TTGlyph name="Ccedilla" xMin="26" yMin="-222" xMax="952" yMax="741">
      <contour>
        <pt x="436" y="5" on="1"/>
        <pt x="459" y="3" on="0"/>
        <pt x="502" y="1" on="0"/>
        <pt x="522" y="1" on="1"/>
        <pt x="525" y="15" on="1"/>
        <pt x="436" y="16" on="1"/>
      </contour>
      <contour>
        <pt x="477" y="-222" on="1"/>
        <pt x="448" y="-222" on="0"/>
        <pt x="397" y="-212" on="0"/>
        <pt x="359" y="-188" on="0"/>
        <pt x="335" y="-147" on="0"/>
        <pt x="333" y="-115" on="1"/>
        <pt x="408" y="-111" on="1"/>
        <pt x="408" y="-114" on="0"/>
        <pt x="407" y="-119" on="0"/>
        <pt x="407" y="-122" on="1"/>
        <pt x="407" y="-149" on="0"/>
        <pt x="449" y="-171" on="0"/>
        <pt x="472" y="-171" on="1"/>
        <pt x="480" y="-171" on="0"/>
        <pt x="506" y="-168" on="0"/>
        <pt x="530" y="-159" on="0"/>
        <pt x="547" y="-144" on="0"/>
        <pt x="547" y="-133" on="1"/>
        <pt x="547" y="-119" on="0"/>
        <pt x="524" y="-105" on="0"/>
        <pt x="492" y="-99" on="0"/>
        <pt x="461" y="-98" on="0"/>
        <pt x="452" y="-98" on="1"/>
        <pt x="449" y="-97" on="0"/>
        <pt x="442" y="-97" on="0"/>
        <pt x="439" y="-97" on="1"/>
        <pt x="436" y="5" on="1"/>
        <pt x="391" y="10" on="0"/>
        <pt x="296" y="29" on="0"/>
        <pt x="205" y="62" on="0"/>
        <pt x="123" y="107" on="0"/>
        <pt x="62" y="168" on="0"/>
        <pt x="26" y="247" on="0"/>
        <pt x="26" y="295" on="1"/>
        <pt x="26" y="364" on="0"/>
        <pt x="79" y="485" on="0"/>
        <pt x="167" y="584" on="0"/>
        <pt x="285" y="661" on="0"/>
        <pt x="415" y="714" on="0"/>
        <pt x="550" y="741" on="0"/>
        <pt x="611" y="741" on="1"/>
        <pt x="669" y="741" on="0"/>
        <pt x="790" y="723" on="0"/>
        <pt x="889" y="672" on="0"/>
        <pt x="952" y="583" on="0"/>
        <pt x="952" y="511" on="1"/>
        <pt x="952" y="485" on="0"/>
        <pt x="944" y="433" on="0"/>
        <pt x="936" y="408" on="1"/>
        <pt x="741" y="408" on="1"/>
        <pt x="758" y="431" on="0"/>
        <pt x="791" y="492" on="0"/>
        <pt x="791" y="523" on="1"/>
        <pt x="791" y="558" on="0"/>
        <pt x="744" y="603" on="0"/>
        <pt x="678" y="629" on="0"/>
        <pt x="605" y="639" on="0"/>
        <pt x="578" y="639" on="1"/>
        <pt x="513" y="639" on="0"/>
        <pt x="380" y="591" on="0"/>
        <pt x="272" y="505" on="0"/>
        <pt x="203" y="387" on="0"/>
        <pt x="203" y="317" on="1"/>
        <pt x="203" y="275" on="0"/>
        <pt x="234" y="211" on="0"/>
        <pt x="287" y="165" on="0"/>
        <pt x="355" y="133" on="0"/>
        <pt x="430" y="115" on="0"/>
        <pt x="506" y="107" on="0"/>
        <pt x="539" y="107" on="1"/>
        <pt x="621" y="107" on="0"/>
        <pt x="783" y="135" on="0"/>
        <pt x="863" y="157" on="1"/>
        <pt x="902" y="53" on="1"/>
        <pt x="859" y="39" on="0"/>
        <pt x="764" y="19" on="0"/>
        <pt x="667" y="6" on="0"/>
        <pt x="570" y="1" on="0"/>
        <pt x="525" y="1" on="1"/>
        <pt x="522" y="1" on="1"/>
        <pt x="510" y="-52" on="1"/>
        <pt x="528" y="-54" on="0"/>
        <pt x="570" y="-61" on="0"/>
        <pt x="606" y="-78" on="0"/>
        <pt x="630" y="-108" on="0"/>
        <pt x="630" y="-131" on="1"/>
        <pt x="630" y="-158" on="0"/>
        <pt x="598" y="-194" on="0"/>
        <pt x="551" y="-214" on="0"/>
        <pt x="498" y="-222" on="0"/>
      </contour>
    </TTGlyph>
    <TTGlyph name="D" xMin="31" yMin="0" xMax="893" yMax="738">
      <contour>
        <pt x="226" y="737" on="1"/>
        <pt x="285" y="737" on="0"/>
        <pt x="431" y="720" on="0"/>
        <pt x="579" y="683" on="0"/>
        <pt x="719" y="621" on="0"/>
        <pt x="827" y="532" on="0"/>
        <pt x="893" y="412" on="0"/>
        <pt x="893" y="335" on="1"/>
        <pt x="893" y="251" on="0"/>
        <pt x="818" y="136" on="0"/>
        <pt x="695" y="62" on="0"/>
        <pt x="539" y="21" on="0"/>
        <pt x="377" y="3" on="0"/>
        <pt x="225" y="0" on="0"/>
        <pt x="167" y="0" on="1"/>
        <pt x="47" y="0" on="1"/>
        <pt x="50" y="6" on="0"/>
        <pt x="54" y="54" on="0"/>
        <pt x="57" y="121" on="0"/>
        <pt x="59" y="199" on="0"/>
        <pt x="60" y="268" on="0"/>
        <pt x="60" y="321" on="0"/>
        <pt x="60" y="331" on="1"/>
        <pt x="60" y="342" on="0"/>
        <pt x="60" y="409" on="0"/>
        <pt x="58" y="496" on="0"/>
        <pt x="55" y="594" on="0"/>
        <pt x="48" y="677" on="0"/>
        <pt x="38" y="734" on="0"/>
        <pt x="31" y="738" on="1"/>
      </contour>
      <contour>
        <pt x="211" y="89" on="1"/>
        <pt x="224" y="89" on="0"/>
        <pt x="250" y="88" on="0"/>
        <pt x="263" y="88" on="1"/>
        <pt x="301" y="88" on="0"/>
        <pt x="402" y="94" on="0"/>
        <pt x="510" y="112" on="0"/>
        <pt x="614" y="144" on="0"/>
        <pt x="696" y="198" on="0"/>
        <pt x="747" y="275" on="0"/>
        <pt x="747" y="328" on="1"/>
        <pt x="747" y="386" on="0"/>
        <pt x="702" y="478" on="0"/>
        <pt x="627" y="549" on="0"/>
        <pt x="528" y="598" on="0"/>
        <pt x="421" y="630" on="0"/>
        <pt x="313" y="644" on="0"/>
        <pt x="266" y="644" on="1"/>
        <pt x="253" y="644" on="0"/>
        <pt x="227" y="643" on="0"/>
        <pt x="214" y="642" on="1"/>
        <pt x="209" y="561" on="0"/>
        <pt x="207" y="401" on="0"/>
        <pt x="207" y="320" on="1"/>
        <pt x="207" y="262" on="0"/>
        <pt x="208" y="147" on="0"/>
      </contour>
    </TTGlyph>
    <TTGlyph name="E" xMin="31" yMin="0" xMax="773" yMax="737">
      <contour>
        <pt x="47" y="0" on="1"/>
        <pt x="53" y="6" on="0"/>
        <pt x="61" y="71" on="0"/>
        <pt x="66" y="163" on="0"/>
        <pt x="67" y="271" on="0"/>
        <pt x="67" y="369" on="0"/>
        <pt x="66" y="444" on="0"/>
        <pt x="66" y="459" on="1"/>
        <pt x="66" y="468" on="0"/>
        <pt x="66" y="512" on="0"/>
        <pt x="65" y="566" on="0"/>
        <pt x="63" y="627" on="0"/>
        <pt x="58" y="679" on="0"/>
        <pt x="50" y="718" on="0"/>
        <pt x="44" y="725" on="1"/>
        <pt x="41" y="728" on="0"/>
        <pt x="34" y="734" on="0"/>
        <pt x="31" y="737" on="1"/>
        <pt x="757" y="735" on="1"/>
        <pt x="746" y="624" on="1"/>
        <pt x="741" y="626" on="0"/>
        <pt x="702" y="628" on="0"/>
        <pt x="646" y="630" on="0"/>
        <pt x="582" y="631" on="0"/>
        <pt x="525" y="631" on="0"/>
        <pt x="481" y="631" on="0"/>
        <pt x="473" y="631" on="1"/>
        <pt x="345" y="631" on="0"/>
        <pt x="216" y="628" on="1"/>
        <pt x="211" y="578" on="0"/>
        <pt x="209" y="479" on="0"/>
        <pt x="209" y="428" on="1"/>
        <pt x="669" y="433" on="1"/>
        <pt x="668" y="326" on="1"/>
        <pt x="664" y="327" on="0"/>
        <pt x="633" y="330" on="0"/>
        <pt x="591" y="331" on="0"/>
        <pt x="542" y="332" on="0"/>
        <pt x="499" y="332" on="0"/>
        <pt x="465" y="332" on="0"/>
        <pt x="459" y="332" on="1"/>
        <pt x="334" y="332" on="0"/>
        <pt x="208" y="329" on="1"/>
        <pt x="208" y="284" on="0"/>
        <pt x="207" y="195" on="0"/>
        <pt x="207" y="150" on="1"/>
        <pt x="207" y="110" on="1"/>
        <pt x="278" y="107" on="0"/>
        <pt x="419" y="107" on="0"/>
        <pt x="490" y="107" on="1"/>
        <pt x="497" y="107" on="0"/>
        <pt x="541" y="107" on="0"/>
        <pt x="599" y="107" on="0"/>
        <pt x="662" y="108" on="0"/>
        <pt x="718" y="109" on="0"/>
        <pt x="757" y="111" on="0"/>
        <pt x="762" y="113" on="1"/>
        <pt x="773" y="2" on="1"/>
      </contour>
    </TTGlyph>
    <TTGlyph name="Eacute" xMin="31" yMin="0" xMax="773" yMax="996">
      <component glyphName="E" x="0" y="0" flags="0x204"/>
      <component glyphName="acute" x="10" y="205" flags="0x4"/>
    </TTGlyph>
    <TTGlyph name="Ecircumflex" xMin="31" yMin="0" xMax="773" yMax="960">
      <component glyphName="E" x="0" y="0" flags="0x204"/>
      <component glyphName="circumflex" x="-50" y="195" flags="0x4"/>
    </TTGlyph>
    <TTGlyph name="Edieresis" xMin="31" yMin="0" xMax="773" yMax="917">
      <component glyphName="E" x="0" y="0" flags="0x204"/>
      <component glyphName="dieresis" x="-40" y="174" flags="0x4"/>
    </TTGlyph>
    <TTGlyph name="Egrave" xMin="31" yMin="0" xMax="773" yMax="996">
      <component glyphName="E" x="0" y="0" flags="0x204"/>
      <component glyphName="grave" x="-71" y="205" flags="0x4"/>
    </TTGlyph>
    <TTGlyph name="Eth" xMin="-41" yMin="0" xMax="893" yMax="738">
      <contour>
        <pt x="207" y="318" on="1"/>
        <pt x="207" y="260" on="0"/>
        <pt x="208" y="146" on="0"/>
        <pt x="211" y="89" on="1"/>
        <pt x="224" y="89" on="0"/>
        <pt x="250" y="88" on="0"/>
        <pt x="263" y="88" on="1"/>
        <pt x="301" y="88" on="0"/>
        <pt x="402" y="94" on="0"/>
        <pt x="510" y="112" on="0"/>
        <pt x="614" y="144" on="0"/>
        <pt x="696" y="198" on="0"/>
        <pt x="747" y="275" on="0"/>
        <pt x="747" y="328" on="1"/>
        <pt x="747" y="386" on="0"/>
        <pt x="702" y="478" on="0"/>
        <pt x="627" y="549" on="0"/>
        <pt x="528" y="598" on="0"/>
        <pt x="421" y="630" on="0"/>
        <pt x="313" y="644" on="0"/>
        <pt x="266" y="644" on="1"/>
        <pt x="253" y="644" on="0"/>
        <pt x="227" y="643" on="0"/>
        <pt x="214" y="642" on="1"/>
        <pt x="211" y="585" on="0"/>
        <pt x="208" y="472" on="0"/>
        <pt x="207" y="415" on="1"/>
        <pt x="241" y="416" on="0"/>
        <pt x="314" y="418" on="0"/>
        <pt x="376" y="422" on="0"/>
        <pt x="421" y="426" on="0"/>
        <pt x="428" y="429" on="1"/>
        <pt x="425" y="307" on="1"/>
        <pt x="420" y="310" on="0"/>
        <pt x="368" y="314" on="0"/>
        <pt x="301" y="317" on="0"/>
        <pt x="231" y="318" on="0"/>
      </contour>
      <contour>
        <pt x="-41" y="421" on="1"/>
        <pt x="-36" y="419" on="0"/>
        <pt x="-13" y="416" on="0"/>
        <pt x="15" y="414" on="0"/>
        <pt x="46" y="413" on="0"/>
        <pt x="59" y="413" on="1"/>
        <pt x="59" y="457" on="0"/>
        <pt x="56" y="566" on="0"/>
        <pt x="50" y="664" on="0"/>
        <pt x="39" y="733" on="0"/>
        <pt x="31" y="738" on="1"/>
        <pt x="226" y="737" on="1"/>
        <pt x="285" y="737" on="0"/>
        <pt x="431" y="720" on="0"/>
        <pt x="579" y="683" on="0"/>
        <pt x="719" y="621" on="0"/>
        <pt x="827" y="532" on="0"/>
        <pt x="893" y="412" on="0"/>
        <pt x="893" y="335" on="1"/>
        <pt x="893" y="251" on="0"/>
        <pt x="818" y="136" on="0"/>
        <pt x="695" y="62" on="0"/>
        <pt x="539" y="21" on="0"/>
        <pt x="377" y="3" on="0"/>
        <pt x="225" y="0" on="0"/>
        <pt x="167" y="0" on="1"/>
        <pt x="47" y="0" on="1"/>
        <pt x="50" y="5" on="0"/>
        <pt x="54" y="47" on="0"/>
        <pt x="57" y="106" on="0"/>
        <pt x="59" y="176" on="0"/>
        <pt x="60" y="243" on="0"/>
        <pt x="60" y="300" on="0"/>
        <pt x="60" y="317" on="1"/>
        <pt x="27" y="316" on="0"/>
        <pt x="-29" y="313" on="0"/>
        <pt x="-38" y="309" on="1"/>
      </contour>
    </TTGlyph>
    <TTGlyph name="Euro" xMin="10" yMin="91" xMax="835" yMax="656">
      <contour>
        <pt x="673" y="401" on="1"/>
        <pt x="687" y="420" on="0"/>
        <pt x="711" y="466" on="0"/>
        <pt x="711" y="489" on="1"/>
        <pt x="711" y="516" on="0"/>
        <pt x="676" y="550" on="0"/>
        <pt x="625" y="570" on="0"/>
        <pt x="569" y="578" on="0"/>
        <pt x="549" y="578" on="1"/>
        <pt x="480" y="578" on="0"/>
        <pt x="355" y="519" on="0"/>
        <pt x="313" y="464" on="1"/>
        <pt x="364" y="465" on="0"/>
        <pt x="465" y="467" on="0"/>
        <pt x="516" y="469" on="1"/>
        <pt x="535" y="470" on="0"/>
        <pt x="591" y="470" on="0"/>
        <pt x="609" y="475" on="1"/>
        <pt x="571" y="387" on="1"/>
        <pt x="567" y="389" on="0"/>
        <pt x="524" y="392" on="0"/>
        <pt x="463" y="394" on="0"/>
        <pt x="393" y="394" on="0"/>
        <pt x="329" y="395" on="0"/>
        <pt x="282" y="395" on="0"/>
        <pt x="274" y="395" on="1"/>
        <pt x="263" y="365" on="0"/>
        <pt x="263" y="336" on="1"/>
        <pt x="314" y="337" on="0"/>
        <pt x="412" y="339" on="0"/>
        <pt x="463" y="341" on="1"/>
        <pt x="473" y="341" on="0"/>
        <pt x="498" y="342" on="0"/>
        <pt x="524" y="343" on="0"/>
        <pt x="549" y="345" on="0"/>
        <pt x="558" y="347" on="1"/>
        <pt x="520" y="259" on="1"/>
        <pt x="516" y="261" on="0"/>
        <pt x="481" y="263" on="0"/>
        <pt x="432" y="265" on="0"/>
        <pt x="375" y="266" on="0"/>
        <pt x="324" y="266" on="0"/>
        <pt x="286" y="267" on="0"/>
        <pt x="279" y="267" on="1"/>
        <pt x="295" y="239" on="0"/>
        <pt x="352" y="202" on="0"/>
        <pt x="420" y="181" on="0"/>
        <pt x="490" y="172" on="0"/>
        <pt x="519" y="172" on="1"/>
        <pt x="582" y="172" on="0"/>
        <pt x="706" y="193" on="0"/>
        <pt x="766" y="210" on="1"/>
        <pt x="796" y="131" on="1"/>
        <pt x="764" y="120" on="0"/>
        <pt x="692" y="105" on="0"/>
        <pt x="617" y="96" on="0"/>
        <pt x="542" y="91" on="0"/>
        <pt x="508" y="91" on="1"/>
        <pt x="462" y="91" on="0"/>
        <pt x="346" y="107" on="0"/>
        <pt x="237" y="148" on="0"/>
        <pt x="151" y="215" on="0"/>
        <pt x="135" y="266" on="1"/>
        <pt x="123" y="266" on="0"/>
        <pt x="91" y="266" on="0"/>
        <pt x="57" y="265" on="0"/>
        <pt x="25" y="263" on="0"/>
        <pt x="14" y="261" on="1"/>
        <pt x="10" y="341" on="1"/>
        <pt x="20" y="338" on="0"/>
        <pt x="52" y="335" on="0"/>
        <pt x="85" y="335" on="0"/>
        <pt x="117" y="335" on="0"/>
        <pt x="128" y="335" on="1"/>
        <pt x="130" y="350" on="0"/>
        <pt x="136" y="380" on="0"/>
        <pt x="141" y="394" on="1"/>
        <pt x="129" y="394" on="0"/>
        <pt x="95" y="394" on="0"/>
        <pt x="59" y="393" on="0"/>
        <pt x="25" y="391" on="0"/>
        <pt x="14" y="389" on="1"/>
        <pt x="10" y="469" on="1"/>
        <pt x="20" y="466" on="0"/>
        <pt x="67" y="463" on="0"/>
        <pt x="118" y="463" on="0"/>
        <pt x="165" y="463" on="0"/>
        <pt x="177" y="463" on="1"/>
        <pt x="210" y="510" on="0"/>
        <pt x="300" y="582" on="0"/>
        <pt x="404" y="631" on="0"/>
        <pt x="518" y="656" on="0"/>
        <pt x="574" y="656" on="1"/>
        <pt x="619" y="656" on="0"/>
        <pt x="711" y="642" on="0"/>
        <pt x="787" y="603" on="0"/>
        <pt x="835" y="535" on="0"/>
        <pt x="835" y="480" on="1"/>
        <pt x="835" y="460" on="0"/>
        <pt x="828" y="421" on="0"/>
        <pt x="822" y="401" on="1"/>
      </contour>
    </TTGlyph>
    <TTGlyph name="F" xMin="31" yMin="0" xMax="757" yMax="737">
      <contour>
        <pt x="741" y="626" on="0"/>
        <pt x="702" y="628" on="0"/>
        <pt x="646" y="630" on="0"/>
        <pt x="582" y="631" on="0"/>
        <pt x="525" y="631" on="0"/>
        <pt x="481" y="631" on="0"/>
        <pt x="473" y="631" on="1"/>
        <pt x="345" y="631" on="0"/>
        <pt x="216" y="628" on="1"/>
        <pt x="211" y="578" on="0"/>
        <pt x="209" y="479" on="0"/>
        <pt x="209" y="428" on="1"/>
        <pt x="663" y="433" on="1"/>
        <pt x="662" y="326" on="1"/>
        <pt x="656" y="328" on="0"/>
        <pt x="595" y="331" on="0"/>
        <pt x="525" y="332" on="0"/>
        <pt x="461" y="332" on="0"/>
        <pt x="452" y="332" on="1"/>
        <pt x="331" y="332" on="0"/>
        <pt x="208" y="329" on="1"/>
        <pt x="208" y="284" on="0"/>
        <pt x="207" y="195" on="0"/>
        <pt x="207" y="150" on="1"/>
        <pt x="207" y="142" on="0"/>
        <pt x="207" y="96" on="0"/>
        <pt x="209" y="47" on="0"/>
        <pt x="216" y="5" on="0"/>
        <pt x="222" y="0" on="1"/>
        <pt x="47" y="0" on="1"/>
        <pt x="53" y="6" on="0"/>
        <pt x="61" y="71" on="0"/>
        <pt x="66" y="163" on="0"/>
        <pt x="67" y="271" on="0"/>
        <pt x="67" y="369" on="0"/>
        <pt x="66" y="444" on="0"/>
        <pt x="66" y="459" on="1"/>
        <pt x="66" y="468" on="0"/>
        <pt x="66" y="512" on="0"/>
        <pt x="65" y="566" on="0"/>
        <pt x="63" y="627" on="0"/>
        <pt x="58" y="679" on="0"/>
        <pt x="50" y="718" on="0"/>
        <pt x="44" y="725" on="1"/>
        <pt x="41" y="728" on="0"/>
        <pt x="34" y="734" on="0"/>
        <pt x="31" y="737" on="1"/>
        <pt x="757" y="735" on="1"/>
        <pt x="746" y="624" on="1"/>
      </contour>
    </TTGlyph>
    <TTGlyph name="G" xMin="26" yMin="-7" xMax="1027" yMax="741">
      <contour>
        <pt x="759" y="125" on="1"/>
        <pt x="759" y="151" on="0"/>
        <pt x="757" y="200" on="0"/>
        <pt x="754" y="226" on="1"/>
        <pt x="705" y="226" on="1"/>
        <pt x="693" y="226" on="0"/>
        <pt x="658" y="227" on="0"/>
        <pt x="621" y="226" on="0"/>
        <pt x="587" y="224" on="0"/>
        <pt x="575" y="221" on="1"/>
        <pt x="590" y="325" on="1"/>
        <pt x="612" y="320" on="0"/>
        <pt x="666" y="320" on="0"/>
        <pt x="689" y="320" on="1"/>
        <pt x="701" y="319" on="0"/>
        <pt x="756" y="318" on="0"/>
        <pt x="826" y="317" on="0"/>
        <pt x="903" y="317" on="0"/>
        <pt x="970" y="318" on="0"/>
        <pt x="1019" y="320" on="0"/>
        <pt x="1026" y="323" on="1"/>
        <pt x="1027" y="215" on="1"/>
        <pt x="1005" y="220" on="0"/>
        <pt x="943" y="221" on="0"/>
        <pt x="920" y="222" on="1"/>
        <pt x="914" y="184" on="0"/>
        <pt x="910" y="104" on="0"/>
        <pt x="910" y="65" on="1"/>
        <pt x="910" y="47" on="1"/>
        <pt x="867" y="33" on="0"/>
        <pt x="772" y="12" on="0"/>
        <pt x="673" y="-1" on="0"/>
        <pt x="575" y="-7" on="0"/>
        <pt x="530" y="-7" on="1"/>
        <pt x="485" y="-7" on="0"/>
        <pt x="376" y="5" on="0"/>
        <pt x="264" y="33" on="0"/>
        <pt x="158" y="78" on="0"/>
        <pt x="76" y="144" on="0"/>
        <pt x="26" y="233" on="0"/>
        <pt x="26" y="291" on="1"/>
        <pt x="26" y="361" on="0"/>
        <pt x="79" y="482" on="0"/>
        <pt x="169" y="582" on="0"/>
        <pt x="288" y="660" on="0"/>
        <pt x="419" y="713" on="0"/>
        <pt x="554" y="741" on="0"/>
        <pt x="616" y="741" on="1"/>
        <pt x="675" y="741" on="0"/>
        <pt x="797" y="722" on="0"/>
        <pt x="897" y="671" on="0"/>
        <pt x="961" y="581" on="0"/>
        <pt x="961" y="509" on="1"/>
        <pt x="961" y="483" on="0"/>
        <pt x="953" y="430" on="0"/>
        <pt x="945" y="405" on="1"/>
        <pt x="748" y="405" on="1"/>
        <pt x="766" y="428" on="0"/>
        <pt x="798" y="489" on="0"/>
        <pt x="798" y="521" on="1"/>
        <pt x="798" y="556" on="0"/>
        <pt x="751" y="602" on="0"/>
        <pt x="684" y="628" on="0"/>
        <pt x="611" y="638" on="0"/>
        <pt x="584" y="638" on="1"/>
        <pt x="518" y="638" on="0"/>
        <pt x="383" y="590" on="0"/>
        <pt x="274" y="503" on="0"/>
        <pt x="204" y="384" on="0"/>
        <pt x="204" y="313" on="1"/>
        <pt x="204" y="271" on="0"/>
        <pt x="236" y="206" on="0"/>
        <pt x="289" y="159" on="0"/>
        <pt x="359" y="128" on="0"/>
        <pt x="434" y="109" on="0"/>
        <pt x="510" y="101" on="0"/>
        <pt x="544" y="101" on="1"/>
        <pt x="598" y="101" on="0"/>
        <pt x="705" y="114" on="0"/>
      </contour>
    </TTGlyph>
    <TTGlyph name="H" xMin="31" yMin="0" xMax="835" yMax="737">
      <contour>
        <pt x="822" y="737" on="0"/>
        <pt x="806" y="691" on="0"/>
        <pt x="796" y="621" on="0"/>
        <pt x="791" y="536" on="0"/>
        <pt x="789" y="458" on="0"/>
        <pt x="789" y="398" on="0"/>
        <pt x="789" y="387" on="1"/>
        <pt x="789" y="327" on="0"/>
        <pt x="788" y="210" on="0"/>
        <pt x="788" y="150" on="1"/>
        <pt x="788" y="142" on="0"/>
        <pt x="788" y="96" on="0"/>
        <pt x="790" y="47" on="0"/>
        <pt x="797" y="5" on="0"/>
        <pt x="803" y="0" on="1"/>
        <pt x="628" y="0" on="1"/>
        <pt x="634" y="5" on="0"/>
        <pt x="641" y="54" on="0"/>
        <pt x="645" y="121" on="0"/>
        <pt x="647" y="199" on="0"/>
        <pt x="647" y="269" on="0"/>
        <pt x="647" y="322" on="0"/>
        <pt x="647" y="331" on="1"/>
        <pt x="546" y="335" on="0"/>
        <pt x="346" y="337" on="0"/>
        <pt x="245" y="337" on="1"/>
        <pt x="208" y="337" on="1"/>
        <pt x="208" y="290" on="0"/>
        <pt x="207" y="198" on="0"/>
        <pt x="207" y="151" on="1"/>
        <pt x="207" y="143" on="0"/>
        <pt x="207" y="97" on="0"/>
        <pt x="209" y="47" on="0"/>
        <pt x="216" y="5" on="0"/>
        <pt x="222" y="0" on="1"/>
        <pt x="47" y="0" on="1"/>
        <pt x="53" y="6" on="0"/>
        <pt x="61" y="71" on="0"/>
        <pt x="66" y="163" on="0"/>
        <pt x="67" y="271" on="0"/>
        <pt x="67" y="369" on="0"/>
        <pt x="66" y="444" on="0"/>
        <pt x="66" y="459" on="1"/>
        <pt x="66" y="467" on="0"/>
        <pt x="67" y="514" on="0"/>
        <pt x="66" y="574" on="0"/>
        <pt x="63" y="640" on="0"/>
        <pt x="55" y="696" on="0"/>
        <pt x="41" y="734" on="0"/>
        <pt x="31" y="737" on="1"/>
        <pt x="255" y="737" on="1"/>
        <pt x="243" y="737" on="0"/>
        <pt x="227" y="697" on="0"/>
        <pt x="217" y="635" on="0"/>
        <pt x="211" y="560" on="0"/>
        <pt x="209" y="492" on="0"/>
        <pt x="209" y="439" on="0"/>
        <pt x="209" y="430" on="1"/>
        <pt x="318" y="428" on="0"/>
        <pt x="537" y="426" on="0"/>
        <pt x="647" y="429" on="1"/>
        <pt x="647" y="459" on="1"/>
        <pt x="647" y="468" on="0"/>
        <pt x="648" y="514" on="0"/>
        <pt x="647" y="574" on="0"/>
        <pt x="644" y="640" on="0"/>
        <pt x="636" y="696" on="0"/>
        <pt x="622" y="734" on="0"/>
        <pt x="612" y="737" on="1"/>
        <pt x="835" y="737" on="1"/>
      </contour>
    </TTGlyph>
    <TTGlyph name="I" xMin="31" yMin="0" xMax="255" yMax="737">
      <contour>
        <pt x="53" y="6" on="0"/>
        <pt x="61" y="71" on="0"/>
        <pt x="66" y="163" on="0"/>
        <pt x="67" y="271" on="0"/>
        <pt x="67" y="369" on="0"/>
        <pt x="66" y="444" on="0"/>
        <pt x="66" y="459" on="1"/>
        <pt x="66" y="468" on="0"/>
        <pt x="67" y="514" on="0"/>
        <pt x="66" y="574" on="0"/>
        <pt x="63" y="640" on="0"/>
        <pt x="55" y="696" on="0"/>
        <pt x="41" y="734" on="0"/>
        <pt x="31" y="737" on="1"/>
        <pt x="255" y="737" on="1"/>
        <pt x="242" y="737" on="0"/>
        <pt x="225" y="691" on="0"/>
        <pt x="215" y="621" on="0"/>
        <pt x="210" y="536" on="0"/>
        <pt x="208" y="458" on="0"/>
        <pt x="208" y="397" on="0"/>
        <pt x="208" y="386" on="1"/>
        <pt x="208" y="327" on="0"/>
        <pt x="207" y="210" on="0"/>
        <pt x="207" y="150" on="1"/>
        <pt x="207" y="142" on="0"/>
        <pt x="207" y="96" on="0"/>
        <pt x="209" y="47" on="0"/>
        <pt x="216" y="5" on="0"/>
        <pt x="222" y="0" on="1"/>
        <pt x="47" y="0" on="1"/>
      </contour>
    </TTGlyph>
    <TTGlyph name="Iacute" xMin="31" yMin="0" xMax="402" yMax="1006">
      <component glyphName="I" x="0" y="0" flags="0x204"/>
      <component glyphName="acute" x="-214" y="215" flags="0x4"/>
    </TTGlyph>
    <TTGlyph name="Icircumflex" xMin="-60" yMin="0" xMax="349" yMax="960">
      <component glyphName="I" x="0" y="0" flags="0x204"/>
      <component glyphName="circumflex" x="-316" y="195" flags="0x4"/>
    </TTGlyph>
    <TTGlyph name="Idieresis" xMin="-61" yMin="0" xMax="350" yMax="917">
      <component glyphName="I" x="0" y="0" flags="0x204"/>
      <component glyphName="dieresis" x="-316" y="174" flags="0x4"/>
    </TTGlyph>
    <TTGlyph name="Igrave" xMin="-114" yMin="0" xMax="255" yMax="1006">
      <component glyphName="I" x="0" y="0" flags="0x204"/>
      <component glyphName="grave" x="-419" y="215" flags="0x4"/>
    </TTGlyph>
    <TTGlyph name="J" xMin="-41" yMin="-12" xMax="656" yMax="737">
      <contour>
        <pt x="651" y="734" on="0"/>
        <pt x="646" y="697" on="0"/>
        <pt x="645" y="654" on="0"/>
        <pt x="645" y="614" on="0"/>
        <pt x="645" y="608" on="1"/>
        <pt x="645" y="527" on="0"/>
        <pt x="647" y="364" on="0"/>
        <pt x="647" y="283" on="1"/>
        <pt x="647" y="197" on="0"/>
        <pt x="578" y="83" on="0"/>
        <pt x="466" y="16" on="0"/>
        <pt x="324" y="-12" on="0"/>
        <pt x="251" y="-12" on="1"/>
        <pt x="203" y="-12" on="0"/>
        <pt x="99" y="6" on="0"/>
        <pt x="14" y="51" on="0"/>
        <pt x="-41" y="128" on="0"/>
        <pt x="-41" y="187" on="1"/>
        <pt x="-41" y="206" on="0"/>
        <pt x="-33" y="246" on="0"/>
        <pt x="-23" y="263" on="1"/>
        <pt x="123" y="239" on="1"/>
        <pt x="106" y="210" on="0"/>
        <pt x="106" y="177" on="1"/>
        <pt x="106" y="142" on="0"/>
        <pt x="139" y="96" on="0"/>
        <pt x="191" y="69" on="0"/>
        <pt x="252" y="58" on="0"/>
        <pt x="281" y="58" on="1"/>
        <pt x="384" y="58" on="0"/>
        <pt x="490" y="154" on="0"/>
        <pt x="490" y="259" on="1"/>
        <pt x="490" y="382" on="1"/>
        <pt x="490" y="389" on="0"/>
        <pt x="491" y="445" on="0"/>
        <pt x="491" y="522" on="0"/>
        <pt x="490" y="608" on="0"/>
        <pt x="487" y="682" on="0"/>
        <pt x="480" y="733" on="0"/>
        <pt x="475" y="737" on="1"/>
        <pt x="656" y="737" on="1"/>
      </contour>
    </TTGlyph>
    <TTGlyph name="K" xMin="31" yMin="0" xMax="853" yMax="738">
      <contour>
        <pt x="387" y="424" on="1"/>
        <pt x="396" y="415" on="0"/>
        <pt x="444" y="370" on="0"/>
        <pt x="510" y="309" on="0"/>
        <pt x="588" y="236" on="0"/>
        <pt x="668" y="162" on="0"/>
        <pt x="744" y="93" on="0"/>
        <pt x="806" y="39" on="0"/>
        <pt x="848" y="6" on="0"/>
        <pt x="853" y="5" on="1"/>
        <pt x="651" y="0" on="1"/>
        <pt x="643" y="11" on="0"/>
        <pt x="621" y="32" on="0"/>
        <pt x="611" y="43" on="1"/>
        <pt x="531" y="123" on="0"/>
        <pt x="369" y="278" on="0"/>
        <pt x="284" y="352" on="1"/>
        <pt x="208" y="298" on="1"/>
        <pt x="208" y="261" on="0"/>
        <pt x="207" y="187" on="0"/>
        <pt x="207" y="150" on="1"/>
        <pt x="207" y="141" on="0"/>
        <pt x="207" y="97" on="0"/>
        <pt x="209" y="47" on="0"/>
        <pt x="216" y="6" on="0"/>
        <pt x="222" y="0" on="1"/>
        <pt x="47" y="0" on="1"/>
        <pt x="53" y="6" on="0"/>
        <pt x="61" y="71" on="0"/>
        <pt x="66" y="164" on="0"/>
        <pt x="67" y="271" on="0"/>
        <pt x="67" y="368" on="0"/>
        <pt x="66" y="444" on="0"/>
        <pt x="66" y="459" on="1"/>
        <pt x="66" y="468" on="0"/>
        <pt x="67" y="514" on="0"/>
        <pt x="66" y="574" on="0"/>
        <pt x="63" y="640" on="0"/>
        <pt x="55" y="696" on="0"/>
        <pt x="41" y="734" on="0"/>
        <pt x="31" y="737" on="1"/>
        <pt x="255" y="737" on="1"/>
        <pt x="243" y="737" on="0"/>
        <pt x="227" y="698" on="0"/>
        <pt x="217" y="638" on="0"/>
        <pt x="211" y="567" on="0"/>
        <pt x="209" y="501" on="0"/>
        <pt x="209" y="450" on="0"/>
        <pt x="209" y="441" on="1"/>
        <pt x="223" y="449" on="0"/>
        <pt x="291" y="496" on="0"/>
        <pt x="377" y="557" on="0"/>
        <pt x="471" y="626" on="0"/>
        <pt x="550" y="686" on="0"/>
        <pt x="604" y="731" on="0"/>
        <pt x="608" y="738" on="1"/>
        <pt x="844" y="737" on="1"/>
        <pt x="823" y="726" on="0"/>
        <pt x="770" y="688" on="0"/>
        <pt x="750" y="674" on="1"/>
        <pt x="658" y="612" on="0"/>
        <pt x="478" y="488" on="0"/>
      </contour>
    </TTGlyph>
    <TTGlyph name="L" xMin="31" yMin="0" xMax="721" yMax="737">
      <contour>
        <pt x="47" y="0" on="1"/>
        <pt x="53" y="6" on="0"/>
        <pt x="61" y="71" on="0"/>
        <pt x="66" y="163" on="0"/>
        <pt x="67" y="270" on="0"/>
        <pt x="67" y="368" on="0"/>
        <pt x="66" y="444" on="0"/>
        <pt x="66" y="459" on="1"/>
        <pt x="66" y="467" on="0"/>
        <pt x="67" y="514" on="0"/>
        <pt x="66" y="574" on="0"/>
        <pt x="63" y="640" on="0"/>
        <pt x="55" y="696" on="0"/>
        <pt x="41" y="734" on="0"/>
        <pt x="31" y="737" on="1"/>
        <pt x="255" y="737" on="1"/>
        <pt x="242" y="737" on="0"/>
        <pt x="225" y="691" on="0"/>
        <pt x="215" y="621" on="0"/>
        <pt x="210" y="536" on="0"/>
        <pt x="208" y="458" on="0"/>
        <pt x="208" y="397" on="0"/>
        <pt x="208" y="386" on="1"/>
        <pt x="208" y="317" on="0"/>
        <pt x="205" y="179" on="0"/>
        <pt x="207" y="110" on="1"/>
        <pt x="241" y="108" on="0"/>
        <pt x="299" y="107" on="0"/>
        <pt x="355" y="107" on="0"/>
        <pt x="414" y="107" on="0"/>
        <pt x="448" y="107" on="1"/>
        <pt x="455" y="107" on="0"/>
        <pt x="497" y="107" on="0"/>
        <pt x="552" y="107" on="0"/>
        <pt x="614" y="108" on="0"/>
        <pt x="667" y="109" on="0"/>
        <pt x="705" y="111" on="0"/>
        <pt x="710" y="113" on="1"/>
        <pt x="721" y="2" on="1"/>
      </contour>
    </TTGlyph>
    <TTGlyph name="Lslash" xMin="-91" yMin="0" xMax="721" yMax="737">
      <contour>
        <pt x="-91" y="361" on="1"/>
        <pt x="-83" y="361" on="0"/>
        <pt x="-48" y="372" on="0"/>
        <pt x="-9" y="385" on="0"/>
        <pt x="27" y="399" on="0"/>
        <pt x="35" y="402" on="1"/>
        <pt x="40" y="404" on="0"/>
        <pt x="55" y="410" on="0"/>
        <pt x="66" y="415" on="1"/>
        <pt x="66" y="459" on="1"/>
        <pt x="66" y="467" on="0"/>
        <pt x="67" y="514" on="0"/>
        <pt x="66" y="574" on="0"/>
        <pt x="63" y="640" on="0"/>
        <pt x="55" y="696" on="0"/>
        <pt x="41" y="734" on="0"/>
        <pt x="31" y="737" on="1"/>
        <pt x="255" y="737" on="1"/>
        <pt x="241" y="737" on="0"/>
        <pt x="224" y="685" on="0"/>
        <pt x="213" y="607" on="0"/>
        <pt x="209" y="515" on="0"/>
        <pt x="209" y="475" on="1"/>
        <pt x="233" y="485" on="0"/>
        <pt x="278" y="506" on="0"/>
        <pt x="314" y="524" on="0"/>
        <pt x="338" y="537" on="0"/>
        <pt x="342" y="541" on="1"/>
        <pt x="384" y="426" on="1"/>
        <pt x="379" y="427" on="0"/>
        <pt x="341" y="416" on="0"/>
        <pt x="290" y="399" on="0"/>
        <pt x="233" y="377" on="0"/>
        <pt x="208" y="368" on="1"/>
        <pt x="208" y="303" on="0"/>
        <pt x="206" y="175" on="0"/>
        <pt x="207" y="110" on="1"/>
        <pt x="241" y="108" on="0"/>
        <pt x="299" y="107" on="0"/>
        <pt x="355" y="107" on="0"/>
        <pt x="414" y="107" on="0"/>
        <pt x="448" y="107" on="1"/>
        <pt x="455" y="107" on="0"/>
        <pt x="497" y="107" on="0"/>
        <pt x="552" y="107" on="0"/>
        <pt x="614" y="108" on="0"/>
        <pt x="667" y="109" on="0"/>
        <pt x="705" y="111" on="0"/>
        <pt x="710" y="113" on="1"/>
        <pt x="721" y="2" on="1"/>
        <pt x="47" y="0" on="1"/>
        <pt x="53" y="6" on="0"/>
        <pt x="61" y="69" on="0"/>
        <pt x="66" y="159" on="0"/>
        <pt x="67" y="264" on="0"/>
        <pt x="67" y="312" on="1"/>
        <pt x="49" y="304" on="0"/>
        <pt x="11" y="289" on="0"/>
        <pt x="-20" y="275" on="0"/>
        <pt x="-43" y="263" on="0"/>
        <pt x="-47" y="259" on="1"/>
      </contour>
    </TTGlyph>
    <TTGlyph name="M" xMin="26" yMin="0" xMax="1194" yMax="737">
      <contour>
        <pt x="1015" y="5" on="0"/>
        <pt x="1015" y="29" on="0"/>
        <pt x="1015" y="35" on="1"/>
        <pt x="1015" y="97" on="0"/>
        <pt x="1002" y="221" on="0"/>
        <pt x="994" y="282" on="1"/>
        <pt x="988" y="338" on="0"/>
        <pt x="973" y="458" on="0"/>
        <pt x="962" y="512" on="1"/>
        <pt x="911" y="440" on="0"/>
        <pt x="822" y="290" on="0"/>
        <pt x="777" y="214" on="1"/>
        <pt x="726" y="126" on="1"/>
        <pt x="718" y="113" on="0"/>
        <pt x="703" y="86" on="0"/>
        <pt x="694" y="74" on="1"/>
        <pt x="673" y="73" on="0"/>
        <pt x="631" y="73" on="0"/>
        <pt x="610" y="73" on="1"/>
        <pt x="589" y="73" on="0"/>
        <pt x="546" y="72" on="0"/>
        <pt x="525" y="74" on="1"/>
        <pt x="517" y="86" on="0"/>
        <pt x="502" y="113" on="0"/>
        <pt x="494" y="127" on="1"/>
        <pt x="442" y="215" on="1"/>
        <pt x="397" y="290" on="0"/>
        <pt x="308" y="440" on="0"/>
        <pt x="257" y="512" on="1"/>
        <pt x="246" y="458" on="0"/>
        <pt x="232" y="338" on="0"/>
        <pt x="225" y="282" on="1"/>
        <pt x="217" y="221" on="0"/>
        <pt x="204" y="97" on="0"/>
        <pt x="204" y="35" on="1"/>
        <pt x="204" y="29" on="0"/>
        <pt x="204" y="5" on="0"/>
        <pt x="209" y="0" on="1"/>
        <pt x="26" y="0" on="1"/>
        <pt x="32" y="6" on="0"/>
        <pt x="44" y="55" on="0"/>
        <pt x="55" y="123" on="0"/>
        <pt x="64" y="201" on="0"/>
        <pt x="71" y="272" on="0"/>
        <pt x="76" y="326" on="0"/>
        <pt x="77" y="336" on="1"/>
        <pt x="84" y="414" on="0"/>
        <pt x="101" y="574" on="0"/>
        <pt x="101" y="652" on="1"/>
        <pt x="101" y="658" on="0"/>
        <pt x="101" y="685" on="0"/>
        <pt x="97" y="712" on="0"/>
        <pt x="88" y="734" on="0"/>
        <pt x="80" y="737" on="1"/>
        <pt x="324" y="737" on="1"/>
        <pt x="319" y="734" on="0"/>
        <pt x="319" y="727" on="1"/>
        <pt x="319" y="709" on="0"/>
        <pt x="355" y="629" on="0"/>
        <pt x="411" y="526" on="0"/>
        <pt x="480" y="413" on="0"/>
        <pt x="544" y="310" on="0"/>
        <pt x="597" y="228" on="0"/>
        <pt x="610" y="209" on="1"/>
        <pt x="622" y="228" on="0"/>
        <pt x="675" y="310" on="0"/>
        <pt x="740" y="413" on="0"/>
        <pt x="808" y="527" on="0"/>
        <pt x="864" y="629" on="0"/>
        <pt x="900" y="709" on="0"/>
        <pt x="900" y="727" on="1"/>
        <pt x="900" y="734" on="0"/>
        <pt x="896" y="737" on="1"/>
        <pt x="1140" y="737" on="1"/>
        <pt x="1131" y="734" on="0"/>
        <pt x="1122" y="712" on="0"/>
        <pt x="1118" y="685" on="0"/>
        <pt x="1118" y="658" on="0"/>
        <pt x="1118" y="652" on="1"/>
        <pt x="1118" y="574" on="0"/>
        <pt x="1135" y="414" on="0"/>
        <pt x="1143" y="336" on="1"/>
        <pt x="1144" y="326" on="0"/>
        <pt x="1148" y="272" on="0"/>
        <pt x="1155" y="201" on="0"/>
        <pt x="1164" y="123" on="0"/>
        <pt x="1175" y="55" on="0"/>
        <pt x="1187" y="6" on="0"/>
        <pt x="1194" y="0" on="1"/>
        <pt x="1011" y="0" on="1"/>
      </contour>
    </TTGlyph>
    <TTGlyph name="N" xMin="31" yMin="0" xMax="817" yMax="737">
      <contour>
        <pt x="804" y="737" on="0"/>
        <pt x="788" y="691" on="0"/>
        <pt x="777" y="621" on="0"/>
        <pt x="772" y="536" on="0"/>
        <pt x="771" y="458" on="0"/>
        <pt x="771" y="397" on="0"/>
        <pt x="771" y="386" on="1"/>
        <pt x="771" y="327" on="0"/>
        <pt x="769" y="210" on="0"/>
        <pt x="769" y="150" on="1"/>
        <pt x="769" y="142" on="0"/>
        <pt x="769" y="97" on="0"/>
        <pt x="771" y="47" on="0"/>
        <pt x="778" y="5" on="0"/>
        <pt x="784" y="0" on="1"/>
        <pt x="608" y="0" on="1"/>
        <pt x="595" y="15" on="0"/>
        <pt x="572" y="48" on="0"/>
        <pt x="560" y="64" on="1"/>
        <pt x="484" y="166" on="1"/>
        <pt x="420" y="252" on="0"/>
        <pt x="290" y="422" on="0"/>
        <pt x="221" y="505" on="1"/>
        <pt x="217" y="472" on="0"/>
        <pt x="215" y="405" on="0"/>
        <pt x="214" y="372" on="1"/>
        <pt x="212" y="321" on="0"/>
        <pt x="210" y="219" on="0"/>
        <pt x="210" y="168" on="1"/>
        <pt x="210" y="160" on="0"/>
        <pt x="210" y="109" on="0"/>
        <pt x="212" y="53" on="0"/>
        <pt x="217" y="5" on="0"/>
        <pt x="222" y="0" on="1"/>
        <pt x="47" y="0" on="1"/>
        <pt x="53" y="6" on="0"/>
        <pt x="61" y="71" on="0"/>
        <pt x="65" y="163" on="0"/>
        <pt x="67" y="270" on="0"/>
        <pt x="67" y="368" on="0"/>
        <pt x="66" y="444" on="0"/>
        <pt x="66" y="459" on="1"/>
        <pt x="66" y="468" on="0"/>
        <pt x="67" y="514" on="0"/>
        <pt x="66" y="574" on="0"/>
        <pt x="63" y="640" on="0"/>
        <pt x="55" y="696" on="0"/>
        <pt x="41" y="734" on="0"/>
        <pt x="31" y="737" on="1"/>
        <pt x="273" y="737" on="1"/>
        <pt x="270" y="736" on="0"/>
        <pt x="270" y="729" on="1"/>
        <pt x="270" y="712" on="0"/>
        <pt x="315" y="628" on="0"/>
        <pt x="386" y="519" on="0"/>
        <pt x="471" y="397" on="0"/>
        <pt x="550" y="287" on="0"/>
        <pt x="613" y="202" on="0"/>
        <pt x="627" y="184" on="1"/>
        <pt x="629" y="253" on="0"/>
        <pt x="628" y="390" on="0"/>
        <pt x="628" y="459" on="1"/>
        <pt x="628" y="468" on="0"/>
        <pt x="629" y="514" on="0"/>
        <pt x="628" y="574" on="0"/>
        <pt x="625" y="640" on="0"/>
        <pt x="617" y="696" on="0"/>
        <pt x="603" y="734" on="0"/>
        <pt x="593" y="737" on="1"/>
        <pt x="817" y="737" on="1"/>
      </contour>
    </TTGlyph>
    <TTGlyph name="Ntilde" xMin="31" yMin="0" xMax="817" yMax="921">
      <component glyphName="N" x="0" y="0" flags="0x204"/>
      <component glyphName="tilde" x="-40" y="164" flags="0x4"/>
    </TTGlyph>
    <TTGlyph name="O" xMin="26" yMin="-9" xMax="890" yMax="743">
      <contour>
        <pt x="458" y="743" on="1"/>
        <pt x="540" y="743" on="0"/>
        <pt x="696" y="689" on="0"/>
        <pt x="817" y="588" on="0"/>
        <pt x="890" y="445" on="0"/>
        <pt x="890" y="356" on="1"/>
        <pt x="890" y="268" on="0"/>
        <pt x="813" y="132" on="0"/>
        <pt x="689" y="39" on="0"/>
        <pt x="533" y="-9" on="0"/>
        <pt x="454" y="-9" on="1"/>
        <pt x="368" y="-9" on="0"/>
        <pt x="213" y="38" on="0"/>
        <pt x="96" y="131" on="0"/>
        <pt x="26" y="270" on="0"/>
        <pt x="26" y="363" on="1"/>
        <pt x="26" y="455" on="0"/>
        <pt x="99" y="597" on="0"/>
        <pt x="219" y="693" on="0"/>
        <pt x="375" y="743" on="0"/>
      </contour>
      <contour>
        <pt x="194" y="364" on="1"/>
        <pt x="194" y="308" on="0"/>
        <pt x="233" y="208" on="0"/>
        <pt x="303" y="133" on="0"/>
        <pt x="398" y="89" on="0"/>
        <pt x="455" y="89" on="1"/>
        <pt x="508" y="89" on="0"/>
        <pt x="605" y="134" on="0"/>
        <pt x="678" y="209" on="0"/>
        <pt x="722" y="306" on="0"/>
        <pt x="722" y="359" on="1"/>
        <pt x="722" y="432" on="0"/>
        <pt x="680" y="539" on="0"/>
        <pt x="608" y="610" on="0"/>
        <pt x="512" y="645" on="0"/>
        <pt x="458" y="645" on="1"/>
        <pt x="402" y="645" on="0"/>
        <pt x="306" y="598" on="0"/>
        <pt x="235" y="520" on="0"/>
        <pt x="194" y="419" on="0"/>
      </contour>
    </TTGlyph>
    <TTGlyph name="OE" xMin="26" yMin="-13" xMax="1483" yMax="739">
      <contour>
        <pt x="757" y="0" on="1"/>
        <pt x="761" y="5" on="0"/>
        <pt x="767" y="27" on="0"/>
        <pt x="770" y="52" on="0"/>
        <pt x="772" y="75" on="0"/>
        <pt x="772" y="81" on="1"/>
        <pt x="740" y="58" on="0"/>
        <pt x="666" y="23" on="0"/>
        <pt x="587" y="-1" on="0"/>
        <pt x="506" y="-13" on="0"/>
        <pt x="467" y="-13" on="1"/>
        <pt x="381" y="-13" on="0"/>
        <pt x="222" y="33" on="0"/>
        <pt x="99" y="125" on="0"/>
        <pt x="26" y="265" on="0"/>
        <pt x="26" y="359" on="1"/>
        <pt x="26" y="453" on="0"/>
        <pt x="102" y="595" on="0"/>
        <pt x="227" y="691" on="0"/>
        <pt x="387" y="739" on="0"/>
        <pt x="471" y="739" on="1"/>
        <pt x="549" y="739" on="0"/>
        <pt x="709" y="686" on="0"/>
        <pt x="772" y="639" on="1"/>
        <pt x="772" y="645" on="0"/>
        <pt x="769" y="670" on="0"/>
        <pt x="765" y="697" on="0"/>
        <pt x="759" y="720" on="0"/>
        <pt x="755" y="725" on="1"/>
        <pt x="749" y="731" on="0"/>
        <pt x="741" y="737" on="1"/>
        <pt x="1467" y="735" on="1"/>
        <pt x="1456" y="624" on="1"/>
        <pt x="1451" y="626" on="0"/>
        <pt x="1411" y="629" on="0"/>
        <pt x="1356" y="630" on="0"/>
        <pt x="1293" y="631" on="0"/>
        <pt x="1236" y="631" on="0"/>
        <pt x="1192" y="631" on="0"/>
        <pt x="1184" y="631" on="1"/>
        <pt x="1056" y="631" on="0"/>
        <pt x="927" y="628" on="1"/>
        <pt x="922" y="578" on="0"/>
        <pt x="919" y="479" on="0"/>
        <pt x="919" y="428" on="1"/>
        <pt x="1379" y="433" on="1"/>
        <pt x="1379" y="326" on="1"/>
        <pt x="1374" y="328" on="0"/>
        <pt x="1343" y="330" on="0"/>
        <pt x="1301" y="331" on="0"/>
        <pt x="1253" y="332" on="0"/>
        <pt x="1210" y="332" on="0"/>
        <pt x="1176" y="332" on="0"/>
        <pt x="1169" y="332" on="1"/>
        <pt x="1043" y="332" on="0"/>
        <pt x="919" y="329" on="1"/>
        <pt x="919" y="284" on="0"/>
        <pt x="917" y="195" on="0"/>
        <pt x="917" y="150" on="1"/>
        <pt x="917" y="110" on="1"/>
        <pt x="988" y="107" on="0"/>
        <pt x="1129" y="107" on="0"/>
        <pt x="1200" y="107" on="1"/>
        <pt x="1208" y="107" on="0"/>
        <pt x="1252" y="107" on="0"/>
        <pt x="1309" y="107" on="0"/>
        <pt x="1372" y="108" on="0"/>
        <pt x="1427" y="109" on="0"/>
        <pt x="1467" y="111" on="0"/>
        <pt x="1472" y="113" on="1"/>
        <pt x="1483" y="2" on="1"/>
      </contour>
      <contour>
        <pt x="468" y="85" on="1"/>
        <pt x="522" y="85" on="0"/>
        <pt x="621" y="129" on="0"/>
        <pt x="697" y="203" on="0"/>
        <pt x="743" y="302" on="0"/>
        <pt x="743" y="356" on="1"/>
        <pt x="743" y="410" on="0"/>
        <pt x="700" y="513" on="0"/>
        <pt x="625" y="592" on="0"/>
        <pt x="526" y="641" on="0"/>
        <pt x="471" y="641" on="1"/>
        <pt x="415" y="641" on="0"/>
        <pt x="316" y="595" on="0"/>
        <pt x="242" y="518" on="0"/>
        <pt x="199" y="416" on="0"/>
        <pt x="199" y="360" on="1"/>
        <pt x="199" y="303" on="0"/>
        <pt x="240" y="203" on="0"/>
        <pt x="312" y="128" on="0"/>
        <pt x="410" y="85" on="0"/>
      </contour>
    </TTGlyph>
    <TTGlyph name="Oacute" xMin="26" yMin="-9" xMax="890" yMax="996">
      <component glyphName="O" x="0" y="0" flags="0x204"/>
      <component glyphName="acute" x="31" y="205" flags="0x4"/>
    </TTGlyph>
    <TTGlyph name="Ocircumflex" xMin="26" yMin="-9" xMax="890" yMax="949">
      <component glyphName="O" x="0" y="0" flags="0x204"/>
      <component glyphName="circumflex" x="0" y="184" flags="0x4"/>
    </TTGlyph>
    <TTGlyph name="Odieresis" xMin="26" yMin="-9" xMax="890" yMax="917">
      <component glyphName="O" x="0" y="0" flags="0x204"/>
      <component glyphName="dieresis" x="20" y="174" flags="0x4"/>
    </TTGlyph>
    <TTGlyph name="Ograve" xMin="26" yMin="-9" xMax="890" yMax="996">
      <component glyphName="O" x="0" y="0" flags="0x204"/>
      <component glyphName="grave" x="-9" y="205" flags="0x4"/>
    </TTGlyph>
    <TTGlyph name="Oslash" xMin="26" yMin="-76" xMax="907" yMax="814">
      <contour>
        <pt x="682" y="689" on="1"/>
        <pt x="786" y="639" on="0"/>
        <pt x="907" y="470" on="0"/>
        <pt x="907" y="352" on="1"/>
        <pt x="907" y="263" on="0"/>
        <pt x="828" y="127" on="0"/>
        <pt x="701" y="35" on="0"/>
        <pt x="542" y="-13" on="0"/>
        <pt x="462" y="-13" on="1"/>
        <pt x="393" y="-13" on="0"/>
        <pt x="322" y="4" on="1"/>
        <pt x="319" y="-1" on="0"/>
        <pt x="309" y="-22" on="0"/>
        <pt x="299" y="-45" on="0"/>
        <pt x="292" y="-66" on="0"/>
        <pt x="292" y="-72" on="1"/>
        <pt x="292" y="-75" on="0"/>
        <pt x="293" y="-76" on="1"/>
        <pt x="147" y="-76" on="1"/>
        <pt x="155" y="-70" on="0"/>
        <pt x="178" y="-39" on="0"/>
        <pt x="201" y="-4" on="0"/>
        <pt x="221" y="30" on="0"/>
        <pt x="226" y="39" on="1"/>
        <pt x="127" y="87" on="0"/>
        <pt x="26" y="250" on="0"/>
        <pt x="26" y="359" on="1"/>
        <pt x="26" y="452" on="0"/>
        <pt x="101" y="594" on="0"/>
        <pt x="224" y="690" on="0"/>
        <pt x="382" y="739" on="0"/>
        <pt x="466" y="739" on="1"/>
        <pt x="493" y="739" on="0"/>
        <pt x="547" y="732" on="0"/>
        <pt x="573" y="726" on="1"/>
        <pt x="576" y="733" on="0"/>
        <pt x="585" y="753" on="0"/>
        <pt x="592" y="775" on="0"/>
        <pt x="598" y="795" on="0"/>
        <pt x="598" y="803" on="1"/>
        <pt x="598" y="811" on="0"/>
        <pt x="593" y="814" on="1"/>
        <pt x="785" y="814" on="1"/>
        <pt x="774" y="813" on="0"/>
        <pt x="744" y="780" on="0"/>
        <pt x="713" y="738" on="0"/>
        <pt x="687" y="697" on="0"/>
      </contour>
      <contour>
        <pt x="197" y="360" on="1"/>
        <pt x="197" y="300" on="0"/>
        <pt x="241" y="192" on="0"/>
        <pt x="288" y="151" on="1"/>
        <pt x="311" y="196" on="0"/>
        <pt x="355" y="285" on="0"/>
        <pt x="377" y="330" on="1"/>
        <pt x="414" y="406" on="0"/>
        <pt x="490" y="556" on="0"/>
        <pt x="528" y="631" on="1"/>
        <pt x="513" y="636" on="0"/>
        <pt x="482" y="641" on="0"/>
        <pt x="466" y="641" on="1"/>
        <pt x="410" y="641" on="0"/>
        <pt x="312" y="595" on="0"/>
        <pt x="239" y="517" on="0"/>
        <pt x="197" y="415" on="0"/>
      </contour>
      <contour>
        <pt x="463" y="85" on="1"/>
        <pt x="517" y="85" on="0"/>
        <pt x="615" y="129" on="0"/>
        <pt x="690" y="204" on="0"/>
        <pt x="735" y="302" on="0"/>
        <pt x="735" y="356" on="1"/>
        <pt x="735" y="425" on="0"/>
        <pt x="676" y="541" on="0"/>
        <pt x="621" y="583" on="1"/>
        <pt x="587" y="521" on="0"/>
        <pt x="524" y="397" on="0"/>
        <pt x="493" y="334" on="1"/>
        <pt x="464" y="274" on="0"/>
        <pt x="403" y="160" on="0"/>
        <pt x="372" y="102" on="1"/>
        <pt x="417" y="85" on="0"/>
      </contour>
    </TTGlyph>
    <TTGlyph name="Otilde" xMin="26" yMin="-9" xMax="890" yMax="931">
      <component glyphName="O" x="0" y="0" flags="0x204"/>
      <component glyphName="tilde" x="10" y="174" flags="0x4"/>
    </TTGlyph>
    <TTGlyph name="P" xMin="31" yMin="0" xMax="798" yMax="738">
      <contour>
        <pt x="798" y="518" on="1"/>
        <pt x="798" y="462" on="0"/>
        <pt x="732" y="385" on="0"/>
        <pt x="626" y="334" on="0"/>
        <pt x="494" y="305" on="0"/>
        <pt x="363" y="291" on="0"/>
        <pt x="246" y="287" on="0"/>
        <pt x="208" y="287" on="1"/>
        <pt x="208" y="252" on="0"/>
        <pt x="207" y="185" on="0"/>
        <pt x="207" y="150" on="1"/>
        <pt x="207" y="141" on="0"/>
        <pt x="207" y="97" on="0"/>
        <pt x="209" y="48" on="0"/>
        <pt x="216" y="6" on="0"/>
        <pt x="222" y="0" on="1"/>
        <pt x="47" y="0" on="1"/>
        <pt x="53" y="6" on="0"/>
        <pt x="61" y="72" on="0"/>
        <pt x="66" y="164" on="0"/>
        <pt x="67" y="272" on="0"/>
        <pt x="67" y="369" on="0"/>
        <pt x="66" y="445" on="0"/>
        <pt x="66" y="459" on="1"/>
        <pt x="66" y="468" on="0"/>
        <pt x="67" y="514" on="0"/>
        <pt x="66" y="574" on="0"/>
        <pt x="63" y="640" on="0"/>
        <pt x="55" y="696" on="0"/>
        <pt x="41" y="734" on="0"/>
        <pt x="31" y="737" on="1"/>
        <pt x="175" y="737" on="1"/>
        <pt x="189" y="737" on="0"/>
        <pt x="236" y="738" on="0"/>
        <pt x="250" y="736" on="1"/>
        <pt x="303" y="736" on="0"/>
        <pt x="407" y="732" on="0"/>
        <pt x="460" y="727" on="1"/>
        <pt x="491" y="724" on="0"/>
        <pt x="566" y="714" on="0"/>
        <pt x="641" y="695" on="0"/>
        <pt x="711" y="665" on="0"/>
        <pt x="765" y="621" on="0"/>
        <pt x="798" y="559" on="0"/>
      </contour>
      <contour>
        <pt x="617" y="519" on="1"/>
        <pt x="617" y="548" on="0"/>
        <pt x="575" y="587" on="0"/>
        <pt x="510" y="612" on="0"/>
        <pt x="429" y="625" on="0"/>
        <pt x="350" y="630" on="0"/>
        <pt x="284" y="630" on="0"/>
        <pt x="265" y="630" on="1"/>
        <pt x="217" y="630" on="1"/>
        <pt x="210" y="569" on="0"/>
        <pt x="208" y="447" on="0"/>
        <pt x="208" y="386" on="1"/>
        <pt x="248" y="386" on="0"/>
        <pt x="327" y="388" on="0"/>
        <pt x="367" y="391" on="1"/>
        <pt x="396" y="393" on="0"/>
        <pt x="482" y="403" on="0"/>
        <pt x="561" y="429" on="0"/>
        <pt x="617" y="478" on="0"/>
      </contour>
    </TTGlyph>
    <TTGlyph name="Q" xMin="26" yMin="-9" xMax="918" yMax="743">
      <contour>
        <pt x="798" y="150" on="1"/>
        <pt x="807" y="146" on="0"/>
        <pt x="840" y="129" on="0"/>
        <pt x="876" y="112" on="0"/>
        <pt x="909" y="98" on="0"/>
        <pt x="918" y="97" on="1"/>
        <pt x="810" y="14" on="1"/>
        <pt x="801" y="21" on="0"/>
        <pt x="776" y="37" on="0"/>
        <pt x="749" y="52" on="0"/>
        <pt x="723" y="66" on="0"/>
        <pt x="713" y="72" on="1"/>
        <pt x="655" y="34" on="0"/>
        <pt x="512" y="-9" on="0"/>
        <pt x="442" y="-9" on="1"/>
        <pt x="357" y="-9" on="0"/>
        <pt x="206" y="39" on="0"/>
        <pt x="92" y="133" on="0"/>
        <pt x="26" y="272" on="0"/>
        <pt x="26" y="363" on="1"/>
        <pt x="26" y="453" on="0"/>
        <pt x="95" y="595" on="0"/>
        <pt x="211" y="692" on="0"/>
        <pt x="364" y="743" on="0"/>
        <pt x="447" y="743" on="1"/>
        <pt x="528" y="743" on="0"/>
        <pt x="680" y="688" on="0"/>
        <pt x="797" y="586" on="0"/>
        <pt x="867" y="443" on="0"/>
        <pt x="867" y="356" on="1"/>
        <pt x="867" y="299" on="0"/>
        <pt x="834" y="195" on="0"/>
      </contour>
      <contour>
        <pt x="444" y="89" on="1"/>
        <pt x="482" y="89" on="0"/>
        <pt x="557" y="117" on="0"/>
        <pt x="588" y="139" on="1"/>
        <pt x="579" y="143" on="0"/>
        <pt x="546" y="160" on="0"/>
        <pt x="510" y="176" on="0"/>
        <pt x="477" y="190" on="0"/>
        <pt x="468" y="192" on="1"/>
        <pt x="585" y="266" on="1"/>
        <pt x="600" y="252" on="0"/>
        <pt x="647" y="229" on="0"/>
        <pt x="665" y="219" on="1"/>
        <pt x="685" y="251" on="0"/>
        <pt x="704" y="322" on="0"/>
        <pt x="704" y="359" on="1"/>
        <pt x="704" y="411" on="0"/>
        <pt x="664" y="513" on="0"/>
        <pt x="595" y="594" on="0"/>
        <pt x="501" y="645" on="0"/>
        <pt x="446" y="645" on="1"/>
        <pt x="391" y="645" on="0"/>
        <pt x="297" y="597" on="0"/>
        <pt x="229" y="518" on="0"/>
        <pt x="190" y="417" on="0"/>
        <pt x="190" y="364" on="1"/>
        <pt x="190" y="309" on="0"/>
        <pt x="227" y="209" on="0"/>
        <pt x="294" y="134" on="0"/>
        <pt x="388" y="89" on="0"/>
      </contour>
    </TTGlyph>
    <TTGlyph name="R" xMin="31" yMin="0" xMax="860" yMax="737">
      <contour>
        <pt x="521" y="292" on="1"/>
        <pt x="530" y="284" on="0"/>
        <pt x="584" y="234" on="0"/>
        <pt x="655" y="170" on="0"/>
        <pt x="734" y="100" on="0"/>
        <pt x="803" y="41" on="0"/>
        <pt x="853" y="1" on="0"/>
        <pt x="860" y="0" on="1"/>
        <pt x="653" y="0" on="1"/>
        <pt x="647" y="8" on="0"/>
        <pt x="625" y="31" on="0"/>
        <pt x="601" y="54" on="0"/>
        <pt x="578" y="76" on="0"/>
        <pt x="570" y="83" on="1"/>
        <pt x="521" y="131" on="0"/>
        <pt x="422" y="222" on="0"/>
        <pt x="370" y="267" on="1"/>
        <pt x="329" y="262" on="0"/>
        <pt x="249" y="259" on="0"/>
        <pt x="208" y="257" on="1"/>
        <pt x="207" y="230" on="0"/>
        <pt x="207" y="177" on="0"/>
        <pt x="207" y="150" on="1"/>
        <pt x="207" y="141" on="0"/>
        <pt x="207" y="97" on="0"/>
        <pt x="209" y="47" on="0"/>
        <pt x="216" y="6" on="0"/>
        <pt x="222" y="0" on="1"/>
        <pt x="47" y="0" on="1"/>
        <pt x="53" y="6" on="0"/>
        <pt x="61" y="71" on="0"/>
        <pt x="65" y="163" on="0"/>
        <pt x="67" y="270" on="0"/>
        <pt x="67" y="368" on="0"/>
        <pt x="66" y="444" on="0"/>
        <pt x="66" y="459" on="1"/>
        <pt x="66" y="468" on="0"/>
        <pt x="67" y="514" on="0"/>
        <pt x="66" y="574" on="0"/>
        <pt x="63" y="640" on="0"/>
        <pt x="55" y="696" on="0"/>
        <pt x="41" y="734" on="0"/>
        <pt x="31" y="737" on="1"/>
        <pt x="34" y="737" on="0"/>
        <pt x="67" y="737" on="0"/>
        <pt x="114" y="737" on="0"/>
        <pt x="167" y="737" on="0"/>
        <pt x="214" y="737" on="0"/>
        <pt x="246" y="736" on="0"/>
        <pt x="249" y="736" on="1"/>
        <pt x="285" y="736" on="0"/>
        <pt x="396" y="733" on="0"/>
        <pt x="521" y="719" on="0"/>
        <pt x="647" y="692" on="0"/>
        <pt x="748" y="642" on="0"/>
        <pt x="812" y="567" on="0"/>
        <pt x="812" y="513" on="1"/>
        <pt x="812" y="461" on="0"/>
        <pt x="752" y="386" on="0"/>
        <pt x="663" y="334" on="0"/>
        <pt x="562" y="301" on="0"/>
      </contour>
      <contour>
        <pt x="631" y="515" on="1"/>
        <pt x="631" y="545" on="0"/>
        <pt x="581" y="586" on="0"/>
        <pt x="502" y="611" on="0"/>
        <pt x="405" y="623" on="0"/>
        <pt x="313" y="628" on="0"/>
        <pt x="236" y="628" on="0"/>
        <pt x="216" y="628" on="1"/>
        <pt x="211" y="572" on="0"/>
        <pt x="208" y="461" on="0"/>
        <pt x="208" y="405" on="1"/>
        <pt x="208" y="378" on="1"/>
        <pt x="247" y="379" on="0"/>
        <pt x="325" y="381" on="0"/>
        <pt x="363" y="384" on="1"/>
        <pt x="382" y="385" on="0"/>
        <pt x="436" y="391" on="0"/>
        <pt x="496" y="402" on="0"/>
        <pt x="555" y="420" on="0"/>
        <pt x="602" y="448" on="0"/>
        <pt x="631" y="488" on="0"/>
      </contour>
    </TTGlyph>
    <TTGlyph name="S" xMin="20" yMin="-5" xMax="877" yMax="745">
      <contour>
        <pt x="694" y="423" on="0"/>
        <pt x="702" y="466" on="0"/>
        <pt x="702" y="489" on="1"/>
        <pt x="702" y="534" on="0"/>
        <pt x="670" y="593" on="0"/>
        <pt x="615" y="628" on="0"/>
        <pt x="544" y="641" on="0"/>
        <pt x="505" y="641" on="1"/>
        <pt x="481" y="641" on="0"/>
        <pt x="419" y="634" on="0"/>
        <pt x="354" y="619" on="0"/>
        <pt x="290" y="595" on="0"/>
        <pt x="241" y="559" on="0"/>
        <pt x="210" y="510" on="0"/>
        <pt x="210" y="479" on="1"/>
        <pt x="210" y="452" on="0"/>
        <pt x="249" y="413" on="0"/>
        <pt x="310" y="385" on="0"/>
        <pt x="386" y="367" on="0"/>
        <pt x="460" y="354" on="0"/>
        <pt x="524" y="347" on="0"/>
        <pt x="543" y="344" on="1"/>
        <pt x="567" y="340" on="0"/>
        <pt x="636" y="329" on="0"/>
        <pt x="710" y="311" on="0"/>
        <pt x="783" y="285" on="0"/>
        <pt x="841" y="248" on="0"/>
        <pt x="877" y="199" on="0"/>
        <pt x="877" y="167" on="1"/>
        <pt x="877" y="133" on="0"/>
        <pt x="840" y="81" on="0"/>
        <pt x="779" y="42" on="0"/>
        <pt x="704" y="17" on="0"/>
        <pt x="627" y="1" on="0"/>
        <pt x="557" y="-5" on="0"/>
        <pt x="533" y="-5" on="1"/>
        <pt x="427" y="-5" on="0"/>
        <pt x="219" y="30" on="0"/>
        <pt x="120" y="69" on="1"/>
        <pt x="110" y="73" on="0"/>
        <pt x="84" y="84" on="0"/>
        <pt x="56" y="96" on="0"/>
        <pt x="30" y="104" on="0"/>
        <pt x="20" y="105" on="1"/>
        <pt x="26" y="111" on="0"/>
        <pt x="51" y="133" on="0"/>
        <pt x="76" y="159" on="0"/>
        <pt x="97" y="182" on="0"/>
        <pt x="99" y="188" on="1"/>
        <pt x="187" y="134" on="0"/>
        <pt x="396" y="82" on="0"/>
        <pt x="499" y="82" on="1"/>
        <pt x="516" y="82" on="0"/>
        <pt x="589" y="87" on="0"/>
        <pt x="662" y="103" on="0"/>
        <pt x="717" y="132" on="0"/>
        <pt x="717" y="156" on="1"/>
        <pt x="717" y="188" on="0"/>
        <pt x="660" y="226" on="0"/>
        <pt x="566" y="251" on="0"/>
        <pt x="446" y="266" on="0"/>
        <pt x="321" y="284" on="0"/>
        <pt x="201" y="309" on="0"/>
        <pt x="107" y="352" on="0"/>
        <pt x="50" y="418" on="0"/>
        <pt x="50" y="468" on="1"/>
        <pt x="50" y="521" on="0"/>
        <pt x="93" y="603" on="0"/>
        <pt x="166" y="665" on="0"/>
        <pt x="259" y="707" on="0"/>
        <pt x="360" y="733" on="0"/>
        <pt x="460" y="745" on="0"/>
        <pt x="502" y="745" on="1"/>
        <pt x="572" y="745" on="0"/>
        <pt x="698" y="723" on="0"/>
        <pt x="791" y="665" on="0"/>
        <pt x="846" y="561" on="0"/>
        <pt x="846" y="479" on="1"/>
        <pt x="846" y="459" on="0"/>
        <pt x="843" y="421" on="0"/>
        <pt x="841" y="401" on="1"/>
        <pt x="689" y="401" on="1"/>
      </contour>
    </TTGlyph>
    <TTGlyph name="Scaron" xMin="20" yMin="-5" xMax="877" yMax="949">
      <component glyphName="S" x="0" y="0" flags="0x204"/>
      <component glyphName="caron" x="0" y="184" flags="0x4"/>
    </TTGlyph>
    <TTGlyph name="T" xMin="-113" yMin="0" xMax="727" yMax="741">
      <contour>
        <pt x="722" y="636" on="0"/>
        <pt x="677" y="638" on="0"/>
        <pt x="614" y="639" on="0"/>
        <pt x="541" y="640" on="0"/>
        <pt x="476" y="640" on="0"/>
        <pt x="427" y="640" on="0"/>
        <pt x="419" y="640" on="1"/>
        <pt x="411" y="565" on="0"/>
        <pt x="410" y="415" on="0"/>
        <pt x="410" y="340" on="1"/>
        <pt x="410" y="292" on="0"/>
        <pt x="408" y="198" on="0"/>
        <pt x="408" y="150" on="1"/>
        <pt x="408" y="142" on="0"/>
        <pt x="408" y="97" on="0"/>
        <pt x="410" y="47" on="0"/>
        <pt x="417" y="5" on="0"/>
        <pt x="423" y="0" on="1"/>
        <pt x="248" y="0" on="1"/>
        <pt x="255" y="6" on="0"/>
        <pt x="262" y="71" on="0"/>
        <pt x="267" y="163" on="0"/>
        <pt x="268" y="271" on="0"/>
        <pt x="268" y="369" on="0"/>
        <pt x="267" y="444" on="0"/>
        <pt x="267" y="459" on="1"/>
        <pt x="267" y="504" on="0"/>
        <pt x="266" y="594" on="0"/>
        <pt x="263" y="639" on="1"/>
        <pt x="198" y="639" on="0"/>
        <pt x="70" y="638" on="0"/>
        <pt x="5" y="637" on="1"/>
        <pt x="-5" y="637" on="0"/>
        <pt x="-36" y="636" on="0"/>
        <pt x="-70" y="636" on="0"/>
        <pt x="-101" y="634" on="0"/>
        <pt x="-110" y="632" on="1"/>
        <pt x="-113" y="736" on="1"/>
        <pt x="727" y="741" on="1"/>
        <pt x="726" y="634" on="1"/>
      </contour>
    </TTGlyph>
    <TTGlyph name="Thorn" xMin="31" yMin="0" xMax="798" yMax="737">
      <contour>
        <pt x="798" y="374" on="1"/>
        <pt x="798" y="318" on="0"/>
        <pt x="732" y="241" on="0"/>
        <pt x="626" y="190" on="0"/>
        <pt x="494" y="161" on="0"/>
        <pt x="363" y="147" on="0"/>
        <pt x="245" y="143" on="0"/>
        <pt x="207" y="143" on="1"/>
        <pt x="207" y="126" on="1"/>
        <pt x="207" y="116" on="0"/>
        <pt x="207" y="79" on="0"/>
        <pt x="210" y="41" on="0"/>
        <pt x="216" y="7" on="0"/>
        <pt x="222" y="0" on="1"/>
        <pt x="47" y="0" on="1"/>
        <pt x="52" y="6" on="0"/>
        <pt x="59" y="52" on="0"/>
        <pt x="64" y="115" on="0"/>
        <pt x="66" y="187" on="0"/>
        <pt x="67" y="253" on="0"/>
        <pt x="67" y="304" on="0"/>
        <pt x="67" y="315" on="1"/>
        <pt x="67" y="351" on="0"/>
        <pt x="66" y="423" on="0"/>
        <pt x="66" y="459" on="1"/>
        <pt x="66" y="469" on="0"/>
        <pt x="67" y="516" on="0"/>
        <pt x="66" y="576" on="0"/>
        <pt x="63" y="640" on="0"/>
        <pt x="55" y="695" on="0"/>
        <pt x="41" y="733" on="0"/>
        <pt x="31" y="737" on="1"/>
        <pt x="255" y="737" on="1"/>
        <pt x="243" y="735" on="0"/>
        <pt x="227" y="698" on="0"/>
        <pt x="218" y="650" on="0"/>
        <pt x="214" y="604" on="0"/>
        <pt x="214" y="594" on="1"/>
        <pt x="270" y="593" on="0"/>
        <pt x="381" y="589" on="0"/>
        <pt x="438" y="584" on="1"/>
        <pt x="470" y="581" on="0"/>
        <pt x="548" y="572" on="0"/>
        <pt x="628" y="554" on="0"/>
        <pt x="703" y="524" on="0"/>
        <pt x="762" y="480" on="0"/>
        <pt x="798" y="417" on="0"/>
      </contour>
      <contour>
        <pt x="208" y="242" on="1"/>
        <pt x="246" y="243" on="0"/>
        <pt x="324" y="245" on="0"/>
        <pt x="363" y="248" on="1"/>
        <pt x="393" y="250" on="0"/>
        <pt x="480" y="259" on="0"/>
        <pt x="560" y="285" on="0"/>
        <pt x="617" y="334" on="0"/>
        <pt x="617" y="376" on="1"/>
        <pt x="617" y="404" on="0"/>
        <pt x="579" y="442" on="0"/>
        <pt x="518" y="466" on="0"/>
        <pt x="443" y="480" on="0"/>
        <pt x="370" y="486" on="0"/>
        <pt x="307" y="487" on="0"/>
        <pt x="289" y="487" on="1"/>
        <pt x="209" y="487" on="1"/>
        <pt x="208" y="425" on="0"/>
        <pt x="209" y="304" on="0"/>
      </contour>
    </TTGlyph>
    <TTGlyph name="U" xMin="31" yMin="-3" xMax="852" yMax="735">
      <contour>
        <pt x="439" y="97" on="1"/>
        <pt x="476" y="97" on="0"/>
        <pt x="560" y="115" on="0"/>
        <pt x="630" y="156" on="0"/>
        <pt x="676" y="219" on="0"/>
        <pt x="676" y="264" on="1"/>
        <pt x="676" y="336" on="0"/>
        <pt x="680" y="479" on="0"/>
        <pt x="680" y="551" on="1"/>
        <pt x="680" y="564" on="0"/>
        <pt x="680" y="617" on="0"/>
        <pt x="678" y="673" on="0"/>
        <pt x="674" y="723" on="0"/>
        <pt x="670" y="735" on="1"/>
        <pt x="852" y="735" on="1"/>
        <pt x="843" y="726" on="0"/>
        <pt x="834" y="695" on="0"/>
        <pt x="830" y="660" on="0"/>
        <pt x="830" y="627" on="0"/>
        <pt x="830" y="615" on="1"/>
        <pt x="830" y="527" on="0"/>
        <pt x="836" y="356" on="0"/>
        <pt x="836" y="268" on="1"/>
        <pt x="836" y="218" on="0"/>
        <pt x="800" y="139" on="0"/>
        <pt x="738" y="79" on="0"/>
        <pt x="657" y="36" on="0"/>
        <pt x="568" y="9" on="0"/>
        <pt x="477" y="-3" on="0"/>
        <pt x="436" y="-3" on="1"/>
        <pt x="373" y="-3" on="0"/>
        <pt x="236" y="26" on="0"/>
        <pt x="122" y="90" on="0"/>
        <pt x="47" y="193" on="0"/>
        <pt x="47" y="268" on="1"/>
        <pt x="47" y="356" on="0"/>
        <pt x="53" y="527" on="0"/>
        <pt x="53" y="614" on="1"/>
        <pt x="53" y="626" on="0"/>
        <pt x="53" y="660" on="0"/>
        <pt x="49" y="695" on="0"/>
        <pt x="40" y="726" on="0"/>
        <pt x="31" y="735" on="1"/>
        <pt x="219" y="735" on="1"/>
        <pt x="215" y="723" on="0"/>
        <pt x="211" y="673" on="0"/>
        <pt x="209" y="617" on="0"/>
        <pt x="209" y="564" on="0"/>
        <pt x="209" y="551" on="1"/>
        <pt x="209" y="479" on="0"/>
        <pt x="213" y="336" on="0"/>
        <pt x="213" y="264" on="1"/>
        <pt x="213" y="219" on="0"/>
        <pt x="255" y="156" on="0"/>
        <pt x="320" y="116" on="0"/>
        <pt x="400" y="97" on="0"/>
      </contour>
    </TTGlyph>
    <TTGlyph name="Uacute" xMin="31" yMin="-3" xMax="852" yMax="965">
      <component glyphName="U" x="0" y="0" flags="0x204"/>
      <component glyphName="acute" x="20" y="174" flags="0x4"/>
    </TTGlyph>
    <TTGlyph name="Ucircumflex" xMin="31" yMin="-3" xMax="852" yMax="939">
      <component glyphName="U" x="0" y="0" flags="0x204"/>
      <component glyphName="circumflex" x="-19" y="174" flags="0x4"/>
    </TTGlyph>
    <TTGlyph name="Udieresis" xMin="31" yMin="-3" xMax="852" yMax="917">
      <component glyphName="U" x="0" y="0" flags="0x204"/>
      <component glyphName="dieresis" x="-9" y="174" flags="0x4"/>
    </TTGlyph>
    <TTGlyph name="Ugrave" xMin="31" yMin="-3" xMax="852" yMax="975">
      <component glyphName="U" x="0" y="0" flags="0x204"/>
      <component glyphName="grave" x="-60" y="184" flags="0x4"/>
    </TTGlyph>
    <TTGlyph name="V" xMin="-138" yMin="-2" xMax="874" yMax="737">
      <contour>
        <pt x="874" y="737" on="1"/>
        <pt x="863" y="731" on="0"/>
        <pt x="827" y="682" on="0"/>
        <pt x="781" y="608" on="0"/>
        <pt x="728" y="517" on="0"/>
        <pt x="674" y="420" on="0"/>
        <pt x="623" y="323" on="0"/>
        <pt x="579" y="240" on="0"/>
        <pt x="546" y="177" on="0"/>
        <pt x="538" y="161" on="1"/>
        <pt x="487" y="62" on="1"/>
        <pt x="479" y="46" on="0"/>
        <pt x="463" y="15" on="0"/>
        <pt x="453" y="0" on="1"/>
        <pt x="440" y="-2" on="0"/>
        <pt x="416" y="0" on="0"/>
        <pt x="403" y="0" on="1"/>
        <pt x="282" y="0" on="1"/>
        <pt x="271" y="21" on="0"/>
        <pt x="229" y="104" on="0"/>
        <pt x="174" y="211" on="0"/>
        <pt x="108" y="334" on="0"/>
        <pt x="41" y="458" on="0"/>
        <pt x="-25" y="575" on="0"/>
        <pt x="-82" y="668" on="0"/>
        <pt x="-126" y="730" on="0"/>
        <pt x="-138" y="737" on="1"/>
        <pt x="-83" y="737" on="0"/>
        <pt x="27" y="736" on="0"/>
        <pt x="83" y="737" on="1"/>
        <pt x="80" y="735" on="0"/>
        <pt x="79" y="728" on="0"/>
        <pt x="79" y="725" on="1"/>
        <pt x="79" y="704" on="0"/>
        <pt x="114" y="612" on="0"/>
        <pt x="170" y="494" on="0"/>
        <pt x="238" y="364" on="0"/>
        <pt x="302" y="245" on="0"/>
        <pt x="355" y="151" on="0"/>
        <pt x="369" y="128" on="1"/>
        <pt x="382" y="151" on="0"/>
        <pt x="436" y="245" on="0"/>
        <pt x="500" y="364" on="0"/>
        <pt x="568" y="494" on="0"/>
        <pt x="623" y="612" on="0"/>
        <pt x="659" y="704" on="0"/>
        <pt x="659" y="725" on="1"/>
        <pt x="659" y="728" on="0"/>
        <pt x="658" y="735" on="0"/>
        <pt x="655" y="737" on="1"/>
        <pt x="710" y="736" on="0"/>
        <pt x="819" y="737" on="0"/>
      </contour>
    </TTGlyph>
    <TTGlyph name="W" xMin="-128" yMin="0" xMax="1235" yMax="738">
      <contour>
        <pt x="1235" y="738" on="1"/>
        <pt x="1223" y="731" on="0"/>
        <pt x="1183" y="669" on="0"/>
        <pt x="1133" y="576" on="0"/>
        <pt x="1076" y="459" on="0"/>
        <pt x="1018" y="335" on="0"/>
        <pt x="962" y="211" on="0"/>
        <pt x="915" y="104" on="0"/>
        <pt x="880" y="21" on="0"/>
        <pt x="871" y="0" on="1"/>
        <pt x="697" y="0" on="1"/>
        <pt x="663" y="103" on="0"/>
        <pt x="592" y="305" on="0"/>
        <pt x="554" y="407" on="1"/>
        <pt x="514" y="306" on="0"/>
        <pt x="443" y="103" on="0"/>
        <pt x="410" y="0" on="1"/>
        <pt x="236" y="0" on="1"/>
        <pt x="227" y="21" on="0"/>
        <pt x="191" y="104" on="0"/>
        <pt x="144" y="211" on="0"/>
        <pt x="89" y="334" on="0"/>
        <pt x="31" y="458" on="0"/>
        <pt x="-26" y="575" on="0"/>
        <pt x="-76" y="668" on="0"/>
        <pt x="-116" y="730" on="0"/>
        <pt x="-128" y="737" on="1"/>
        <pt x="-73" y="737" on="0"/>
        <pt x="36" y="736" on="0"/>
        <pt x="91" y="737" on="1"/>
        <pt x="88" y="735" on="0"/>
        <pt x="87" y="726" on="0"/>
        <pt x="87" y="723" on="1"/>
        <pt x="87" y="701" on="0"/>
        <pt x="114" y="614" on="0"/>
        <pt x="157" y="505" on="0"/>
        <pt x="210" y="384" on="0"/>
        <pt x="261" y="274" on="0"/>
        <pt x="304" y="185" on="0"/>
        <pt x="316" y="162" on="1"/>
        <pt x="361" y="271" on="0"/>
        <pt x="444" y="491" on="0"/>
        <pt x="477" y="605" on="1"/>
        <pt x="472" y="616" on="0"/>
        <pt x="454" y="656" on="0"/>
        <pt x="433" y="696" on="0"/>
        <pt x="409" y="731" on="0"/>
        <pt x="398" y="738" on="1"/>
        <pt x="619" y="738" on="1"/>
        <pt x="614" y="734" on="0"/>
        <pt x="613" y="723" on="0"/>
        <pt x="613" y="718" on="1"/>
        <pt x="613" y="694" on="0"/>
        <pt x="634" y="608" on="0"/>
        <pt x="666" y="504" on="0"/>
        <pt x="707" y="390" on="0"/>
        <pt x="747" y="284" on="0"/>
        <pt x="781" y="196" on="0"/>
        <pt x="792" y="171" on="1"/>
        <pt x="803" y="194" on="0"/>
        <pt x="846" y="281" on="0"/>
        <pt x="896" y="390" on="0"/>
        <pt x="949" y="509" on="0"/>
        <pt x="992" y="616" on="0"/>
        <pt x="1020" y="702" on="0"/>
        <pt x="1020" y="723" on="1"/>
        <pt x="1020" y="727" on="0"/>
        <pt x="1019" y="736" on="0"/>
        <pt x="1015" y="738" on="1"/>
        <pt x="1125" y="736" on="0"/>
      </contour>
    </TTGlyph>
    <TTGlyph name="X" xMin="-51" yMin="0" xMax="879" yMax="737">
      <contour>
        <pt x="659" y="0" on="1"/>
        <pt x="636" y="23" on="0"/>
        <pt x="594" y="72" on="0"/>
        <pt x="572" y="96" on="1"/>
        <pt x="532" y="141" on="0"/>
        <pt x="454" y="228" on="0"/>
        <pt x="414" y="273" on="1"/>
        <pt x="374" y="228" on="0"/>
        <pt x="296" y="141" on="0"/>
        <pt x="256" y="96" on="1"/>
        <pt x="234" y="72" on="0"/>
        <pt x="192" y="23" on="0"/>
        <pt x="170" y="0" on="1"/>
        <pt x="-51" y="0" on="1"/>
        <pt x="-45" y="1" on="0"/>
        <pt x="-4" y="37" on="0"/>
        <pt x="51" y="90" on="0"/>
        <pt x="113" y="153" on="0"/>
        <pt x="168" y="210" on="0"/>
        <pt x="208" y="253" on="0"/>
        <pt x="215" y="260" on="1"/>
        <pt x="242" y="289" on="0"/>
        <pt x="295" y="348" on="0"/>
        <pt x="321" y="378" on="1"/>
        <pt x="311" y="389" on="0"/>
        <pt x="255" y="449" on="0"/>
        <pt x="181" y="528" on="0"/>
        <pt x="98" y="614" on="0"/>
        <pt x="24" y="686" on="0"/>
        <pt x="-32" y="735" on="0"/>
        <pt x="-42" y="737" on="1"/>
        <pt x="192" y="737" on="1"/>
        <pt x="211" y="720" on="0"/>
        <pt x="245" y="679" on="0"/>
        <pt x="262" y="659" on="1"/>
        <pt x="300" y="615" on="0"/>
        <pt x="376" y="529" on="0"/>
        <pt x="414" y="484" on="1"/>
        <pt x="452" y="529" on="0"/>
        <pt x="528" y="615" on="0"/>
        <pt x="566" y="659" on="1"/>
        <pt x="583" y="679" on="0"/>
        <pt x="617" y="720" on="0"/>
        <pt x="636" y="737" on="1"/>
        <pt x="870" y="737" on="1"/>
        <pt x="860" y="735" on="0"/>
        <pt x="804" y="686" on="0"/>
        <pt x="730" y="614" on="0"/>
        <pt x="647" y="528" on="0"/>
        <pt x="573" y="449" on="0"/>
        <pt x="517" y="389" on="0"/>
        <pt x="507" y="378" on="1"/>
        <pt x="533" y="348" on="0"/>
        <pt x="587" y="289" on="0"/>
        <pt x="614" y="260" on="1"/>
        <pt x="620" y="253" on="0"/>
        <pt x="661" y="210" on="0"/>
        <pt x="716" y="153" on="0"/>
        <pt x="778" y="90" on="0"/>
        <pt x="832" y="37" on="0"/>
        <pt x="873" y="1" on="0"/>
        <pt x="879" y="0" on="1"/>
      </contour>
    </TTGlyph>
    <TTGlyph name="Y" xMin="-179" yMin="0" xMax="833" yMax="737">
      <contour>
        <pt x="833" y="737" on="1"/>
        <pt x="815" y="727" on="0"/>
        <pt x="747" y="658" on="0"/>
        <pt x="663" y="562" on="0"/>
        <pt x="571" y="450" on="0"/>
        <pt x="487" y="345" on="0"/>
        <pt x="419" y="260" on="0"/>
        <pt x="402" y="238" on="1"/>
        <pt x="401" y="217" on="0"/>
        <pt x="401" y="175" on="0"/>
        <pt x="401" y="153" on="1"/>
        <pt x="401" y="144" on="0"/>
        <pt x="401" y="98" on="0"/>
        <pt x="404" y="49" on="0"/>
        <pt x="410" y="6" on="0"/>
        <pt x="417" y="0" on="1"/>
        <pt x="234" y="0" on="1"/>
        <pt x="239" y="5" on="0"/>
        <pt x="246" y="41" on="0"/>
        <pt x="250" y="90" on="0"/>
        <pt x="251" y="146" on="0"/>
        <pt x="252" y="196" on="0"/>
        <pt x="252" y="235" on="0"/>
        <pt x="252" y="243" on="1"/>
        <pt x="235" y="264" on="0"/>
        <pt x="167" y="349" on="0"/>
        <pt x="82" y="452" on="0"/>
        <pt x="-10" y="564" on="0"/>
        <pt x="-94" y="659" on="0"/>
        <pt x="-162" y="728" on="0"/>
        <pt x="-179" y="737" on="1"/>
        <pt x="-119" y="737" on="0"/>
        <pt x="-2" y="736" on="0"/>
        <pt x="58" y="737" on="1"/>
        <pt x="54" y="735" on="0"/>
        <pt x="54" y="728" on="1"/>
        <pt x="54" y="713" on="0"/>
        <pt x="88" y="655" on="0"/>
        <pt x="140" y="582" on="0"/>
        <pt x="204" y="502" on="0"/>
        <pt x="264" y="430" on="0"/>
        <pt x="314" y="374" on="0"/>
        <pt x="326" y="361" on="1"/>
        <pt x="331" y="361" on="1"/>
        <pt x="343" y="374" on="0"/>
        <pt x="392" y="430" on="0"/>
        <pt x="453" y="502" on="0"/>
        <pt x="516" y="582" on="0"/>
        <pt x="569" y="655" on="0"/>
        <pt x="602" y="713" on="0"/>
        <pt x="602" y="728" on="1"/>
        <pt x="602" y="734" on="0"/>
        <pt x="598" y="737" on="1"/>
        <pt x="657" y="736" on="0"/>
        <pt x="774" y="737" on="0"/>
      </contour>
    </TTGlyph>
    <TTGlyph name="Yacute" xMin="-179" yMin="0" xMax="833" yMax="955">
      <component glyphName="Y" x="0" y="0" flags="0x204"/>
      <component glyphName="acute" x="-40" y="164" flags="0x4"/>
    </TTGlyph>
    <TTGlyph name="Ydieresis" xMin="-179" yMin="0" xMax="833" yMax="907">
      <component glyphName="Y" x="0" y="0" flags="0x204"/>
      <component glyphName="dieresis" x="-132" y="164" flags="0x4"/>
    </TTGlyph>
    <TTGlyph name="Z" xMin="-20" yMin="-3" xMax="798" yMax="743">
      <contour>
        <pt x="231" y="98" on="1"/>
        <pt x="321" y="98" on="1"/>
        <pt x="424" y="97" on="0"/>
        <pt x="625" y="100" on="0"/>
        <pt x="728" y="102" on="1"/>
        <pt x="742" y="102" on="0"/>
        <pt x="771" y="103" on="0"/>
        <pt x="785" y="105" on="1"/>
        <pt x="788" y="2" on="1"/>
        <pt x="32" y="-3" on="1"/>
        <pt x="32" y="103" on="1"/>
        <pt x="52" y="117" on="0"/>
        <pt x="85" y="149" on="0"/>
        <pt x="102" y="165" on="1"/>
        <pt x="227" y="283" on="0"/>
        <pt x="466" y="523" on="0"/>
        <pt x="589" y="641" on="1"/>
        <pt x="517" y="642" on="1"/>
        <pt x="413" y="642" on="1"/>
        <pt x="319" y="642" on="0"/>
        <pt x="134" y="639" on="0"/>
        <pt x="40" y="637" on="1"/>
        <pt x="26" y="637" on="0"/>
        <pt x="-4" y="637" on="0"/>
        <pt x="-18" y="634" on="1"/>
        <pt x="-20" y="737" on="1"/>
        <pt x="798" y="743" on="1"/>
        <pt x="798" y="642" on="1"/>
      </contour>
    </TTGlyph>
    <TTGlyph name="Zcaron" xMin="-20" yMin="-3" xMax="798" yMax="949">
      <component glyphName="Z" x="0" y="0" flags="0x204"/>
      <component glyphName="caron" x="-50" y="184" flags="0x4"/>
    </TTGlyph>
    <TTGlyph name="a" xMin="20" yMin="-12" xMax="603" yMax="532">
      <contour>
        <pt x="418" y="-12" on="1"/>
        <pt x="435" y="-7" on="0"/>
        <pt x="443" y="28" on="0"/>
        <pt x="444" y="42" on="1"/>
        <pt x="399" y="28" on="0"/>
        <pt x="307" y="14" on="0"/>
        <pt x="261" y="14" on="1"/>
        <pt x="231" y="14" on="0"/>
        <pt x="148" y="24" on="0"/>
        <pt x="73" y="52" on="0"/>
        <pt x="20" y="102" on="0"/>
        <pt x="20" y="143" on="1"/>
        <pt x="20" y="178" on="0"/>
        <pt x="71" y="228" on="0"/>
        <pt x="151" y="261" on="0"/>
        <pt x="251" y="279" on="0"/>
        <pt x="347" y="289" on="0"/>
        <pt x="431" y="291" on="0"/>
        <pt x="455" y="292" on="1"/>
        <pt x="455" y="306" on="0"/>
        <pt x="456" y="332" on="0"/>
        <pt x="456" y="346" on="1"/>
        <pt x="456" y="371" on="0"/>
        <pt x="438" y="408" on="0"/>
        <pt x="407" y="432" on="0"/>
        <pt x="365" y="443" on="0"/>
        <pt x="342" y="443" on="1"/>
        <pt x="320" y="443" on="0"/>
        <pt x="269" y="431" on="0"/>
        <pt x="223" y="407" on="0"/>
        <pt x="189" y="370" on="0"/>
        <pt x="185" y="346" on="1"/>
        <pt x="59" y="363" on="1"/>
        <pt x="77" y="409" on="0"/>
        <pt x="141" y="473" on="0"/>
        <pt x="222" y="513" on="0"/>
        <pt x="314" y="532" on="0"/>
        <pt x="360" y="532" on="1"/>
        <pt x="404" y="532" on="0"/>
        <pt x="487" y="510" on="0"/>
        <pt x="552" y="465" on="0"/>
        <pt x="591" y="395" on="0"/>
        <pt x="591" y="347" on="1"/>
        <pt x="591" y="296" on="0"/>
        <pt x="588" y="195" on="0"/>
        <pt x="588" y="144" on="1"/>
        <pt x="588" y="135" on="0"/>
        <pt x="588" y="88" on="0"/>
        <pt x="591" y="37" on="0"/>
        <pt x="597" y="-6" on="0"/>
        <pt x="603" y="-12" on="1"/>
      </contour>
      <contour>
        <pt x="156" y="143" on="1"/>
        <pt x="156" y="128" on="0"/>
        <pt x="188" y="112" on="0"/>
        <pt x="231" y="103" on="0"/>
        <pt x="273" y="101" on="0"/>
        <pt x="282" y="101" on="1"/>
        <pt x="324" y="101" on="0"/>
        <pt x="410" y="113" on="0"/>
        <pt x="450" y="126" on="1"/>
        <pt x="451" y="144" on="0"/>
        <pt x="452" y="180" on="0"/>
        <pt x="452" y="197" on="1"/>
        <pt x="426" y="198" on="1"/>
        <pt x="417" y="198" on="0"/>
        <pt x="370" y="197" on="0"/>
        <pt x="310" y="194" on="0"/>
        <pt x="245" y="187" on="0"/>
        <pt x="191" y="175" on="0"/>
        <pt x="156" y="156" on="0"/>
      </contour>
    </TTGlyph>
    <TTGlyph name="aacute" xMin="20" yMin="-12" xMax="603" yMax="791">
      <component glyphName="a" x="0" y="0" flags="0x204"/>
      <component glyphName="acute" x="-50" y="0" flags="0x4"/>
    </TTGlyph>
    <TTGlyph name="acircumflex" xMin="20" yMin="-12" xMax="603" yMax="746">
      <component glyphName="a" x="0" y="0" flags="0x204"/>
      <component glyphName="circumflex" x="-132" y="-19" flags="0x4"/>
    </TTGlyph>
    <TTGlyph name="acute" xMin="305" yMin="594" xMax="616" yMax="791">
      <contour>
        <pt x="556" y="791" on="1"/>
        <pt x="616" y="697" on="1"/>
        <pt x="346" y="594" on="1"/>
        <pt x="305" y="655" on="1"/>
      </contour>
    </TTGlyph>
    <TTGlyph name="adieresis" xMin="20" yMin="-12" xMax="603" yMax="693">
      <component glyphName="a" x="0" y="0" flags="0x204"/>
      <component glyphName="dieresis" x="-101" y="-50" flags="0x4"/>
    </TTGlyph>
    <TTGlyph name="ae" xMin="20" yMin="-15" xMax="1046" yMax="532">
      <contour>
        <pt x="1046" y="37" on="1"/>
        <pt x="978" y="12" on="0"/>
        <pt x="855" y="-15" on="0"/>
        <pt x="782" y="-15" on="1"/>
        <pt x="733" y="-15" on="0"/>
        <pt x="634" y="8" on="0"/>
        <pt x="591" y="31" on="1"/>
        <pt x="591" y="24" on="0"/>
        <pt x="593" y="-5" on="0"/>
        <pt x="598" y="-12" on="1"/>
        <pt x="436" y="-12" on="1"/>
        <pt x="439" y="-9" on="0"/>
        <pt x="443" y="6" on="0"/>
        <pt x="446" y="24" on="0"/>
        <pt x="448" y="40" on="0"/>
        <pt x="448" y="44" on="1"/>
        <pt x="403" y="29" on="0"/>
        <pt x="308" y="14" on="0"/>
        <pt x="260" y="14" on="1"/>
        <pt x="231" y="14" on="0"/>
        <pt x="148" y="24" on="0"/>
        <pt x="73" y="52" on="0"/>
        <pt x="20" y="102" on="0"/>
        <pt x="20" y="142" on="1"/>
        <pt x="20" y="177" on="0"/>
        <pt x="72" y="226" on="0"/>
        <pt x="153" y="259" on="0"/>
        <pt x="254" y="277" on="0"/>
        <pt x="351" y="286" on="0"/>
        <pt x="434" y="289" on="0"/>
        <pt x="458" y="289" on="1"/>
        <pt x="459" y="303" on="0"/>
        <pt x="459" y="332" on="0"/>
        <pt x="459" y="347" on="1"/>
        <pt x="459" y="373" on="0"/>
        <pt x="440" y="411" on="0"/>
        <pt x="409" y="435" on="0"/>
        <pt x="367" y="447" on="0"/>
        <pt x="343" y="447" on="1"/>
        <pt x="321" y="447" on="0"/>
        <pt x="268" y="435" on="0"/>
        <pt x="221" y="411" on="0"/>
        <pt x="186" y="375" on="0"/>
        <pt x="182" y="350" on="1"/>
        <pt x="60" y="366" on="1"/>
        <pt x="78" y="411" on="0"/>
        <pt x="142" y="474" on="0"/>
        <pt x="223" y="514" on="0"/>
        <pt x="315" y="532" on="0"/>
        <pt x="360" y="532" on="1"/>
        <pt x="391" y="532" on="0"/>
        <pt x="454" y="522" on="0"/>
        <pt x="510" y="499" on="0"/>
        <pt x="556" y="459" on="0"/>
        <pt x="571" y="429" on="1"/>
        <pt x="622" y="472" on="0"/>
        <pt x="746" y="509" on="0"/>
        <pt x="811" y="509" on="1"/>
        <pt x="865" y="509" on="0"/>
        <pt x="949" y="474" on="0"/>
        <pt x="1005" y="411" on="0"/>
        <pt x="1034" y="325" on="0"/>
        <pt x="1034" y="273" on="1"/>
        <pt x="1034" y="224" on="0"/>
        <pt x="1019" y="179" on="1"/>
        <pt x="596" y="179" on="1"/>
        <pt x="606" y="147" on="0"/>
        <pt x="650" y="107" on="0"/>
        <pt x="706" y="84" on="0"/>
        <pt x="769" y="75" on="0"/>
        <pt x="798" y="75" on="1"/>
        <pt x="814" y="75" on="0"/>
        <pt x="872" y="80" on="0"/>
        <pt x="933" y="91" on="0"/>
        <pt x="987" y="108" on="0"/>
        <pt x="999" y="119" on="1"/>
      </contour>
      <contour>
        <pt x="782" y="420" on="1"/>
        <pt x="750" y="420" on="0"/>
        <pt x="690" y="395" on="0"/>
        <pt x="640" y="353" on="0"/>
        <pt x="603" y="298" on="0"/>
        <pt x="596" y="268" on="1"/>
        <pt x="890" y="268" on="1"/>
        <pt x="891" y="276" on="0"/>
        <pt x="892" y="293" on="0"/>
        <pt x="892" y="301" on="1"/>
        <pt x="892" y="360" on="0"/>
        <pt x="843" y="420" on="0"/>
      </contour>
      <contour>
        <pt x="152" y="142" on="1"/>
        <pt x="152" y="126" on="0"/>
        <pt x="185" y="108" on="0"/>
        <pt x="228" y="99" on="0"/>
        <pt x="271" y="97" on="0"/>
        <pt x="281" y="97" on="1"/>
        <pt x="323" y="97" on="0"/>
        <pt x="413" y="109" on="0"/>
        <pt x="453" y="122" on="1"/>
        <pt x="456" y="200" on="1"/>
        <pt x="426" y="200" on="1"/>
        <pt x="416" y="200" on="0"/>
        <pt x="368" y="199" on="0"/>
        <pt x="307" y="196" on="0"/>
        <pt x="242" y="189" on="0"/>
        <pt x="187" y="176" on="0"/>
        <pt x="152" y="156" on="0"/>
      </contour>
    </TTGlyph>
    <TTGlyph name="agrave" xMin="20" yMin="-12" xMax="603" yMax="791">
      <component glyphName="a" x="0" y="0" flags="0x204"/>
      <component glyphName="grave" x="-112" y="0" flags="0x4"/>
    </TTGlyph>
    <TTGlyph name="ampersand" xMin="0" yMin="68" xMax="607" yMax="692">
      <contour>
        <pt x="607" y="210" on="1"/>
        <pt x="601" y="210" on="0"/>
        <pt x="578" y="202" on="0"/>
        <pt x="552" y="192" on="0"/>
        <pt x="528" y="183" on="0"/>
        <pt x="522" y="181" on="1"/>
        <pt x="468" y="162" on="0"/>
        <pt x="407" y="151" on="1"/>
        <pt x="407" y="146" on="0"/>
        <pt x="408" y="121" on="0"/>
        <pt x="411" y="94" on="0"/>
        <pt x="416" y="71" on="0"/>
        <pt x="420" y="68" on="1"/>
        <pt x="242" y="68" on="1"/>
        <pt x="245" y="71" on="0"/>
        <pt x="250" y="91" on="0"/>
        <pt x="254" y="114" on="0"/>
        <pt x="257" y="135" on="0"/>
        <pt x="258" y="140" on="1"/>
        <pt x="240" y="140" on="0"/>
        <pt x="189" y="145" on="0"/>
        <pt x="131" y="155" on="0"/>
        <pt x="74" y="172" on="0"/>
        <pt x="29" y="198" on="0"/>
        <pt x="0" y="232" on="0"/>
        <pt x="0" y="254" on="1"/>
        <pt x="0" y="273" on="0"/>
        <pt x="27" y="303" on="0"/>
        <pt x="64" y="325" on="0"/>
        <pt x="105" y="339" on="0"/>
        <pt x="120" y="343" on="1"/>
        <pt x="110" y="349" on="0"/>
        <pt x="89" y="365" on="0"/>
        <pt x="71" y="386" on="0"/>
        <pt x="60" y="410" on="0"/>
        <pt x="60" y="423" on="1"/>
        <pt x="60" y="465" on="0"/>
        <pt x="102" y="527" on="0"/>
        <pt x="166" y="572" on="0"/>
        <pt x="242" y="600" on="0"/>
        <pt x="277" y="607" on="1"/>
        <pt x="277" y="613" on="0"/>
        <pt x="275" y="639" on="0"/>
        <pt x="272" y="667" on="0"/>
        <pt x="264" y="690" on="0"/>
        <pt x="258" y="692" on="1"/>
        <pt x="435" y="690" on="1"/>
        <pt x="430" y="690" on="0"/>
        <pt x="423" y="670" on="0"/>
        <pt x="417" y="645" on="0"/>
        <pt x="414" y="622" on="0"/>
        <pt x="414" y="618" on="1"/>
        <pt x="448" y="617" on="0"/>
        <pt x="516" y="605" on="0"/>
        <pt x="570" y="575" on="0"/>
        <pt x="603" y="523" on="0"/>
        <pt x="603" y="482" on="1"/>
        <pt x="603" y="461" on="0"/>
        <pt x="596" y="419" on="0"/>
        <pt x="591" y="399" on="1"/>
        <pt x="458" y="399" on="1"/>
        <pt x="471" y="431" on="0"/>
        <pt x="471" y="463" on="1"/>
        <pt x="471" y="504" on="0"/>
        <pt x="422" y="536" on="0"/>
        <pt x="384" y="536" on="1"/>
        <pt x="363" y="536" on="0"/>
        <pt x="298" y="527" on="0"/>
        <pt x="238" y="506" on="0"/>
        <pt x="194" y="468" on="0"/>
        <pt x="194" y="440" on="1"/>
        <pt x="194" y="413" on="0"/>
        <pt x="246" y="381" on="0"/>
        <pt x="315" y="365" on="0"/>
        <pt x="384" y="360" on="0"/>
        <pt x="402" y="360" on="1"/>
        <pt x="399" y="294" on="1"/>
        <pt x="391" y="294" on="0"/>
        <pt x="351" y="293" on="0"/>
        <pt x="298" y="290" on="0"/>
        <pt x="241" y="283" on="0"/>
        <pt x="194" y="272" on="0"/>
        <pt x="163" y="256" on="0"/>
        <pt x="163" y="245" on="1"/>
        <pt x="163" y="234" on="0"/>
        <pt x="198" y="222" on="0"/>
        <pt x="241" y="214" on="0"/>
        <pt x="282" y="212" on="0"/>
        <pt x="288" y="212" on="1"/>
        <pt x="351" y="212" on="0"/>
        <pt x="477" y="243" on="0"/>
        <pt x="530" y="277" on="1"/>
        <pt x="530" y="275" on="0"/>
        <pt x="553" y="254" on="0"/>
        <pt x="581" y="231" on="0"/>
        <pt x="605" y="211" on="0"/>
      </contour>
    </TTGlyph>
    <TTGlyph name="aring" xMin="20" yMin="-12" xMax="603" yMax="710">
      <contour>
        <pt x="156" y="143" on="1"/>
        <pt x="156" y="128" on="0"/>
        <pt x="188" y="112" on="0"/>
        <pt x="231" y="103" on="0"/>
        <pt x="273" y="101" on="0"/>
        <pt x="282" y="101" on="1"/>
        <pt x="324" y="101" on="0"/>
        <pt x="410" y="113" on="0"/>
        <pt x="450" y="126" on="1"/>
        <pt x="451" y="144" on="0"/>
        <pt x="452" y="180" on="0"/>
        <pt x="452" y="197" on="1"/>
        <pt x="426" y="198" on="1"/>
        <pt x="417" y="198" on="0"/>
        <pt x="370" y="197" on="0"/>
        <pt x="310" y="194" on="0"/>
        <pt x="245" y="187" on="0"/>
        <pt x="191" y="175" on="0"/>
        <pt x="156" y="156" on="0"/>
      </contour>
      <contour>
        <pt x="360" y="710" on="1"/>
        <pt x="381" y="710" on="0"/>
        <pt x="432" y="700" on="0"/>
        <pt x="477" y="677" on="0"/>
        <pt x="507" y="641" on="0"/>
        <pt x="507" y="615" on="1"/>
        <pt x="507" y="596" on="0"/>
        <pt x="488" y="567" on="0"/>
        <pt x="457" y="546" on="0"/>
        <pt x="419" y="533" on="0"/>
        <pt x="400" y="530" on="1"/>
        <pt x="438" y="526" on="0"/>
        <pt x="507" y="500" on="0"/>
        <pt x="560" y="455" on="0"/>
        <pt x="591" y="390" on="0"/>
        <pt x="591" y="347" on="1"/>
        <pt x="591" y="296" on="0"/>
        <pt x="588" y="195" on="0"/>
        <pt x="588" y="144" on="1"/>
        <pt x="588" y="135" on="0"/>
        <pt x="588" y="88" on="0"/>
        <pt x="591" y="37" on="0"/>
        <pt x="597" y="-6" on="0"/>
        <pt x="603" y="-12" on="1"/>
        <pt x="418" y="-12" on="1"/>
        <pt x="435" y="-7" on="0"/>
        <pt x="443" y="28" on="0"/>
        <pt x="444" y="42" on="1"/>
        <pt x="399" y="28" on="0"/>
        <pt x="307" y="14" on="0"/>
        <pt x="261" y="14" on="1"/>
        <pt x="231" y="14" on="0"/>
        <pt x="148" y="24" on="0"/>
        <pt x="73" y="52" on="0"/>
        <pt x="20" y="102" on="0"/>
        <pt x="20" y="143" on="1"/>
        <pt x="20" y="178" on="0"/>
        <pt x="71" y="228" on="0"/>
        <pt x="151" y="261" on="0"/>
        <pt x="251" y="279" on="0"/>
        <pt x="347" y="289" on="0"/>
        <pt x="431" y="291" on="0"/>
        <pt x="455" y="292" on="1"/>
        <pt x="455" y="306" on="0"/>
        <pt x="456" y="332" on="0"/>
        <pt x="456" y="346" on="1"/>
        <pt x="456" y="371" on="0"/>
        <pt x="438" y="408" on="0"/>
        <pt x="407" y="432" on="0"/>
        <pt x="365" y="443" on="0"/>
        <pt x="342" y="443" on="1"/>
        <pt x="320" y="443" on="0"/>
        <pt x="269" y="431" on="0"/>
        <pt x="223" y="407" on="0"/>
        <pt x="189" y="370" on="0"/>
        <pt x="185" y="346" on="1"/>
        <pt x="59" y="363" on="1"/>
        <pt x="75" y="403" on="0"/>
        <pt x="128" y="463" on="0"/>
        <pt x="196" y="503" on="0"/>
        <pt x="274" y="526" on="0"/>
        <pt x="315" y="530" on="1"/>
        <pt x="297" y="533" on="0"/>
        <pt x="260" y="546" on="0"/>
        <pt x="232" y="567" on="0"/>
        <pt x="214" y="597" on="0"/>
        <pt x="214" y="617" on="1"/>
        <pt x="214" y="643" on="0"/>
        <pt x="244" y="679" on="0"/>
        <pt x="289" y="701" on="0"/>
        <pt x="339" y="710" on="0"/>
      </contour>
      <contour>
        <pt x="297" y="618" on="1"/>
        <pt x="297" y="606" on="0"/>
        <pt x="309" y="590" on="0"/>
        <pt x="328" y="579" on="0"/>
        <pt x="350" y="575" on="0"/>
        <pt x="360" y="575" on="1"/>
        <pt x="369" y="575" on="0"/>
        <pt x="391" y="580" on="0"/>
        <pt x="411" y="590" on="0"/>
        <pt x="424" y="606" on="0"/>
        <pt x="424" y="617" on="1"/>
        <pt x="424" y="629" on="0"/>
        <pt x="411" y="645" on="0"/>
        <pt x="392" y="656" on="0"/>
        <pt x="370" y="661" on="0"/>
        <pt x="360" y="661" on="1"/>
        <pt x="350" y="661" on="0"/>
        <pt x="328" y="656" on="0"/>
        <pt x="309" y="646" on="0"/>
        <pt x="297" y="630" on="0"/>
      </contour>
    </TTGlyph>
    <TTGlyph name="asciicircum" xMin="10" yMin="341" xMax="570" yMax="737">
      <contour>
        <pt x="422" y="341" on="1"/>
        <pt x="421" y="348" on="0"/>
        <pt x="402" y="386" on="0"/>
        <pt x="375" y="436" on="0"/>
        <pt x="344" y="492" on="0"/>
        <pt x="315" y="544" on="0"/>
        <pt x="291" y="585" on="0"/>
        <pt x="286" y="594" on="1"/>
        <pt x="250" y="533" on="0"/>
        <pt x="195" y="406" on="0"/>
        <pt x="166" y="341" on="1"/>
        <pt x="10" y="341" on="1"/>
        <pt x="17" y="347" on="0"/>
        <pt x="56" y="407" on="0"/>
        <pt x="105" y="490" on="0"/>
        <pt x="159" y="585" on="0"/>
        <pt x="204" y="668" on="0"/>
        <pt x="233" y="728" on="0"/>
        <pt x="233" y="735" on="1"/>
        <pt x="233" y="737" on="0"/>
        <pt x="232" y="737" on="1"/>
        <pt x="350" y="737" on="1"/>
        <pt x="349" y="735" on="1"/>
        <pt x="349" y="726" on="0"/>
        <pt x="379" y="664" on="0"/>
        <pt x="423" y="579" on="0"/>
        <pt x="476" y="485" on="0"/>
        <pt x="525" y="403" on="0"/>
        <pt x="563" y="345" on="0"/>
        <pt x="570" y="341" on="1"/>
      </contour>
    </TTGlyph>
    <TTGlyph name="asciitilde" xMin="20" yMin="237" xMax="471" yMax="396">
      <contour>
        <pt x="471" y="396" on="1"/>
        <pt x="466" y="283" on="1"/>
        <pt x="436" y="269" on="0"/>
        <pt x="360" y="252" on="0"/>
        <pt x="326" y="252" on="1"/>
        <pt x="297" y="252" on="0"/>
        <pt x="251" y="267" on="0"/>
        <pt x="210" y="286" on="0"/>
        <pt x="170" y="301" on="0"/>
        <pt x="147" y="301" on="1"/>
        <pt x="131" y="301" on="0"/>
        <pt x="97" y="289" on="0"/>
        <pt x="63" y="271" on="0"/>
        <pt x="33" y="248" on="0"/>
        <pt x="22" y="237" on="1"/>
        <pt x="20" y="350" on="1"/>
        <pt x="46" y="371" on="0"/>
        <pt x="121" y="394" on="0"/>
        <pt x="154" y="394" on="1"/>
        <pt x="183" y="394" on="0"/>
        <pt x="232" y="379" on="0"/>
        <pt x="275" y="360" on="0"/>
        <pt x="312" y="345" on="0"/>
        <pt x="330" y="345" on="1"/>
        <pt x="346" y="345" on="0"/>
        <pt x="384" y="354" on="0"/>
        <pt x="422" y="369" on="0"/>
        <pt x="457" y="387" on="0"/>
      </contour>
    </TTGlyph>
    <TTGlyph name="asterisk" xMin="20" yMin="312" xMax="546" yMax="729">
      <contour>
        <pt x="543" y="463" on="1"/>
        <pt x="537" y="466" on="0"/>
        <pt x="488" y="472" on="0"/>
        <pt x="431" y="477" on="0"/>
        <pt x="380" y="480" on="0"/>
        <pt x="371" y="480" on="1"/>
        <pt x="376" y="473" on="0"/>
        <pt x="404" y="439" on="0"/>
        <pt x="437" y="402" on="0"/>
        <pt x="467" y="372" on="0"/>
        <pt x="473" y="369" on="1"/>
        <pt x="355" y="312" on="1"/>
        <pt x="354" y="319" on="0"/>
        <pt x="336" y="357" on="0"/>
        <pt x="313" y="399" on="0"/>
        <pt x="291" y="436" on="0"/>
        <pt x="286" y="444" on="1"/>
        <pt x="280" y="436" on="0"/>
        <pt x="257" y="399" on="0"/>
        <pt x="232" y="358" on="0"/>
        <pt x="212" y="320" on="0"/>
        <pt x="210" y="312" on="1"/>
        <pt x="101" y="360" on="1"/>
        <pt x="109" y="365" on="0"/>
        <pt x="140" y="397" on="0"/>
        <pt x="172" y="435" on="0"/>
        <pt x="201" y="471" on="0"/>
        <pt x="207" y="480" on="1"/>
        <pt x="175" y="480" on="0"/>
        <pt x="113" y="476" on="0"/>
        <pt x="81" y="473" on="1"/>
        <pt x="67" y="472" on="0"/>
        <pt x="37" y="470" on="0"/>
        <pt x="24" y="466" on="1"/>
        <pt x="20" y="566" on="1"/>
        <pt x="30" y="563" on="0"/>
        <pt x="82" y="558" on="0"/>
        <pt x="140" y="555" on="0"/>
        <pt x="193" y="553" on="0"/>
        <pt x="205" y="553" on="1"/>
        <pt x="212" y="553" on="1"/>
        <pt x="206" y="562" on="0"/>
        <pt x="176" y="601" on="0"/>
        <pt x="142" y="642" on="0"/>
        <pt x="110" y="676" on="0"/>
        <pt x="101" y="681" on="1"/>
        <pt x="210" y="729" on="1"/>
        <pt x="212" y="721" on="0"/>
        <pt x="232" y="683" on="0"/>
        <pt x="257" y="642" on="0"/>
        <pt x="280" y="605" on="0"/>
        <pt x="286" y="597" on="1"/>
        <pt x="291" y="604" on="0"/>
        <pt x="313" y="642" on="0"/>
        <pt x="336" y="684" on="0"/>
        <pt x="354" y="721" on="0"/>
        <pt x="355" y="729" on="1"/>
        <pt x="473" y="672" on="1"/>
        <pt x="466" y="669" on="0"/>
        <pt x="435" y="638" on="0"/>
        <pt x="402" y="599" on="0"/>
        <pt x="372" y="564" on="0"/>
        <pt x="367" y="557" on="1"/>
        <pt x="379" y="557" on="0"/>
        <pt x="430" y="560" on="0"/>
        <pt x="487" y="565" on="0"/>
        <pt x="537" y="571" on="0"/>
        <pt x="546" y="574" on="1"/>
      </contour>
    </TTGlyph>
    <TTGlyph name="at" xMin="15" yMin="18" xMax="976" yMax="721">
      <contour>
        <pt x="976" y="429" on="1"/>
        <pt x="976" y="369" on="0"/>
        <pt x="928" y="268" on="0"/>
        <pt x="847" y="196" on="0"/>
        <pt x="741" y="155" on="0"/>
        <pt x="683" y="155" on="1"/>
        <pt x="671" y="155" on="0"/>
        <pt x="636" y="159" on="0"/>
        <pt x="603" y="171" on="0"/>
        <pt x="580" y="192" on="0"/>
        <pt x="580" y="209" on="1"/>
        <pt x="580" y="211" on="0"/>
        <pt x="581" y="216" on="0"/>
        <pt x="581" y="218" on="1"/>
        <pt x="543" y="207" on="0"/>
        <pt x="463" y="197" on="0"/>
        <pt x="423" y="197" on="1"/>
        <pt x="403" y="197" on="0"/>
        <pt x="340" y="202" on="0"/>
        <pt x="278" y="220" on="0"/>
        <pt x="234" y="254" on="0"/>
        <pt x="234" y="282" on="1"/>
        <pt x="234" y="309" on="0"/>
        <pt x="279" y="347" on="0"/>
        <pt x="351" y="372" on="0"/>
        <pt x="438" y="386" on="0"/>
        <pt x="521" y="393" on="0"/>
        <pt x="591" y="394" on="0"/>
        <pt x="610" y="394" on="1"/>
        <pt x="612" y="407" on="0"/>
        <pt x="616" y="433" on="0"/>
        <pt x="616" y="445" on="1"/>
        <pt x="616" y="463" on="0"/>
        <pt x="600" y="488" on="0"/>
        <pt x="574" y="503" on="0"/>
        <pt x="542" y="509" on="0"/>
        <pt x="527" y="509" on="1"/>
        <pt x="510" y="509" on="0"/>
        <pt x="466" y="501" on="0"/>
        <pt x="424" y="484" on="0"/>
        <pt x="391" y="457" on="0"/>
        <pt x="385" y="438" on="1"/>
        <pt x="285" y="450" on="1"/>
        <pt x="304" y="483" on="0"/>
        <pt x="364" y="529" on="0"/>
        <pt x="436" y="558" on="0"/>
        <pt x="512" y="570" on="0"/>
        <pt x="548" y="570" on="1"/>
        <pt x="578" y="570" on="0"/>
        <pt x="641" y="559" on="0"/>
        <pt x="693" y="531" on="0"/>
        <pt x="726" y="484" on="0"/>
        <pt x="726" y="448" on="1"/>
        <pt x="726" y="446" on="0"/>
        <pt x="725" y="443" on="0"/>
        <pt x="725" y="441" on="1"/>
        <pt x="725" y="437" on="1"/>
        <pt x="720" y="400" on="0"/>
        <pt x="711" y="328" on="0"/>
        <pt x="706" y="292" on="1"/>
        <pt x="704" y="278" on="0"/>
        <pt x="700" y="249" on="0"/>
        <pt x="700" y="235" on="1"/>
        <pt x="700" y="227" on="0"/>
        <pt x="705" y="205" on="0"/>
        <pt x="716" y="205" on="1"/>
        <pt x="726" y="205" on="0"/>
        <pt x="745" y="214" on="0"/>
        <pt x="753" y="220" on="1"/>
        <pt x="773" y="235" on="0"/>
        <pt x="807" y="283" on="0"/>
        <pt x="831" y="339" on="0"/>
        <pt x="845" y="397" on="0"/>
        <pt x="845" y="423" on="1"/>
        <pt x="845" y="482" on="0"/>
        <pt x="791" y="565" on="0"/>
        <pt x="706" y="616" on="0"/>
        <pt x="601" y="639" on="0"/>
        <pt x="550" y="639" on="1"/>
        <pt x="484" y="639" on="0"/>
        <pt x="344" y="590" on="0"/>
        <pt x="228" y="501" on="0"/>
        <pt x="154" y="379" on="0"/>
        <pt x="154" y="307" on="1"/>
        <pt x="154" y="263" on="0"/>
        <pt x="191" y="199" on="0"/>
        <pt x="251" y="153" on="0"/>
        <pt x="330" y="123" on="0"/>
        <pt x="412" y="106" on="0"/>
        <pt x="493" y="100" on="0"/>
        <pt x="526" y="100" on="1"/>
        <pt x="579" y="100" on="0"/>
        <pt x="684" y="112" on="0"/>
        <pt x="735" y="126" on="1"/>
        <pt x="741" y="51" on="1"/>
        <pt x="707" y="41" on="0"/>
        <pt x="627" y="28" on="0"/>
        <pt x="544" y="21" on="0"/>
        <pt x="462" y="18" on="0"/>
        <pt x="426" y="18" on="1"/>
        <pt x="385" y="18" on="0"/>
        <pt x="292" y="31" on="0"/>
        <pt x="200" y="60" on="0"/>
        <pt x="117" y="104" on="0"/>
        <pt x="53" y="166" on="0"/>
        <pt x="15" y="246" on="0"/>
        <pt x="15" y="297" on="1"/>
        <pt x="15" y="363" on="0"/>
        <pt x="67" y="478" on="0"/>
        <pt x="156" y="572" on="0"/>
        <pt x="272" y="645" on="0"/>
        <pt x="399" y="695" on="0"/>
        <pt x="529" y="721" on="0"/>
        <pt x="587" y="721" on="1"/>
        <pt x="656" y="721" on="0"/>
        <pt x="794" y="689" on="0"/>
        <pt x="906" y="618" on="0"/>
        <pt x="976" y="507" on="0"/>
      </contour>
      <contour>
        <pt x="592" y="274" on="1"/>
        <pt x="594" y="288" on="0"/>
        <pt x="599" y="316" on="0"/>
        <pt x="601" y="330" on="1"/>
        <pt x="575" y="330" on="1"/>
        <pt x="568" y="330" on="0"/>
        <pt x="528" y="329" on="0"/>
        <pt x="477" y="327" on="0"/>
        <pt x="421" y="322" on="0"/>
        <pt x="374" y="312" on="0"/>
        <pt x="344" y="298" on="0"/>
        <pt x="344" y="288" on="1"/>
        <pt x="344" y="276" on="0"/>
        <pt x="370" y="263" on="0"/>
        <pt x="405" y="257" on="0"/>
        <pt x="439" y="256" on="0"/>
        <pt x="447" y="256" on="1"/>
        <pt x="483" y="256" on="0"/>
        <pt x="557" y="264" on="0"/>
      </contour>
    </TTGlyph>
    <TTGlyph name="atilde" xMin="20" yMin="-12" xMax="603" yMax="717">
      <component glyphName="a" x="0" y="0" flags="0x204"/>
      <component glyphName="tilde" x="-112" y="-40" flags="0x4"/>
    </TTGlyph>
    <TTGlyph name="b" xMin="36" yMin="0" xMax="703" yMax="738">
      <contour>
        <pt x="408" y="503" on="1"/>
        <pt x="462" y="503" on="0"/>
        <pt x="567" y="474" on="0"/>
        <pt x="651" y="416" on="0"/>
        <pt x="703" y="326" on="0"/>
        <pt x="703" y="266" on="1"/>
        <pt x="703" y="225" on="0"/>
        <pt x="669" y="154" on="0"/>
        <pt x="613" y="96" on="0"/>
        <pt x="544" y="52" on="0"/>
        <pt x="510" y="39" on="1"/>
        <pt x="439" y="12" on="0"/>
        <pt x="364" y="12" on="1"/>
        <pt x="322" y="12" on="0"/>
        <pt x="241" y="30" on="0"/>
        <pt x="204" y="51" on="1"/>
        <pt x="205" y="40" on="0"/>
        <pt x="207" y="11" on="0"/>
        <pt x="212" y="0" on="1"/>
        <pt x="36" y="0" on="1"/>
        <pt x="41" y="8" on="0"/>
        <pt x="50" y="86" on="0"/>
        <pt x="58" y="196" on="0"/>
        <pt x="64" y="324" on="0"/>
        <pt x="69" y="442" on="0"/>
        <pt x="71" y="536" on="0"/>
        <pt x="71" y="557" on="1"/>
        <pt x="71" y="568" on="0"/>
        <pt x="71" y="623" on="0"/>
        <pt x="67" y="683" on="0"/>
        <pt x="59" y="733" on="0"/>
        <pt x="52" y="738" on="1"/>
        <pt x="242" y="737" on="1"/>
        <pt x="235" y="734" on="0"/>
        <pt x="225" y="694" on="0"/>
        <pt x="217" y="635" on="0"/>
        <pt x="212" y="565" on="0"/>
        <pt x="208" y="502" on="0"/>
        <pt x="206" y="452" on="0"/>
        <pt x="206" y="442" on="1"/>
        <pt x="250" y="472" on="0"/>
        <pt x="354" y="503" on="0"/>
      </contour>
      <contour>
        <pt x="363" y="112" on="1"/>
        <pt x="398" y="112" on="0"/>
        <pt x="467" y="132" on="0"/>
        <pt x="523" y="172" on="0"/>
        <pt x="557" y="231" on="0"/>
        <pt x="557" y="270" on="1"/>
        <pt x="557" y="306" on="0"/>
        <pt x="526" y="359" on="0"/>
        <pt x="476" y="394" on="0"/>
        <pt x="413" y="410" on="0"/>
        <pt x="381" y="410" on="1"/>
        <pt x="352" y="410" on="0"/>
        <pt x="290" y="392" on="0"/>
        <pt x="237" y="358" on="0"/>
        <pt x="203" y="308" on="0"/>
        <pt x="202" y="275" on="1"/>
        <pt x="202" y="236" on="1"/>
        <pt x="202" y="204" on="0"/>
        <pt x="231" y="157" on="0"/>
        <pt x="278" y="127" on="0"/>
        <pt x="335" y="112" on="0"/>
      </contour>
    </TTGlyph>
    <TTGlyph name="backslash" xMin="0" yMin="0" xMax="541" yMax="737">
      <contour>
        <pt x="541" y="0" on="1"/>
        <pt x="393" y="0" on="1"/>
        <pt x="394" y="1" on="0"/>
        <pt x="394" y="5" on="1"/>
        <pt x="394" y="12" on="0"/>
        <pt x="380" y="49" on="0"/>
        <pt x="358" y="97" on="0"/>
        <pt x="332" y="151" on="0"/>
        <pt x="307" y="199" on="0"/>
        <pt x="287" y="238" on="0"/>
        <pt x="283" y="247" on="1"/>
        <pt x="272" y="270" on="0"/>
        <pt x="250" y="316" on="0"/>
        <pt x="239" y="340" on="1"/>
        <pt x="232" y="354" on="0"/>
        <pt x="200" y="424" on="0"/>
        <pt x="157" y="512" on="0"/>
        <pt x="106" y="607" on="0"/>
        <pt x="58" y="685" on="0"/>
        <pt x="14" y="736" on="0"/>
        <pt x="0" y="737" on="1"/>
        <pt x="197" y="737" on="1"/>
        <pt x="192" y="736" on="0"/>
        <pt x="190" y="728" on="0"/>
        <pt x="190" y="723" on="1"/>
        <pt x="190" y="712" on="0"/>
        <pt x="203" y="673" on="0"/>
        <pt x="223" y="623" on="0"/>
        <pt x="248" y="569" on="0"/>
        <pt x="271" y="519" on="0"/>
        <pt x="291" y="479" on="0"/>
        <pt x="296" y="468" on="1"/>
        <pt x="312" y="435" on="0"/>
        <pt x="342" y="369" on="0"/>
        <pt x="357" y="336" on="1"/>
        <pt x="363" y="322" on="0"/>
        <pt x="389" y="267" on="0"/>
        <pt x="422" y="197" on="0"/>
        <pt x="460" y="122" on="0"/>
        <pt x="497" y="56" on="0"/>
        <pt x="529" y="8" on="0"/>
      </contour>
    </TTGlyph>
    <TTGlyph name="bar" xMin="31" yMin="0" xMax="228" yMax="737">
      <contour>
        <pt x="52" y="5" on="0"/>
        <pt x="59" y="51" on="0"/>
        <pt x="64" y="114" on="0"/>
        <pt x="66" y="187" on="0"/>
        <pt x="67" y="254" on="0"/>
        <pt x="67" y="306" on="0"/>
        <pt x="67" y="316" on="1"/>
        <pt x="67" y="352" on="0"/>
        <pt x="66" y="423" on="0"/>
        <pt x="66" y="459" on="1"/>
        <pt x="66" y="469" on="0"/>
        <pt x="67" y="517" on="0"/>
        <pt x="66" y="577" on="0"/>
        <pt x="62" y="642" on="0"/>
        <pt x="54" y="697" on="0"/>
        <pt x="41" y="734" on="0"/>
        <pt x="31" y="737" on="1"/>
        <pt x="228" y="737" on="1"/>
        <pt x="216" y="737" on="0"/>
        <pt x="200" y="697" on="0"/>
        <pt x="190" y="634" on="0"/>
        <pt x="184" y="559" on="0"/>
        <pt x="182" y="490" on="0"/>
        <pt x="182" y="435" on="0"/>
        <pt x="182" y="425" on="1"/>
        <pt x="182" y="352" on="0"/>
        <pt x="180" y="207" on="0"/>
        <pt x="180" y="134" on="1"/>
        <pt x="180" y="125" on="0"/>
        <pt x="180" y="85" on="0"/>
        <pt x="183" y="42" on="0"/>
        <pt x="189" y="5" on="0"/>
        <pt x="195" y="0" on="1"/>
        <pt x="47" y="0" on="1"/>
      </contour>
    </TTGlyph>
    <TTGlyph name="braceleft" xMin="10" yMin="-120" xMax="446" yMax="858">
      <contour>
        <pt x="295" y="-13" on="1"/>
        <pt x="305" y="-13" on="0"/>
        <pt x="350" y="-11" on="0"/>
        <pt x="398" y="-8" on="0"/>
        <pt x="440" y="-2" on="0"/>
        <pt x="446" y="3" on="1"/>
        <pt x="444" y="-120" on="1"/>
        <pt x="439" y="-116" on="0"/>
        <pt x="382" y="-111" on="0"/>
        <pt x="312" y="-108" on="0"/>
        <pt x="248" y="-108" on="0"/>
        <pt x="237" y="-108" on="1"/>
        <pt x="193" y="-108" on="0"/>
        <pt x="147" y="-48" on="0"/>
        <pt x="147" y="-7" on="1"/>
        <pt x="147" y="55" on="0"/>
        <pt x="151" y="176" on="0"/>
        <pt x="151" y="238" on="1"/>
        <pt x="143" y="243" on="0"/>
        <pt x="102" y="271" on="0"/>
        <pt x="56" y="301" on="0"/>
        <pt x="16" y="325" on="0"/>
        <pt x="11" y="325" on="1"/>
        <pt x="10" y="325" on="1"/>
        <pt x="10" y="415" on="1"/>
        <pt x="14" y="414" on="0"/>
        <pt x="55" y="437" on="0"/>
        <pt x="103" y="467" on="0"/>
        <pt x="145" y="495" on="0"/>
        <pt x="152" y="499" on="1"/>
        <pt x="151" y="553" on="0"/>
        <pt x="150" y="661" on="0"/>
        <pt x="147" y="715" on="1"/>
        <pt x="147" y="731" on="1"/>
        <pt x="147" y="754" on="0"/>
        <pt x="156" y="794" on="0"/>
        <pt x="178" y="824" on="0"/>
        <pt x="213" y="841" on="0"/>
        <pt x="239" y="841" on="1"/>
        <pt x="260" y="841" on="0"/>
        <pt x="315" y="842" on="0"/>
        <pt x="373" y="845" on="0"/>
        <pt x="427" y="852" on="0"/>
        <pt x="446" y="858" on="1"/>
        <pt x="444" y="735" on="1"/>
        <pt x="439" y="739" on="0"/>
        <pt x="404" y="744" on="0"/>
        <pt x="361" y="747" on="0"/>
        <pt x="321" y="747" on="0"/>
        <pt x="312" y="747" on="1"/>
        <pt x="292" y="747" on="0"/>
        <pt x="280" y="732" on="0"/>
        <pt x="277" y="713" on="1"/>
        <pt x="273" y="692" on="0"/>
        <pt x="273" y="650" on="0"/>
        <pt x="272" y="630" on="1"/>
        <pt x="270" y="587" on="0"/>
        <pt x="267" y="502" on="0"/>
        <pt x="265" y="460" on="1"/>
        <pt x="258" y="458" on="0"/>
        <pt x="221" y="435" on="0"/>
        <pt x="177" y="407" on="0"/>
        <pt x="138" y="381" on="0"/>
        <pt x="129" y="375" on="1"/>
        <pt x="161" y="352" on="0"/>
        <pt x="230" y="318" on="0"/>
        <pt x="265" y="300" on="1"/>
        <pt x="265" y="240" on="0"/>
        <pt x="265" y="120" on="0"/>
        <pt x="266" y="60" on="1"/>
        <pt x="266" y="50" on="0"/>
        <pt x="264" y="27" on="0"/>
        <pt x="266" y="18" on="1"/>
        <pt x="268" y="9" on="0"/>
        <pt x="285" y="-13" on="0"/>
      </contour>
    </TTGlyph>
    <TTGlyph name="braceright" xMin="10" yMin="-120" xMax="446" yMax="858">
      <contour>
        <pt x="161" y="-13" on="1"/>
        <pt x="172" y="-13" on="0"/>
        <pt x="188" y="9" on="0"/>
        <pt x="190" y="18" on="1"/>
        <pt x="190" y="19" on="0"/>
        <pt x="190" y="31" on="0"/>
        <pt x="190" y="46" on="0"/>
        <pt x="191" y="58" on="0"/>
        <pt x="191" y="60" on="1"/>
        <pt x="191" y="221" on="1"/>
        <pt x="191" y="300" on="1"/>
        <pt x="226" y="318" on="0"/>
        <pt x="295" y="352" on="0"/>
        <pt x="328" y="375" on="1"/>
        <pt x="321" y="379" on="0"/>
        <pt x="280" y="406" on="0"/>
        <pt x="234" y="435" on="0"/>
        <pt x="195" y="459" on="0"/>
        <pt x="191" y="460" on="1"/>
        <pt x="189" y="502" on="0"/>
        <pt x="186" y="587" on="0"/>
        <pt x="184" y="630" on="1"/>
        <pt x="183" y="650" on="0"/>
        <pt x="182" y="692" on="0"/>
        <pt x="180" y="713" on="1"/>
        <pt x="178" y="728" on="0"/>
        <pt x="169" y="742" on="0"/>
        <pt x="155" y="747" on="0"/>
        <pt x="136" y="746" on="0"/>
        <pt x="124" y="746" on="1"/>
        <pt x="118" y="746" on="0"/>
        <pt x="84" y="746" on="0"/>
        <pt x="47" y="744" on="0"/>
        <pt x="15" y="739" on="0"/>
        <pt x="12" y="735" on="1"/>
        <pt x="10" y="858" on="1"/>
        <pt x="28" y="852" on="0"/>
        <pt x="84" y="845" on="0"/>
        <pt x="144" y="842" on="0"/>
        <pt x="201" y="841" on="0"/>
        <pt x="221" y="841" on="1"/>
        <pt x="246" y="841" on="0"/>
        <pt x="279" y="823" on="0"/>
        <pt x="300" y="793" on="0"/>
        <pt x="309" y="753" on="0"/>
        <pt x="309" y="731" on="1"/>
        <pt x="309" y="715" on="1"/>
        <pt x="306" y="661" on="0"/>
        <pt x="305" y="553" on="0"/>
        <pt x="305" y="499" on="1"/>
        <pt x="332" y="482" on="0"/>
        <pt x="386" y="446" on="0"/>
        <pt x="415" y="429" on="1"/>
        <pt x="416" y="428" on="0"/>
        <pt x="425" y="423" on="0"/>
        <pt x="436" y="417" on="0"/>
        <pt x="445" y="414" on="0"/>
        <pt x="446" y="415" on="1"/>
        <pt x="446" y="325" on="1"/>
        <pt x="445" y="325" on="1"/>
        <pt x="440" y="325" on="0"/>
        <pt x="400" y="301" on="0"/>
        <pt x="353" y="270" on="0"/>
        <pt x="311" y="242" on="0"/>
        <pt x="305" y="238" on="1"/>
        <pt x="305" y="179" on="0"/>
        <pt x="307" y="63" on="0"/>
        <pt x="309" y="3" on="1"/>
        <pt x="309" y="-4" on="1"/>
        <pt x="310" y="-46" on="0"/>
        <pt x="265" y="-108" on="0"/>
        <pt x="219" y="-108" on="1"/>
        <pt x="213" y="-108" on="0"/>
        <pt x="180" y="-108" on="0"/>
        <pt x="136" y="-109" on="0"/>
        <pt x="86" y="-110" on="0"/>
        <pt x="44" y="-113" on="0"/>
        <pt x="14" y="-117" on="0"/>
        <pt x="12" y="-120" on="1"/>
        <pt x="10" y="3" on="1"/>
        <pt x="16" y="-2" on="0"/>
        <pt x="59" y="-8" on="0"/>
        <pt x="108" y="-11" on="0"/>
        <pt x="153" y="-13" on="0"/>
      </contour>
    </TTGlyph>
    <TTGlyph name="bracketleft" xMin="31" yMin="-118" xMax="360" yMax="859">
      <contour>
        <pt x="31" y="844" on="1"/>
        <pt x="57" y="843" on="0"/>
        <pt x="110" y="842" on="0"/>
        <pt x="136" y="842" on="1"/>
        <pt x="154" y="842" on="0"/>
        <pt x="215" y="843" on="0"/>
        <pt x="282" y="847" on="0"/>
        <pt x="343" y="853" on="0"/>
        <pt x="360" y="859" on="1"/>
        <pt x="359" y="737" on="1"/>
        <pt x="355" y="741" on="0"/>
        <pt x="322" y="746" on="0"/>
        <pt x="284" y="748" on="0"/>
        <pt x="250" y="748" on="0"/>
        <pt x="244" y="748" on="1"/>
        <pt x="231" y="748" on="0"/>
        <pt x="207" y="747" on="0"/>
        <pt x="194" y="747" on="1"/>
        <pt x="183" y="659" on="0"/>
        <pt x="182" y="480" on="0"/>
        <pt x="182" y="391" on="1"/>
        <pt x="182" y="315" on="0"/>
        <pt x="180" y="163" on="0"/>
        <pt x="180" y="87" on="1"/>
        <pt x="180" y="62" on="0"/>
        <pt x="180" y="13" on="0"/>
        <pt x="181" y="-12" on="1"/>
        <pt x="196" y="-12" on="1"/>
        <pt x="205" y="-12" on="0"/>
        <pt x="254" y="-10" on="0"/>
        <pt x="308" y="-7" on="0"/>
        <pt x="354" y="-1" on="0"/>
        <pt x="360" y="4" on="1"/>
        <pt x="359" y="-118" on="1"/>
        <pt x="357" y="-115" on="0"/>
        <pt x="322" y="-111" on="0"/>
        <pt x="272" y="-109" on="0"/>
        <pt x="214" y="-107" on="0"/>
        <pt x="163" y="-106" on="0"/>
        <pt x="126" y="-106" on="0"/>
        <pt x="122" y="-106" on="1"/>
        <pt x="103" y="-106" on="0"/>
        <pt x="66" y="-106" on="0"/>
        <pt x="47" y="-107" on="1"/>
        <pt x="53" y="-99" on="0"/>
        <pt x="61" y="-16" on="0"/>
        <pt x="66" y="102" on="0"/>
        <pt x="67" y="240" on="0"/>
        <pt x="67" y="366" on="0"/>
        <pt x="66" y="465" on="0"/>
        <pt x="66" y="485" on="1"/>
        <pt x="66" y="495" on="0"/>
        <pt x="67" y="554" on="0"/>
        <pt x="66" y="632" on="0"/>
        <pt x="63" y="717" on="0"/>
        <pt x="55" y="790" on="0"/>
        <pt x="41" y="840" on="0"/>
      </contour>
    </TTGlyph>
    <TTGlyph name="bracketright" xMin="10" yMin="-118" xMax="340" yMax="859">
      <contour>
        <pt x="340" y="844" on="1"/>
        <pt x="329" y="840" on="0"/>
        <pt x="316" y="790" on="0"/>
        <pt x="308" y="717" on="0"/>
        <pt x="305" y="632" on="0"/>
        <pt x="304" y="554" on="0"/>
        <pt x="305" y="495" on="0"/>
        <pt x="305" y="485" on="1"/>
        <pt x="305" y="465" on="0"/>
        <pt x="304" y="366" on="0"/>
        <pt x="304" y="240" on="0"/>
        <pt x="305" y="102" on="0"/>
        <pt x="310" y="-16" on="0"/>
        <pt x="317" y="-99" on="0"/>
        <pt x="324" y="-107" on="1"/>
        <pt x="305" y="-106" on="0"/>
        <pt x="268" y="-106" on="0"/>
        <pt x="249" y="-106" on="1"/>
        <pt x="245" y="-106" on="0"/>
        <pt x="208" y="-106" on="0"/>
        <pt x="157" y="-107" on="0"/>
        <pt x="99" y="-109" on="0"/>
        <pt x="49" y="-111" on="0"/>
        <pt x="14" y="-115" on="0"/>
        <pt x="12" y="-118" on="1"/>
        <pt x="10" y="4" on="1"/>
        <pt x="17" y="-1" on="0"/>
        <pt x="63" y="-7" on="0"/>
        <pt x="117" y="-10" on="0"/>
        <pt x="166" y="-12" on="0"/>
        <pt x="175" y="-12" on="1"/>
        <pt x="189" y="-12" on="1"/>
        <pt x="190" y="13" on="0"/>
        <pt x="191" y="62" on="0"/>
        <pt x="191" y="87" on="1"/>
        <pt x="191" y="163" on="0"/>
        <pt x="189" y="315" on="0"/>
        <pt x="189" y="391" on="1"/>
        <pt x="189" y="480" on="0"/>
        <pt x="187" y="659" on="0"/>
        <pt x="177" y="747" on="1"/>
        <pt x="164" y="747" on="0"/>
        <pt x="139" y="748" on="0"/>
        <pt x="127" y="748" on="1"/>
        <pt x="121" y="748" on="0"/>
        <pt x="86" y="748" on="0"/>
        <pt x="48" y="746" on="0"/>
        <pt x="16" y="741" on="0"/>
        <pt x="12" y="737" on="1"/>
        <pt x="10" y="859" on="1"/>
        <pt x="27" y="853" on="0"/>
        <pt x="88" y="847" on="0"/>
        <pt x="155" y="843" on="0"/>
        <pt x="216" y="842" on="0"/>
        <pt x="234" y="842" on="1"/>
        <pt x="261" y="842" on="0"/>
        <pt x="314" y="843" on="0"/>
      </contour>
    </TTGlyph>
    <TTGlyph name="breve" xMin="275" yMin="623" xMax="647" yMax="762">
      <contour>
        <pt x="643" y="760" on="0"/>
        <pt x="631" y="738" on="0"/>
        <pt x="629" y="734" on="1"/>
        <pt x="600" y="685" on="0"/>
        <pt x="521" y="623" on="0"/>
        <pt x="461" y="623" on="1"/>
        <pt x="411" y="623" on="0"/>
        <pt x="345" y="664" on="0"/>
        <pt x="303" y="715" on="0"/>
        <pt x="281" y="759" on="0"/>
        <pt x="275" y="762" on="1"/>
        <pt x="385" y="762" on="1"/>
        <pt x="388" y="750" on="0"/>
        <pt x="403" y="724" on="0"/>
        <pt x="424" y="702" on="0"/>
        <pt x="449" y="688" on="0"/>
        <pt x="463" y="688" on="1"/>
        <pt x="487" y="688" on="0"/>
        <pt x="515" y="720" on="0"/>
        <pt x="523" y="740" on="1"/>
        <pt x="525" y="745" on="0"/>
        <pt x="529" y="757" on="0"/>
        <pt x="532" y="762" on="1"/>
        <pt x="647" y="762" on="1"/>
      </contour>
    </TTGlyph>
    <TTGlyph name="brokenbar" xMin="31" yMin="0" xMax="188" yMax="737">
      <contour>
        <pt x="50" y="428" on="1"/>
        <pt x="52" y="455" on="0"/>
        <pt x="54" y="510" on="0"/>
        <pt x="54" y="537" on="1"/>
        <pt x="54" y="550" on="0"/>
        <pt x="53" y="608" on="0"/>
        <pt x="49" y="671" on="0"/>
        <pt x="42" y="726" on="0"/>
        <pt x="36" y="737" on="1"/>
        <pt x="188" y="734" on="1"/>
        <pt x="181" y="726" on="0"/>
        <pt x="172" y="669" on="0"/>
        <pt x="168" y="603" on="0"/>
        <pt x="166" y="544" on="0"/>
        <pt x="166" y="532" on="1"/>
        <pt x="166" y="506" on="0"/>
        <pt x="168" y="456" on="0"/>
        <pt x="170" y="430" on="1"/>
      </contour>
      <contour>
        <pt x="31" y="0" on="1"/>
        <pt x="38" y="12" on="0"/>
        <pt x="46" y="62" on="0"/>
        <pt x="49" y="118" on="0"/>
        <pt x="50" y="170" on="0"/>
        <pt x="50" y="184" on="1"/>
        <pt x="50" y="248" on="0"/>
        <pt x="47" y="313" on="1"/>
        <pt x="169" y="315" on="1"/>
        <pt x="166" y="256" on="0"/>
        <pt x="166" y="199" on="1"/>
        <pt x="166" y="184" on="0"/>
        <pt x="167" y="129" on="0"/>
        <pt x="171" y="70" on="0"/>
        <pt x="179" y="17" on="0"/>
        <pt x="185" y="3" on="1"/>
      </contour>
    </TTGlyph>
    <TTGlyph name="bullet" xMin="31" yMin="248" xMax="341" yMax="438">
      <contour>
        <pt x="341" y="343" on="1"/>
        <pt x="341" y="317" on="0"/>
        <pt x="308" y="281" on="0"/>
        <pt x="260" y="258" on="0"/>
        <pt x="206" y="248" on="0"/>
        <pt x="186" y="248" on="1"/>
        <pt x="166" y="248" on="0"/>
        <pt x="112" y="258" on="0"/>
        <pt x="64" y="281" on="0"/>
        <pt x="31" y="317" on="0"/>
        <pt x="31" y="343" on="1"/>
        <pt x="31" y="369" on="0"/>
        <pt x="64" y="405" on="0"/>
        <pt x="112" y="428" on="0"/>
        <pt x="166" y="438" on="0"/>
        <pt x="186" y="438" on="1"/>
        <pt x="206" y="438" on="0"/>
        <pt x="260" y="428" on="0"/>
        <pt x="308" y="405" on="0"/>
        <pt x="341" y="369" on="0"/>
      </contour>
    </TTGlyph>
    <TTGlyph name="c" xMin="31" yMin="12" xMax="615" yMax="506">
      <contour>
        <pt x="459" y="297" on="0"/>
        <pt x="485" y="335" on="0"/>
        <pt x="485" y="354" on="1"/>
        <pt x="485" y="372" on="0"/>
        <pt x="459" y="395" on="0"/>
        <pt x="423" y="407" on="0"/>
        <pt x="384" y="412" on="0"/>
        <pt x="371" y="412" on="1"/>
        <pt x="330" y="412" on="0"/>
        <pt x="258" y="383" on="0"/>
        <pt x="204" y="332" on="0"/>
        <pt x="173" y="262" on="0"/>
        <pt x="173" y="220" on="1"/>
        <pt x="173" y="181" on="0"/>
        <pt x="206" y="135" on="0"/>
        <pt x="257" y="112" on="0"/>
        <pt x="321" y="106" on="0"/>
        <pt x="353" y="106" on="1"/>
        <pt x="402" y="106" on="0"/>
        <pt x="508" y="122" on="0"/>
        <pt x="555" y="136" on="1"/>
        <pt x="582" y="47" on="1"/>
        <pt x="534" y="29" on="0"/>
        <pt x="416" y="12" on="0"/>
        <pt x="364" y="12" on="1"/>
        <pt x="333" y="12" on="0"/>
        <pt x="260" y="19" on="0"/>
        <pt x="186" y="36" on="0"/>
        <pt x="117" y="64" on="0"/>
        <pt x="63" y="108" on="0"/>
        <pt x="31" y="169" on="0"/>
        <pt x="31" y="209" on="1"/>
        <pt x="31" y="282" on="0"/>
        <pt x="102" y="393" on="0"/>
        <pt x="213" y="468" on="0"/>
        <pt x="348" y="506" on="0"/>
        <pt x="413" y="506" on="1"/>
        <pt x="449" y="506" on="0"/>
        <pt x="521" y="495" on="0"/>
        <pt x="579" y="465" on="0"/>
        <pt x="615" y="411" on="0"/>
        <pt x="615" y="368" on="1"/>
        <pt x="615" y="346" on="0"/>
        <pt x="607" y="304" on="0"/>
        <pt x="601" y="283" on="1"/>
        <pt x="446" y="283" on="1"/>
      </contour>
    </TTGlyph>
    <TTGlyph name="caron" xMin="256" yMin="619" xMax="665" yMax="765">
      <contour>
        <pt x="378" y="765" on="1"/>
        <pt x="379" y="762" on="0"/>
        <pt x="403" y="735" on="0"/>
        <pt x="432" y="704" on="0"/>
        <pt x="459" y="676" on="0"/>
        <pt x="463" y="672" on="1"/>
        <pt x="485" y="694" on="0"/>
        <pt x="521" y="741" on="0"/>
        <pt x="539" y="765" on="1"/>
        <pt x="665" y="765" on="1"/>
        <pt x="658" y="761" on="0"/>
        <pt x="626" y="733" on="0"/>
        <pt x="591" y="699" on="0"/>
        <pt x="559" y="667" on="0"/>
        <pt x="552" y="660" on="1"/>
        <pt x="550" y="658" on="0"/>
        <pt x="539" y="646" on="0"/>
        <pt x="527" y="633" on="0"/>
        <pt x="517" y="620" on="0"/>
        <pt x="518" y="619" on="1"/>
        <pt x="403" y="619" on="1"/>
        <pt x="404" y="621" on="0"/>
        <pt x="398" y="628" on="0"/>
        <pt x="397" y="629" on="1"/>
        <pt x="391" y="637" on="0"/>
        <pt x="351" y="680" on="0"/>
        <pt x="305" y="725" on="0"/>
        <pt x="263" y="762" on="0"/>
        <pt x="256" y="765" on="1"/>
      </contour>
    </TTGlyph>
    <TTGlyph name="ccedilla" xMin="31" yMin="-211" xMax="615" yMax="506">
      <contour>
        <pt x="272" y="19" on="1"/>
        <pt x="295" y="15" on="0"/>
        <pt x="338" y="13" on="0"/>
        <pt x="358" y="12" on="1"/>
        <pt x="361" y="25" on="1"/>
        <pt x="272" y="26" on="1"/>
      </contour>
      <contour>
        <pt x="313" y="-211" on="1"/>
        <pt x="284" y="-211" on="0"/>
        <pt x="234" y="-201" on="0"/>
        <pt x="195" y="-177" on="0"/>
        <pt x="171" y="-136" on="0"/>
        <pt x="169" y="-104" on="1"/>
        <pt x="244" y="-101" on="1"/>
        <pt x="244" y="-112" on="1"/>
        <pt x="244" y="-138" on="0"/>
        <pt x="285" y="-161" on="0"/>
        <pt x="308" y="-161" on="1"/>
        <pt x="316" y="-161" on="0"/>
        <pt x="342" y="-158" on="0"/>
        <pt x="366" y="-149" on="0"/>
        <pt x="383" y="-134" on="0"/>
        <pt x="383" y="-122" on="1"/>
        <pt x="383" y="-109" on="0"/>
        <pt x="360" y="-95" on="0"/>
        <pt x="328" y="-89" on="0"/>
        <pt x="297" y="-88" on="0"/>
        <pt x="288" y="-87" on="1"/>
        <pt x="275" y="-87" on="1"/>
        <pt x="272" y="19" on="1"/>
        <pt x="229" y="25" on="0"/>
        <pt x="143" y="50" on="0"/>
        <pt x="74" y="95" on="0"/>
        <pt x="31" y="162" on="0"/>
        <pt x="31" y="209" on="1"/>
        <pt x="31" y="282" on="0"/>
        <pt x="102" y="393" on="0"/>
        <pt x="213" y="468" on="0"/>
        <pt x="348" y="506" on="0"/>
        <pt x="413" y="506" on="1"/>
        <pt x="449" y="506" on="0"/>
        <pt x="521" y="495" on="0"/>
        <pt x="579" y="465" on="0"/>
        <pt x="615" y="411" on="0"/>
        <pt x="615" y="368" on="1"/>
        <pt x="615" y="346" on="0"/>
        <pt x="607" y="304" on="0"/>
        <pt x="601" y="283" on="1"/>
        <pt x="446" y="283" on="1"/>
        <pt x="459" y="297" on="0"/>
        <pt x="485" y="335" on="0"/>
        <pt x="485" y="354" on="1"/>
        <pt x="485" y="372" on="0"/>
        <pt x="459" y="395" on="0"/>
        <pt x="423" y="407" on="0"/>
        <pt x="384" y="412" on="0"/>
        <pt x="371" y="412" on="1"/>
        <pt x="330" y="412" on="0"/>
        <pt x="258" y="383" on="0"/>
        <pt x="204" y="332" on="0"/>
        <pt x="173" y="262" on="0"/>
        <pt x="173" y="220" on="1"/>
        <pt x="173" y="181" on="0"/>
        <pt x="206" y="135" on="0"/>
        <pt x="257" y="112" on="0"/>
        <pt x="321" y="106" on="0"/>
        <pt x="353" y="106" on="1"/>
        <pt x="402" y="106" on="0"/>
        <pt x="508" y="122" on="0"/>
        <pt x="555" y="136" on="1"/>
        <pt x="582" y="47" on="1"/>
        <pt x="534" y="29" on="0"/>
        <pt x="416" y="12" on="0"/>
        <pt x="364" y="12" on="1"/>
        <pt x="358" y="12" on="1"/>
        <pt x="346" y="-41" on="1"/>
        <pt x="364" y="-43" on="0"/>
        <pt x="406" y="-51" on="0"/>
        <pt x="442" y="-68" on="0"/>
        <pt x="466" y="-97" on="0"/>
        <pt x="466" y="-121" on="1"/>
        <pt x="466" y="-148" on="0"/>
        <pt x="434" y="-183" on="0"/>
        <pt x="387" y="-203" on="0"/>
        <pt x="334" y="-211" on="0"/>
      </contour>
    </TTGlyph>
    <TTGlyph name="cedilla" xMin="312" yMin="-222" xMax="610" yMax="16">
      <contour>
        <pt x="456" y="-222" on="1"/>
        <pt x="427" y="-222" on="0"/>
        <pt x="377" y="-212" on="0"/>
        <pt x="338" y="-188" on="0"/>
        <pt x="314" y="-147" on="0"/>
        <pt x="312" y="-115" on="1"/>
        <pt x="388" y="-111" on="1"/>
        <pt x="387" y="-115" on="0"/>
        <pt x="387" y="-122" on="1"/>
        <pt x="387" y="-149" on="0"/>
        <pt x="428" y="-171" on="0"/>
        <pt x="451" y="-171" on="1"/>
        <pt x="459" y="-171" on="0"/>
        <pt x="485" y="-168" on="0"/>
        <pt x="509" y="-159" on="0"/>
        <pt x="526" y="-144" on="0"/>
        <pt x="526" y="-133" on="1"/>
        <pt x="526" y="-119" on="0"/>
        <pt x="503" y="-105" on="0"/>
        <pt x="472" y="-99" on="0"/>
        <pt x="440" y="-98" on="0"/>
        <pt x="431" y="-98" on="1"/>
        <pt x="427" y="-97" on="0"/>
        <pt x="419" y="-97" on="1"/>
        <pt x="416" y="16" on="1"/>
        <pt x="505" y="15" on="1"/>
        <pt x="490" y="-52" on="1"/>
        <pt x="508" y="-54" on="0"/>
        <pt x="550" y="-61" on="0"/>
        <pt x="586" y="-78" on="0"/>
        <pt x="610" y="-108" on="0"/>
        <pt x="610" y="-131" on="1"/>
        <pt x="610" y="-158" on="0"/>
        <pt x="577" y="-194" on="0"/>
        <pt x="530" y="-214" on="0"/>
        <pt x="477" y="-222" on="0"/>
      </contour>
    </TTGlyph>
    <TTGlyph name="cent" xMin="10" yMin="68" xMax="602" yMax="692">
      <contour>
        <pt x="443" y="427" on="0"/>
        <pt x="470" y="461" on="0"/>
        <pt x="470" y="478" on="1"/>
        <pt x="470" y="494" on="0"/>
        <pt x="442" y="514" on="0"/>
        <pt x="405" y="525" on="0"/>
        <pt x="366" y="529" on="0"/>
        <pt x="354" y="529" on="1"/>
        <pt x="317" y="529" on="0"/>
        <pt x="246" y="506" on="0"/>
        <pt x="189" y="463" on="0"/>
        <pt x="154" y="401" on="0"/>
        <pt x="154" y="361" on="1"/>
        <pt x="154" y="325" on="0"/>
        <pt x="191" y="284" on="0"/>
        <pt x="246" y="265" on="0"/>
        <pt x="310" y="261" on="0"/>
        <pt x="337" y="261" on="1"/>
        <pt x="389" y="261" on="0"/>
        <pt x="491" y="273" on="0"/>
        <pt x="541" y="287" on="1"/>
        <pt x="568" y="209" on="1"/>
        <pt x="524" y="195" on="0"/>
        <pt x="432" y="181" on="0"/>
        <pt x="386" y="179" on="1"/>
        <pt x="386" y="171" on="0"/>
        <pt x="387" y="138" on="0"/>
        <pt x="390" y="103" on="0"/>
        <pt x="396" y="73" on="0"/>
        <pt x="401" y="68" on="1"/>
        <pt x="222" y="68" on="1"/>
        <pt x="228" y="75" on="0"/>
        <pt x="234" y="110" on="0"/>
        <pt x="238" y="147" on="0"/>
        <pt x="243" y="179" on="0"/>
        <pt x="246" y="184" on="1"/>
        <pt x="211" y="188" on="0"/>
        <pt x="129" y="209" on="0"/>
        <pt x="58" y="248" on="0"/>
        <pt x="10" y="307" on="0"/>
        <pt x="10" y="350" on="1"/>
        <pt x="10" y="399" on="0"/>
        <pt x="55" y="480" on="0"/>
        <pt x="127" y="542" on="0"/>
        <pt x="215" y="584" on="0"/>
        <pt x="257" y="595" on="1"/>
        <pt x="257" y="602" on="0"/>
        <pt x="256" y="632" on="0"/>
        <pt x="253" y="663" on="0"/>
        <pt x="245" y="689" on="0"/>
        <pt x="238" y="692" on="1"/>
        <pt x="416" y="690" on="1"/>
        <pt x="410" y="689" on="0"/>
        <pt x="402" y="668" on="0"/>
        <pt x="397" y="642" on="0"/>
        <pt x="394" y="617" on="0"/>
        <pt x="393" y="611" on="1"/>
        <pt x="424" y="612" on="0"/>
        <pt x="497" y="605" on="0"/>
        <pt x="560" y="579" on="0"/>
        <pt x="602" y="531" on="0"/>
        <pt x="602" y="491" on="1"/>
        <pt x="602" y="471" on="0"/>
        <pt x="594" y="434" on="0"/>
        <pt x="588" y="416" on="1"/>
        <pt x="431" y="416" on="1"/>
      </contour>
    </TTGlyph>
    <TTGlyph name="circumflex" xMin="256" yMin="619" xMax="665" yMax="765">
      <contour>
        <pt x="544" y="619" on="1"/>
        <pt x="542" y="623" on="0"/>
        <pt x="518" y="649" on="0"/>
        <pt x="489" y="680" on="0"/>
        <pt x="462" y="707" on="0"/>
        <pt x="458" y="712" on="1"/>
        <pt x="437" y="691" on="0"/>
        <pt x="401" y="644" on="0"/>
        <pt x="383" y="619" on="1"/>
        <pt x="256" y="619" on="1"/>
        <pt x="263" y="623" on="0"/>
        <pt x="296" y="652" on="0"/>
        <pt x="331" y="685" on="0"/>
        <pt x="362" y="717" on="0"/>
        <pt x="369" y="724" on="1"/>
        <pt x="370" y="725" on="0"/>
        <pt x="382" y="738" on="0"/>
        <pt x="395" y="751" on="0"/>
        <pt x="405" y="763" on="0"/>
        <pt x="404" y="765" on="1"/>
        <pt x="519" y="765" on="1"/>
        <pt x="518" y="763" on="0"/>
        <pt x="524" y="756" on="0"/>
        <pt x="524" y="755" on="1"/>
        <pt x="531" y="747" on="0"/>
        <pt x="571" y="705" on="0"/>
        <pt x="617" y="659" on="0"/>
        <pt x="658" y="622" on="0"/>
        <pt x="665" y="619" on="1"/>
      </contour>
    </TTGlyph>
    <TTGlyph name="colon" xMin="20" yMin="-1" xMax="186" yMax="366">
      <contour>
        <pt x="186" y="315" on="1"/>
        <pt x="186" y="301" on="0"/>
        <pt x="168" y="282" on="0"/>
        <pt x="143" y="270" on="0"/>
        <pt x="114" y="264" on="0"/>
        <pt x="103" y="264" on="1"/>
        <pt x="92" y="264" on="0"/>
        <pt x="63" y="270" on="0"/>
        <pt x="38" y="282" on="0"/>
        <pt x="20" y="301" on="0"/>
        <pt x="20" y="315" on="1"/>
        <pt x="20" y="329" on="0"/>
        <pt x="38" y="348" on="0"/>
        <pt x="63" y="360" on="0"/>
        <pt x="92" y="366" on="0"/>
        <pt x="103" y="366" on="1"/>
        <pt x="114" y="366" on="0"/>
        <pt x="143" y="360" on="0"/>
        <pt x="168" y="348" on="0"/>
        <pt x="186" y="329" on="0"/>
      </contour>
      <contour>
        <pt x="103" y="101" on="1"/>
        <pt x="114" y="101" on="0"/>
        <pt x="143" y="95" on="0"/>
        <pt x="168" y="83" on="0"/>
        <pt x="186" y="64" on="0"/>
        <pt x="186" y="50" on="1"/>
        <pt x="186" y="36" on="0"/>
        <pt x="168" y="17" on="0"/>
        <pt x="143" y="5" on="0"/>
        <pt x="114" y="-1" on="0"/>
        <pt x="103" y="-1" on="1"/>
        <pt x="92" y="-1" on="0"/>
        <pt x="63" y="5" on="0"/>
        <pt x="38" y="17" on="0"/>
        <pt x="20" y="36" on="0"/>
        <pt x="20" y="50" on="1"/>
        <pt x="20" y="64" on="0"/>
        <pt x="38" y="83" on="0"/>
        <pt x="63" y="95" on="0"/>
        <pt x="92" y="101" on="0"/>
      </contour>
    </TTGlyph>
    <TTGlyph name="comma" xMin="5" yMin="-145" xMax="205" yMax="102">
      <contour>
        <pt x="15" y="-96" on="0"/>
        <pt x="33" y="-17" on="0"/>
        <pt x="42" y="24" on="1"/>
        <pt x="43" y="31" on="0"/>
        <pt x="49" y="52" on="0"/>
        <pt x="53" y="74" on="0"/>
        <pt x="57" y="94" on="0"/>
        <pt x="57" y="102" on="1"/>
        <pt x="205" y="79" on="1"/>
        <pt x="200" y="75" on="0"/>
        <pt x="182" y="41" on="0"/>
        <pt x="158" y="-4" on="0"/>
        <pt x="133" y="-57" on="0"/>
        <pt x="111" y="-104" on="0"/>
        <pt x="94" y="-139" on="0"/>
        <pt x="92" y="-145" on="1"/>
        <pt x="5" y="-136" on="1"/>
      </contour>
    </TTGlyph>
    <TTGlyph name="copyright" xMin="15" yMin="149" xMax="852" yMax="739">
      <contour>
        <pt x="436" y="739" on="1"/>
        <pt x="480" y="739" on="0"/>
        <pt x="576" y="723" on="0"/>
        <pt x="669" y="690" on="0"/>
        <pt x="752" y="640" on="0"/>
        <pt x="815" y="572" on="0"/>
        <pt x="852" y="487" on="0"/>
        <pt x="852" y="435" on="1"/>
        <pt x="852" y="386" on="0"/>
        <pt x="812" y="305" on="0"/>
        <pt x="746" y="242" on="0"/>
        <pt x="660" y="195" on="0"/>
        <pt x="567" y="164" on="0"/>
        <pt x="473" y="149" on="0"/>
        <pt x="432" y="149" on="1"/>
        <pt x="367" y="149" on="0"/>
        <pt x="220" y="181" on="0"/>
        <pt x="96" y="251" on="0"/>
        <pt x="15" y="362" on="0"/>
        <pt x="15" y="441" on="1"/>
        <pt x="15" y="520" on="0"/>
        <pt x="97" y="633" on="0"/>
        <pt x="222" y="705" on="0"/>
        <pt x="370" y="739" on="0"/>
      </contour>
      <contour>
        <pt x="134" y="442" on="1"/>
        <pt x="134" y="384" on="0"/>
        <pt x="191" y="302" on="0"/>
        <pt x="279" y="250" on="0"/>
        <pt x="384" y="226" on="0"/>
        <pt x="433" y="226" on="1"/>
        <pt x="479" y="226" on="0"/>
        <pt x="584" y="251" on="0"/>
        <pt x="674" y="304" on="0"/>
        <pt x="733" y="384" on="0"/>
        <pt x="733" y="438" on="1"/>
        <pt x="733" y="490" on="0"/>
        <pt x="687" y="573" on="0"/>
        <pt x="608" y="630" on="0"/>
        <pt x="499" y="661" on="0"/>
        <pt x="436" y="661" on="1"/>
        <pt x="388" y="661" on="0"/>
        <pt x="281" y="635" on="0"/>
        <pt x="192" y="581" on="0"/>
        <pt x="134" y="499" on="0"/>
      </contour>
      <contour>
        <pt x="507" y="467" on="1"/>
        <pt x="515" y="475" on="0"/>
        <pt x="535" y="498" on="0"/>
        <pt x="535" y="511" on="1"/>
        <pt x="535" y="522" on="0"/>
        <pt x="516" y="536" on="0"/>
        <pt x="489" y="544" on="0"/>
        <pt x="461" y="547" on="0"/>
        <pt x="453" y="547" on="1"/>
        <pt x="427" y="547" on="0"/>
        <pt x="375" y="531" on="0"/>
        <pt x="335" y="501" on="0"/>
        <pt x="310" y="456" on="0"/>
        <pt x="310" y="427" on="1"/>
        <pt x="310" y="412" on="0"/>
        <pt x="321" y="385" on="0"/>
        <pt x="334" y="376" on="1"/>
        <pt x="354" y="364" on="0"/>
        <pt x="417" y="356" on="0"/>
        <pt x="440" y="356" on="1"/>
        <pt x="476" y="356" on="0"/>
        <pt x="550" y="365" on="0"/>
        <pt x="585" y="375" on="1"/>
        <pt x="604" y="320" on="1"/>
        <pt x="568" y="308" on="0"/>
        <pt x="486" y="298" on="0"/>
        <pt x="448" y="298" on="1"/>
        <pt x="419" y="298" on="0"/>
        <pt x="338" y="307" on="0"/>
        <pt x="262" y="333" on="0"/>
        <pt x="209" y="381" on="0"/>
        <pt x="209" y="420" on="1"/>
        <pt x="209" y="463" on="0"/>
        <pt x="234" y="497" on="1"/>
        <pt x="254" y="527" on="0"/>
        <pt x="311" y="568" on="0"/>
        <pt x="378" y="593" on="0"/>
        <pt x="449" y="605" on="0"/>
        <pt x="483" y="605" on="1"/>
        <pt x="505" y="605" on="0"/>
        <pt x="556" y="599" on="0"/>
        <pt x="599" y="581" on="0"/>
        <pt x="628" y="547" on="0"/>
        <pt x="628" y="519" on="1"/>
        <pt x="628" y="505" on="0"/>
        <pt x="623" y="480" on="0"/>
        <pt x="618" y="467" on="1"/>
      </contour>
    </TTGlyph>
    <TTGlyph name="currency" xMin="10" yMin="184" xMax="554" yMax="520">
      <contour>
        <pt x="483" y="349" on="1"/>
        <pt x="483" y="323" on="0"/>
        <pt x="458" y="284" on="0"/>
        <pt x="438" y="270" on="1"/>
        <pt x="443" y="266" on="0"/>
        <pt x="477" y="238" on="0"/>
        <pt x="515" y="208" on="0"/>
        <pt x="549" y="184" on="0"/>
        <pt x="554" y="184" on="1"/>
        <pt x="392" y="184" on="1"/>
        <pt x="393" y="186" on="0"/>
        <pt x="382" y="201" on="0"/>
        <pt x="367" y="218" on="0"/>
        <pt x="353" y="232" on="0"/>
        <pt x="351" y="234" on="1"/>
        <pt x="334" y="230" on="0"/>
        <pt x="298" y="227" on="0"/>
        <pt x="280" y="227" on="1"/>
        <pt x="245" y="227" on="0"/>
        <pt x="212" y="233" on="1"/>
        <pt x="210" y="231" on="0"/>
        <pt x="197" y="218" on="0"/>
        <pt x="183" y="202" on="0"/>
        <pt x="172" y="188" on="0"/>
        <pt x="172" y="185" on="1"/>
        <pt x="172" y="184" on="1"/>
        <pt x="10" y="184" on="1"/>
        <pt x="15" y="184" on="0"/>
        <pt x="49" y="208" on="0"/>
        <pt x="86" y="238" on="0"/>
        <pt x="120" y="265" on="0"/>
        <pt x="125" y="269" on="1"/>
        <pt x="105" y="284" on="0"/>
        <pt x="82" y="325" on="0"/>
        <pt x="82" y="351" on="1"/>
        <pt x="82" y="378" on="0"/>
        <pt x="107" y="420" on="0"/>
        <pt x="128" y="436" on="1"/>
        <pt x="122" y="440" on="0"/>
        <pt x="89" y="468" on="0"/>
        <pt x="51" y="497" on="0"/>
        <pt x="17" y="520" on="0"/>
        <pt x="10" y="520" on="1"/>
        <pt x="169" y="520" on="1"/>
        <pt x="167" y="518" on="0"/>
        <pt x="175" y="509" on="0"/>
        <pt x="176" y="507" on="1"/>
        <pt x="184" y="497" on="0"/>
        <pt x="203" y="479" on="0"/>
        <pt x="212" y="470" on="1"/>
        <pt x="249" y="478" on="0"/>
        <pt x="282" y="478" on="1"/>
        <pt x="317" y="478" on="0"/>
        <pt x="352" y="469" on="1"/>
        <pt x="354" y="471" on="0"/>
        <pt x="369" y="485" on="0"/>
        <pt x="384" y="501" on="0"/>
        <pt x="396" y="516" on="0"/>
        <pt x="396" y="519" on="1"/>
        <pt x="396" y="520" on="0"/>
        <pt x="395" y="520" on="1"/>
        <pt x="554" y="520" on="1"/>
        <pt x="548" y="520" on="0"/>
        <pt x="513" y="497" on="0"/>
        <pt x="474" y="467" on="0"/>
        <pt x="440" y="439" on="0"/>
        <pt x="434" y="434" on="1"/>
        <pt x="456" y="419" on="0"/>
        <pt x="483" y="376" on="0"/>
      </contour>
      <contour>
        <pt x="165" y="351" on="1"/>
        <pt x="165" y="330" on="0"/>
        <pt x="189" y="301" on="0"/>
        <pt x="224" y="285" on="0"/>
        <pt x="264" y="278" on="0"/>
        <pt x="281" y="278" on="1"/>
        <pt x="297" y="278" on="0"/>
        <pt x="338" y="285" on="0"/>
        <pt x="375" y="302" on="0"/>
        <pt x="400" y="330" on="0"/>
        <pt x="400" y="350" on="1"/>
        <pt x="400" y="371" on="0"/>
        <pt x="375" y="400" on="0"/>
        <pt x="339" y="418" on="0"/>
        <pt x="298" y="426" on="0"/>
        <pt x="282" y="426" on="1"/>
        <pt x="265" y="426" on="0"/>
        <pt x="224" y="419" on="0"/>
        <pt x="189" y="401" on="0"/>
        <pt x="165" y="372" on="0"/>
      </contour>
    </TTGlyph>
    <TTGlyph name="d" xMin="20" yMin="0" xMax="693" yMax="738">
      <contour>
        <pt x="517" y="0" on="1"/>
        <pt x="522" y="13" on="0"/>
        <pt x="525" y="54" on="0"/>
        <pt x="525" y="68" on="1"/>
        <pt x="483" y="37" on="0"/>
        <pt x="379" y="8" on="0"/>
        <pt x="327" y="8" on="1"/>
        <pt x="277" y="8" on="0"/>
        <pt x="169" y="37" on="0"/>
        <pt x="79" y="95" on="0"/>
        <pt x="20" y="182" on="0"/>
        <pt x="20" y="240" on="1"/>
        <pt x="20" y="302" on="0"/>
        <pt x="87" y="395" on="0"/>
        <pt x="188" y="457" on="0"/>
        <pt x="308" y="488" on="0"/>
        <pt x="361" y="488" on="1"/>
        <pt x="403" y="488" on="0"/>
        <pt x="486" y="468" on="0"/>
        <pt x="523" y="445" on="1"/>
        <pt x="522" y="455" on="0"/>
        <pt x="521" y="504" on="0"/>
        <pt x="518" y="567" on="0"/>
        <pt x="513" y="635" on="0"/>
        <pt x="505" y="694" on="0"/>
        <pt x="494" y="734" on="0"/>
        <pt x="487" y="737" on="1"/>
        <pt x="677" y="738" on="1"/>
        <pt x="670" y="733" on="0"/>
        <pt x="662" y="687" on="0"/>
        <pt x="659" y="631" on="0"/>
        <pt x="658" y="580" on="0"/>
        <pt x="658" y="570" on="1"/>
        <pt x="658" y="549" on="0"/>
        <pt x="660" y="453" on="0"/>
        <pt x="665" y="332" on="0"/>
        <pt x="671" y="201" on="0"/>
        <pt x="678" y="89" on="0"/>
        <pt x="688" y="9" on="0"/>
        <pt x="693" y="0" on="1"/>
      </contour>
      <contour>
        <pt x="352" y="99" on="1"/>
        <pt x="374" y="99" on="0"/>
        <pt x="435" y="116" on="0"/>
        <pt x="489" y="148" on="0"/>
        <pt x="527" y="192" on="0"/>
        <pt x="527" y="219" on="1"/>
        <pt x="527" y="235" on="0"/>
        <pt x="529" y="269" on="0"/>
        <pt x="527" y="284" on="1"/>
        <pt x="523" y="311" on="0"/>
        <pt x="491" y="351" on="0"/>
        <pt x="446" y="377" on="0"/>
        <pt x="394" y="390" on="0"/>
        <pt x="369" y="390" on="1"/>
        <pt x="335" y="390" on="0"/>
        <pt x="264" y="372" on="0"/>
        <pt x="206" y="334" on="0"/>
        <pt x="169" y="276" on="0"/>
        <pt x="169" y="236" on="1"/>
        <pt x="169" y="199" on="0"/>
        <pt x="203" y="147" on="0"/>
        <pt x="255" y="114" on="0"/>
        <pt x="320" y="99" on="0"/>
      </contour>
    </TTGlyph>
    <TTGlyph name="degree" xMin="20" yMin="603" xMax="313" yMax="787">
      <contour>
        <pt x="167" y="787" on="1"/>
        <pt x="188" y="787" on="0"/>
        <pt x="238" y="777" on="0"/>
        <pt x="283" y="754" on="0"/>
        <pt x="313" y="718" on="0"/>
        <pt x="313" y="692" on="1"/>
        <pt x="313" y="667" on="0"/>
        <pt x="281" y="633" on="0"/>
        <pt x="236" y="612" on="0"/>
        <pt x="184" y="603" on="0"/>
        <pt x="165" y="603" on="1"/>
        <pt x="144" y="603" on="0"/>
        <pt x="93" y="611" on="0"/>
        <pt x="50" y="632" on="0"/>
        <pt x="20" y="667" on="0"/>
        <pt x="20" y="694" on="1"/>
        <pt x="20" y="720" on="0"/>
        <pt x="50" y="756" on="0"/>
        <pt x="95" y="778" on="0"/>
        <pt x="146" y="787" on="0"/>
      </contour>
      <contour>
        <pt x="103" y="694" on="1"/>
        <pt x="103" y="682" on="0"/>
        <pt x="115" y="666" on="0"/>
        <pt x="134" y="656" on="0"/>
        <pt x="156" y="652" on="0"/>
        <pt x="166" y="652" on="1"/>
        <pt x="175" y="652" on="0"/>
        <pt x="197" y="656" on="0"/>
        <pt x="217" y="666" on="0"/>
        <pt x="230" y="682" on="0"/>
        <pt x="230" y="694" on="1"/>
        <pt x="230" y="706" on="0"/>
        <pt x="217" y="722" on="0"/>
        <pt x="198" y="732" on="0"/>
        <pt x="176" y="737" on="0"/>
        <pt x="167" y="737" on="1"/>
        <pt x="157" y="737" on="0"/>
        <pt x="135" y="733" on="0"/>
        <pt x="116" y="722" on="0"/>
        <pt x="103" y="706" on="0"/>
      </contour>
    </TTGlyph>
    <TTGlyph name="dieresis" xMin="255" yMin="641" xMax="666" yMax="743">
      <contour>
        <pt x="421" y="692" on="1"/>
        <pt x="421" y="678" on="0"/>
        <pt x="403" y="659" on="0"/>
        <pt x="378" y="647" on="0"/>
        <pt x="349" y="641" on="0"/>
        <pt x="338" y="641" on="1"/>
        <pt x="327" y="641" on="0"/>
        <pt x="298" y="647" on="0"/>
        <pt x="273" y="659" on="0"/>
        <pt x="255" y="678" on="0"/>
        <pt x="255" y="692" on="1"/>
        <pt x="255" y="706" on="0"/>
        <pt x="273" y="725" on="0"/>
        <pt x="298" y="737" on="0"/>
        <pt x="327" y="743" on="0"/>
        <pt x="338" y="743" on="1"/>
        <pt x="349" y="743" on="0"/>
        <pt x="378" y="737" on="0"/>
        <pt x="403" y="725" on="0"/>
        <pt x="421" y="706" on="0"/>
      </contour>
      <contour>
        <pt x="583" y="743" on="1"/>
        <pt x="594" y="743" on="0"/>
        <pt x="623" y="737" on="0"/>
        <pt x="648" y="725" on="0"/>
        <pt x="666" y="706" on="0"/>
        <pt x="666" y="692" on="1"/>
        <pt x="666" y="678" on="0"/>
        <pt x="648" y="659" on="0"/>
        <pt x="623" y="647" on="0"/>
        <pt x="594" y="641" on="0"/>
        <pt x="583" y="641" on="1"/>
        <pt x="572" y="641" on="0"/>
        <pt x="544" y="647" on="0"/>
        <pt x="519" y="659" on="0"/>
        <pt x="501" y="678" on="0"/>
        <pt x="501" y="692" on="1"/>
        <pt x="501" y="706" on="0"/>
        <pt x="519" y="725" on="0"/>
        <pt x="544" y="737" on="0"/>
        <pt x="572" y="743" on="0"/>
      </contour>
    </TTGlyph>
    <TTGlyph name="divide" xMin="20" yMin="112" xMax="512" yMax="518">
      <contour>
        <pt x="20" y="369" on="1"/>
        <pt x="28" y="366" on="0"/>
        <pt x="66" y="363" on="0"/>
        <pt x="110" y="362" on="0"/>
        <pt x="149" y="362" on="0"/>
        <pt x="158" y="362" on="1"/>
        <pt x="170" y="362" on="0"/>
        <pt x="227" y="363" on="0"/>
        <pt x="301" y="364" on="0"/>
        <pt x="382" y="367" on="0"/>
        <pt x="453" y="370" on="0"/>
        <pt x="504" y="375" on="0"/>
        <pt x="512" y="378" on="1"/>
        <pt x="509" y="255" on="1"/>
        <pt x="504" y="258" on="0"/>
        <pt x="467" y="262" on="0"/>
        <pt x="415" y="264" on="0"/>
        <pt x="355" y="265" on="0"/>
        <pt x="301" y="266" on="0"/>
        <pt x="259" y="266" on="0"/>
        <pt x="251" y="266" on="1"/>
        <pt x="238" y="266" on="0"/>
        <pt x="171" y="266" on="0"/>
        <pt x="98" y="265" on="0"/>
        <pt x="33" y="261" on="0"/>
        <pt x="23" y="258" on="1"/>
      </contour>
      <contour>
        <pt x="267" y="214" on="1"/>
        <pt x="278" y="214" on="0"/>
        <pt x="307" y="208" on="0"/>
        <pt x="332" y="196" on="0"/>
        <pt x="350" y="177" on="0"/>
        <pt x="350" y="163" on="1"/>
        <pt x="350" y="149" on="0"/>
        <pt x="332" y="130" on="0"/>
        <pt x="307" y="118" on="0"/>
        <pt x="278" y="112" on="0"/>
        <pt x="267" y="112" on="1"/>
        <pt x="256" y="112" on="0"/>
        <pt x="227" y="118" on="0"/>
        <pt x="202" y="130" on="0"/>
        <pt x="184" y="149" on="0"/>
        <pt x="184" y="163" on="1"/>
        <pt x="184" y="177" on="0"/>
        <pt x="202" y="196" on="0"/>
        <pt x="227" y="208" on="0"/>
        <pt x="256" y="214" on="0"/>
      </contour>
      <contour>
        <pt x="267" y="518" on="1"/>
        <pt x="278" y="518" on="0"/>
        <pt x="307" y="512" on="0"/>
        <pt x="332" y="500" on="0"/>
        <pt x="350" y="481" on="0"/>
        <pt x="350" y="467" on="1"/>
        <pt x="350" y="453" on="0"/>
        <pt x="332" y="434" on="0"/>
        <pt x="307" y="422" on="0"/>
        <pt x="278" y="416" on="0"/>
        <pt x="267" y="416" on="1"/>
        <pt x="256" y="416" on="0"/>
        <pt x="227" y="422" on="0"/>
        <pt x="202" y="434" on="0"/>
        <pt x="184" y="453" on="0"/>
        <pt x="184" y="467" on="1"/>
        <pt x="184" y="481" on="0"/>
        <pt x="202" y="500" on="0"/>
        <pt x="227" y="512" on="0"/>
        <pt x="256" y="518" on="0"/>
      </contour>
    </TTGlyph>
    <TTGlyph name="dollar" xMin="-10" yMin="68" xMax="597" yMax="692">
      <contour>
        <pt x="184" y="440" on="1"/>
        <pt x="184" y="426" on="0"/>
        <pt x="208" y="404" on="0"/>
        <pt x="245" y="388" on="0"/>
        <pt x="291" y="376" on="0"/>
        <pt x="335" y="368" on="0"/>
        <pt x="372" y="363" on="0"/>
        <pt x="382" y="361" on="1"/>
        <pt x="404" y="358" on="0"/>
        <pt x="476" y="344" on="0"/>
        <pt x="546" y="320" on="0"/>
        <pt x="597" y="282" on="0"/>
        <pt x="597" y="254" on="1"/>
        <pt x="597" y="227" on="0"/>
        <pt x="552" y="187" on="0"/>
        <pt x="489" y="161" on="0"/>
        <pt x="424" y="146" on="0"/>
        <pt x="404" y="144" on="1"/>
        <pt x="404" y="139" on="0"/>
        <pt x="406" y="117" on="0"/>
        <pt x="409" y="92" on="0"/>
        <pt x="414" y="71" on="0"/>
        <pt x="418" y="68" on="1"/>
        <pt x="239" y="68" on="1"/>
        <pt x="242" y="72" on="0"/>
        <pt x="247" y="92" on="0"/>
        <pt x="251" y="116" on="0"/>
        <pt x="255" y="138" on="0"/>
        <pt x="255" y="143" on="1"/>
        <pt x="170" y="151" on="0"/>
        <pt x="89" y="176" on="1"/>
        <pt x="81" y="178" on="0"/>
        <pt x="53" y="189" on="0"/>
        <pt x="23" y="201" on="0"/>
        <pt x="-4" y="210" on="0"/>
        <pt x="-10" y="210" on="1"/>
        <pt x="-8" y="211" on="0"/>
        <pt x="16" y="231" on="0"/>
        <pt x="43" y="254" on="0"/>
        <pt x="66" y="274" on="0"/>
        <pt x="67" y="277" on="1"/>
        <pt x="120" y="243" on="0"/>
        <pt x="246" y="212" on="0"/>
        <pt x="308" y="212" on="1"/>
        <pt x="314" y="212" on="0"/>
        <pt x="355" y="214" on="0"/>
        <pt x="399" y="222" on="0"/>
        <pt x="434" y="234" on="0"/>
        <pt x="434" y="245" on="1"/>
        <pt x="434" y="259" on="0"/>
        <pt x="377" y="276" on="0"/>
        <pt x="292" y="292" on="0"/>
        <pt x="192" y="311" on="0"/>
        <pt x="107" y="342" on="0"/>
        <pt x="50" y="388" on="0"/>
        <pt x="50" y="423" on="1"/>
        <pt x="50" y="466" on="0"/>
        <pt x="94" y="529" on="0"/>
        <pt x="160" y="574" on="0"/>
        <pt x="239" y="602" on="0"/>
        <pt x="274" y="609" on="1"/>
        <pt x="274" y="614" on="0"/>
        <pt x="272" y="640" on="0"/>
        <pt x="269" y="667" on="0"/>
        <pt x="261" y="690" on="0"/>
        <pt x="255" y="692" on="1"/>
        <pt x="433" y="690" on="1"/>
        <pt x="428" y="689" on="0"/>
        <pt x="420" y="669" on="0"/>
        <pt x="414" y="645" on="0"/>
        <pt x="411" y="622" on="0"/>
        <pt x="411" y="618" on="1"/>
        <pt x="445" y="616" on="0"/>
        <pt x="511" y="603" on="0"/>
        <pt x="562" y="573" on="0"/>
        <pt x="593" y="522" on="0"/>
        <pt x="593" y="482" on="1"/>
        <pt x="593" y="461" on="0"/>
        <pt x="586" y="419" on="0"/>
        <pt x="581" y="399" on="1"/>
        <pt x="447" y="399" on="1"/>
        <pt x="453" y="414" on="0"/>
        <pt x="461" y="446" on="0"/>
        <pt x="461" y="463" on="1"/>
        <pt x="461" y="504" on="0"/>
        <pt x="412" y="536" on="0"/>
        <pt x="374" y="536" on="1"/>
        <pt x="353" y="536" on="0"/>
        <pt x="288" y="527" on="0"/>
        <pt x="228" y="506" on="0"/>
        <pt x="184" y="468" on="0"/>
      </contour>
    </TTGlyph>
    <TTGlyph name="dotaccent" xMin="378" yMin="641" xMax="543" yMax="743">
      <contour>
        <pt x="543" y="692" on="1"/>
        <pt x="543" y="678" on="0"/>
        <pt x="526" y="659" on="0"/>
        <pt x="500" y="647" on="0"/>
        <pt x="472" y="641" on="0"/>
        <pt x="461" y="641" on="1"/>
        <pt x="450" y="641" on="0"/>
        <pt x="421" y="647" on="0"/>
        <pt x="396" y="659" on="0"/>
        <pt x="378" y="678" on="0"/>
        <pt x="378" y="692" on="1"/>
        <pt x="378" y="706" on="0"/>
        <pt x="396" y="725" on="0"/>
        <pt x="421" y="737" on="0"/>
        <pt x="450" y="743" on="0"/>
        <pt x="461" y="743" on="1"/>
        <pt x="472" y="743" on="0"/>
        <pt x="500" y="737" on="0"/>
        <pt x="526" y="725" on="0"/>
        <pt x="543" y="706" on="0"/>
      </contour>
    </TTGlyph>
    <TTGlyph name="dotlessi" xMin="51" yMin="-8" xMax="243" yMax="468">
      <contour>
        <pt x="67" y="468" on="1"/>
        <pt x="243" y="467" on="1"/>
        <pt x="238" y="466" on="0"/>
        <pt x="233" y="451" on="0"/>
        <pt x="231" y="447" on="1"/>
        <pt x="224" y="422" on="0"/>
        <pt x="217" y="351" on="0"/>
        <pt x="214" y="274" on="0"/>
        <pt x="213" y="202" on="0"/>
        <pt x="213" y="175" on="1"/>
        <pt x="213" y="166" on="0"/>
        <pt x="213" y="111" on="0"/>
        <pt x="216" y="49" on="0"/>
        <pt x="222" y="-2" on="0"/>
        <pt x="228" y="-8" on="1"/>
        <pt x="51" y="-8" on="1"/>
        <pt x="56" y="-1" on="0"/>
        <pt x="66" y="51" on="0"/>
        <pt x="73" y="123" on="0"/>
        <pt x="79" y="206" on="0"/>
        <pt x="84" y="281" on="0"/>
        <pt x="86" y="340" on="0"/>
        <pt x="86" y="351" on="1"/>
        <pt x="86" y="357" on="0"/>
        <pt x="86" y="393" on="0"/>
        <pt x="82" y="432" on="0"/>
        <pt x="74" y="465" on="0"/>
      </contour>
    </TTGlyph>
    <TTGlyph name="e" xMin="26" yMin="-15" xMax="604" yMax="509">
      <contour>
        <pt x="339" y="-15" on="1"/>
        <pt x="290" y="-15" on="0"/>
        <pt x="180" y="11" on="0"/>
        <pt x="87" y="66" on="0"/>
        <pt x="26" y="150" on="0"/>
        <pt x="26" y="208" on="1"/>
        <pt x="26" y="279" on="0"/>
        <pt x="82" y="391" on="0"/>
        <pt x="176" y="468" on="0"/>
        <pt x="300" y="509" on="0"/>
        <pt x="368" y="509" on="1"/>
        <pt x="422" y="509" on="0"/>
        <pt x="506" y="474" on="0"/>
        <pt x="562" y="411" on="0"/>
        <pt x="591" y="325" on="0"/>
        <pt x="591" y="273" on="1"/>
        <pt x="591" y="223" on="0"/>
        <pt x="576" y="177" on="1"/>
        <pt x="159" y="177" on="1"/>
        <pt x="169" y="147" on="0"/>
        <pt x="212" y="109" on="0"/>
        <pt x="267" y="88" on="0"/>
        <pt x="328" y="80" on="0"/>
        <pt x="355" y="80" on="1"/>
        <pt x="372" y="80" on="0"/>
        <pt x="429" y="85" on="0"/>
        <pt x="489" y="96" on="0"/>
        <pt x="542" y="112" on="0"/>
        <pt x="555" y="124" on="1"/>
        <pt x="604" y="38" on="1"/>
        <pt x="538" y="13" on="0"/>
        <pt x="410" y="-15" on="0"/>
      </contour>
      <contour>
        <pt x="339" y="415" on="1"/>
        <pt x="309" y="415" on="0"/>
        <pt x="250" y="391" on="0"/>
        <pt x="202" y="352" on="0"/>
        <pt x="166" y="299" on="0"/>
        <pt x="158" y="271" on="1"/>
        <pt x="444" y="271" on="1"/>
        <pt x="447" y="301" on="0"/>
        <pt x="442" y="354" on="0"/>
        <pt x="420" y="393" on="0"/>
        <pt x="376" y="415" on="0"/>
      </contour>
    </TTGlyph>
    <TTGlyph name="eacute" xMin="26" yMin="-15" xMax="604" yMax="772">
      <component glyphName="e" x="0" y="0" flags="0x204"/>
      <component glyphName="acute" x="-60" y="-19" flags="0x4"/>
    </TTGlyph>
    <TTGlyph name="ecircumflex" xMin="26" yMin="-15" xMax="604" yMax="725">
      <component glyphName="e" x="0" y="0" flags="0x204"/>
      <component glyphName="circumflex" x="-101" y="-40" flags="0x4"/>
    </TTGlyph>
    <TTGlyph name="edieresis" xMin="26" yMin="-15" xMax="604" yMax="683">
      <component glyphName="e" x="0" y="0" flags="0x204"/>
      <component glyphName="dieresis" x="-91" y="-60" flags="0x4"/>
    </TTGlyph>
    <TTGlyph name="egrave" xMin="26" yMin="-15" xMax="604" yMax="761">
      <component glyphName="e" x="0" y="0" flags="0x204"/>
      <component glyphName="grave" x="-112" y="-30" flags="0x4"/>
    </TTGlyph>
    <TTGlyph name="eight" xMin="20" yMin="-8" xMax="869" yMax="742">
      <contour>
        <pt x="682" y="422" on="1"/>
        <pt x="714" y="410" on="0"/>
        <pt x="781" y="373" on="0"/>
        <pt x="835" y="323" on="0"/>
        <pt x="869" y="259" on="0"/>
        <pt x="869" y="221" on="1"/>
        <pt x="869" y="175" on="0"/>
        <pt x="825" y="104" on="0"/>
        <pt x="754" y="54" on="0"/>
        <pt x="662" y="20" on="0"/>
        <pt x="568" y="0" on="0"/>
        <pt x="479" y="-8" on="0"/>
        <pt x="445" y="-8" on="1"/>
        <pt x="411" y="-8" on="0"/>
        <pt x="322" y="0" on="0"/>
        <pt x="227" y="20" on="0"/>
        <pt x="136" y="54" on="0"/>
        <pt x="64" y="104" on="0"/>
        <pt x="20" y="174" on="0"/>
        <pt x="20" y="221" on="1"/>
        <pt x="20" y="259" on="0"/>
        <pt x="54" y="323" on="0"/>
        <pt x="108" y="373" on="0"/>
        <pt x="175" y="410" on="0"/>
        <pt x="208" y="422" on="1"/>
        <pt x="189" y="432" on="0"/>
        <pt x="155" y="458" on="0"/>
        <pt x="128" y="491" on="0"/>
        <pt x="112" y="530" on="0"/>
        <pt x="112" y="553" on="1"/>
        <pt x="112" y="590" on="0"/>
        <pt x="146" y="646" on="0"/>
        <pt x="201" y="688" on="0"/>
        <pt x="272" y="717" on="0"/>
        <pt x="346" y="734" on="0"/>
        <pt x="417" y="742" on="0"/>
        <pt x="445" y="742" on="1"/>
        <pt x="473" y="742" on="0"/>
        <pt x="544" y="734" on="0"/>
        <pt x="617" y="717" on="0"/>
        <pt x="688" y="688" on="0"/>
        <pt x="743" y="646" on="0"/>
        <pt x="777" y="590" on="0"/>
        <pt x="777" y="553" on="1"/>
        <pt x="777" y="508" on="0"/>
        <pt x="720" y="442" on="0"/>
      </contour>
      <contour>
        <pt x="445" y="655" on="1"/>
        <pt x="423" y="655" on="0"/>
        <pt x="358" y="646" on="0"/>
        <pt x="298" y="623" on="0"/>
        <pt x="256" y="583" on="0"/>
        <pt x="256" y="553" on="1"/>
        <pt x="256" y="523" on="0"/>
        <pt x="299" y="486" on="0"/>
        <pt x="360" y="465" on="0"/>
        <pt x="424" y="458" on="0"/>
        <pt x="445" y="458" on="1"/>
        <pt x="466" y="458" on="0"/>
        <pt x="530" y="465" on="0"/>
        <pt x="590" y="486" on="0"/>
        <pt x="633" y="523" on="0"/>
        <pt x="633" y="553" on="1"/>
        <pt x="633" y="583" on="0"/>
        <pt x="591" y="623" on="0"/>
        <pt x="531" y="646" on="0"/>
        <pt x="467" y="655" on="0"/>
      </contour>
      <contour>
        <pt x="445" y="83" on="1"/>
        <pt x="466" y="83" on="0"/>
        <pt x="522" y="88" on="0"/>
        <pt x="581" y="101" on="0"/>
        <pt x="638" y="123" on="0"/>
        <pt x="683" y="155" on="0"/>
        <pt x="710" y="200" on="0"/>
        <pt x="710" y="229" on="1"/>
        <pt x="710" y="272" on="0"/>
        <pt x="651" y="329" on="0"/>
        <pt x="568" y="362" on="0"/>
        <pt x="477" y="375" on="0"/>
        <pt x="445" y="375" on="1"/>
        <pt x="412" y="375" on="0"/>
        <pt x="321" y="362" on="0"/>
        <pt x="238" y="329" on="0"/>
        <pt x="179" y="272" on="0"/>
        <pt x="179" y="229" on="1"/>
        <pt x="179" y="200" on="0"/>
        <pt x="206" y="155" on="0"/>
        <pt x="251" y="123" on="0"/>
        <pt x="308" y="101" on="0"/>
        <pt x="367" y="88" on="0"/>
        <pt x="423" y="83" on="0"/>
      </contour>
    </TTGlyph>
    <TTGlyph name="ellipsis" xMin="20" yMin="-1" xMax="616" yMax="101">
      <component glyphName="period" x="0" y="0" flags="0x4"/>
      <component glyphName="period" x="215" y="0" flags="0x4"/>
      <component glyphName="period" x="430" y="0" flags="0x4"/>
    </TTGlyph>
    <TTGlyph name="emdash" xMin="20" yMin="258" xMax="899" yMax="381">
      <contour>
        <pt x="20" y="373" on="1"/>
        <pt x="31" y="369" on="0"/>
        <pt x="98" y="366" on="0"/>
        <pt x="175" y="365" on="0"/>
        <pt x="245" y="365" on="0"/>
        <pt x="258" y="365" on="1"/>
        <pt x="388" y="365" on="0"/>
        <pt x="644" y="368" on="0"/>
        <pt x="774" y="373" on="1"/>
        <pt x="781" y="373" on="0"/>
        <pt x="817" y="375" on="0"/>
        <pt x="857" y="376" on="0"/>
        <pt x="893" y="379" on="0"/>
        <pt x="899" y="381" on="1"/>
        <pt x="896" y="258" on="1"/>
        <pt x="890" y="261" on="0"/>
        <pt x="823" y="265" on="0"/>
        <pt x="727" y="267" on="0"/>
        <pt x="615" y="269" on="0"/>
        <pt x="515" y="270" on="0"/>
        <pt x="440" y="270" on="0"/>
        <pt x="428" y="270" on="1"/>
        <pt x="276" y="270" on="0"/>
        <pt x="125" y="267" on="1"/>
        <pt x="116" y="267" on="0"/>
        <pt x="88" y="266" on="0"/>
        <pt x="59" y="265" on="0"/>
        <pt x="32" y="263" on="0"/>
        <pt x="23" y="261" on="1"/>
      </contour>
    </TTGlyph>
    <TTGlyph name="endash" xMin="20" yMin="255" xMax="489" yMax="378">
      <contour>
        <pt x="20" y="369" on="1"/>
        <pt x="27" y="366" on="0"/>
        <pt x="64" y="363" on="0"/>
        <pt x="106" y="362" on="0"/>
        <pt x="143" y="362" on="0"/>
        <pt x="152" y="362" on="1"/>
        <pt x="163" y="362" on="0"/>
        <pt x="218" y="363" on="0"/>
        <pt x="288" y="364" on="0"/>
        <pt x="365" y="367" on="0"/>
        <pt x="433" y="370" on="0"/>
        <pt x="482" y="375" on="0"/>
        <pt x="489" y="378" on="1"/>
        <pt x="486" y="255" on="1"/>
        <pt x="482" y="258" on="0"/>
        <pt x="446" y="262" on="0"/>
        <pt x="397" y="264" on="0"/>
        <pt x="339" y="265" on="0"/>
        <pt x="288" y="266" on="0"/>
        <pt x="248" y="266" on="0"/>
        <pt x="241" y="266" on="1"/>
        <pt x="228" y="266" on="0"/>
        <pt x="164" y="266" on="0"/>
        <pt x="94" y="265" on="0"/>
        <pt x="33" y="261" on="0"/>
        <pt x="23" y="258" on="1"/>
      </contour>
    </TTGlyph>
    <TTGlyph name="equal" xMin="20" yMin="160" xMax="535" yMax="479">
      <contour>
        <pt x="20" y="470" on="1"/>
        <pt x="28" y="467" on="0"/>
        <pt x="69" y="464" on="0"/>
        <pt x="114" y="462" on="0"/>
        <pt x="156" y="462" on="0"/>
        <pt x="165" y="462" on="1"/>
        <pt x="177" y="462" on="0"/>
        <pt x="237" y="463" on="0"/>
        <pt x="314" y="464" on="0"/>
        <pt x="398" y="467" on="0"/>
        <pt x="472" y="471" on="0"/>
        <pt x="527" y="476" on="0"/>
        <pt x="535" y="479" on="1"/>
        <pt x="532" y="356" on="1"/>
        <pt x="527" y="359" on="0"/>
        <pt x="488" y="363" on="0"/>
        <pt x="433" y="365" on="0"/>
        <pt x="370" y="366" on="0"/>
        <pt x="314" y="367" on="0"/>
        <pt x="270" y="367" on="0"/>
        <pt x="262" y="367" on="1"/>
        <pt x="248" y="367" on="0"/>
        <pt x="178" y="367" on="0"/>
        <pt x="101" y="366" on="0"/>
        <pt x="35" y="362" on="0"/>
        <pt x="24" y="359" on="1"/>
      </contour>
      <contour>
        <pt x="20" y="274" on="1"/>
        <pt x="28" y="271" on="0"/>
        <pt x="69" y="268" on="0"/>
        <pt x="114" y="266" on="0"/>
        <pt x="156" y="266" on="0"/>
        <pt x="165" y="266" on="1"/>
        <pt x="177" y="266" on="0"/>
        <pt x="237" y="267" on="0"/>
        <pt x="314" y="268" on="0"/>
        <pt x="398" y="271" on="0"/>
        <pt x="472" y="275" on="0"/>
        <pt x="527" y="280" on="0"/>
        <pt x="535" y="283" on="1"/>
        <pt x="532" y="160" on="1"/>
        <pt x="527" y="163" on="0"/>
        <pt x="488" y="167" on="0"/>
        <pt x="433" y="169" on="0"/>
        <pt x="370" y="170" on="0"/>
        <pt x="314" y="171" on="0"/>
        <pt x="270" y="171" on="0"/>
        <pt x="262" y="171" on="1"/>
        <pt x="248" y="171" on="0"/>
        <pt x="178" y="171" on="0"/>
        <pt x="101" y="170" on="0"/>
        <pt x="35" y="166" on="0"/>
        <pt x="24" y="163" on="1"/>
      </contour>
    </TTGlyph>
    <TTGlyph name="eth" xMin="31" yMin="-14" xMax="717" yMax="818">
      <contour>
        <pt x="181" y="232" on="1"/>
        <pt x="181" y="193" on="0"/>
        <pt x="216" y="139" on="0"/>
        <pt x="271" y="105" on="0"/>
        <pt x="339" y="90" on="0"/>
        <pt x="372" y="90" on="1"/>
        <pt x="403" y="90" on="0"/>
        <pt x="471" y="106" on="0"/>
        <pt x="529" y="140" on="0"/>
        <pt x="567" y="193" on="0"/>
        <pt x="567" y="230" on="1"/>
        <pt x="567" y="267" on="0"/>
        <pt x="531" y="322" on="0"/>
        <pt x="475" y="359" on="0"/>
        <pt x="406" y="377" on="0"/>
        <pt x="374" y="377" on="1"/>
        <pt x="341" y="377" on="0"/>
        <pt x="273" y="360" on="0"/>
        <pt x="217" y="325" on="0"/>
        <pt x="181" y="270" on="0"/>
      </contour>
      <contour>
        <pt x="215" y="620" on="1"/>
        <pt x="222" y="620" on="0"/>
        <pt x="253" y="631" on="0"/>
        <pt x="288" y="645" on="0"/>
        <pt x="319" y="660" on="0"/>
        <pt x="326" y="663" on="1"/>
        <pt x="342" y="671" on="1"/>
        <pt x="318" y="687" on="0"/>
        <pt x="264" y="717" on="0"/>
        <pt x="235" y="733" on="1"/>
        <pt x="235" y="818" on="1"/>
        <pt x="353" y="785" on="0"/>
        <pt x="450" y="723" on="1"/>
        <pt x="475" y="736" on="0"/>
        <pt x="523" y="761" on="0"/>
        <pt x="564" y="783" on="0"/>
        <pt x="591" y="800" on="0"/>
        <pt x="595" y="804" on="1"/>
        <pt x="639" y="703" on="1"/>
        <pt x="635" y="703" on="0"/>
        <pt x="614" y="697" on="0"/>
        <pt x="584" y="685" on="0"/>
        <pt x="549" y="670" on="0"/>
        <pt x="531" y="662" on="1"/>
        <pt x="618" y="585" on="0"/>
        <pt x="717" y="377" on="0"/>
        <pt x="717" y="247" on="1"/>
        <pt x="717" y="202" on="0"/>
        <pt x="685" y="128" on="0"/>
        <pt x="632" y="70" on="0"/>
        <pt x="562" y="27" on="0"/>
        <pt x="485" y="0" on="0"/>
        <pt x="405" y="-14" on="0"/>
        <pt x="370" y="-14" on="1"/>
        <pt x="313" y="-14" on="0"/>
        <pt x="193" y="12" on="0"/>
        <pt x="94" y="70" on="0"/>
        <pt x="31" y="163" on="0"/>
        <pt x="31" y="231" on="1"/>
        <pt x="31" y="298" on="0"/>
        <pt x="96" y="393" on="0"/>
        <pt x="196" y="454" on="0"/>
        <pt x="317" y="482" on="0"/>
        <pt x="374" y="482" on="1"/>
        <pt x="412" y="482" on="0"/>
        <pt x="494" y="467" on="0"/>
        <pt x="533" y="453" on="1"/>
        <pt x="513" y="500" on="0"/>
        <pt x="457" y="577" on="0"/>
        <pt x="419" y="612" on="1"/>
        <pt x="402" y="604" on="0"/>
        <pt x="353" y="581" on="0"/>
        <pt x="304" y="557" on="0"/>
        <pt x="266" y="536" on="0"/>
        <pt x="260" y="530" on="1"/>
      </contour>
    </TTGlyph>
    <TTGlyph name="exclam" xMin="41" yMin="-15" xMax="237" yMax="738">
      <contour>
        <pt x="206" y="36" on="1"/>
        <pt x="206" y="22" on="0"/>
        <pt x="188" y="3" on="0"/>
        <pt x="163" y="-9" on="0"/>
        <pt x="134" y="-15" on="0"/>
        <pt x="124" y="-15" on="1"/>
        <pt x="113" y="-15" on="0"/>
        <pt x="84" y="-9" on="0"/>
        <pt x="59" y="3" on="0"/>
        <pt x="41" y="22" on="0"/>
        <pt x="41" y="36" on="1"/>
        <pt x="41" y="50" on="0"/>
        <pt x="59" y="69" on="0"/>
        <pt x="84" y="81" on="0"/>
        <pt x="113" y="87" on="0"/>
        <pt x="124" y="87" on="1"/>
        <pt x="134" y="87" on="0"/>
        <pt x="163" y="81" on="0"/>
        <pt x="188" y="69" on="0"/>
        <pt x="206" y="50" on="0"/>
      </contour>
      <contour>
        <pt x="47" y="154" on="1"/>
        <pt x="52" y="160" on="0"/>
        <pt x="60" y="224" on="0"/>
        <pt x="67" y="313" on="0"/>
        <pt x="73" y="417" on="0"/>
        <pt x="77" y="511" on="0"/>
        <pt x="79" y="582" on="0"/>
        <pt x="79" y="595" on="1"/>
        <pt x="79" y="602" on="0"/>
        <pt x="79" y="646" on="0"/>
        <pt x="76" y="695" on="0"/>
        <pt x="68" y="735" on="0"/>
        <pt x="61" y="738" on="1"/>
        <pt x="237" y="737" on="1"/>
        <pt x="232" y="736" on="0"/>
        <pt x="227" y="719" on="0"/>
        <pt x="226" y="716" on="1"/>
        <pt x="215" y="672" on="0"/>
        <pt x="204" y="561" on="0"/>
        <pt x="200" y="446" on="0"/>
        <pt x="199" y="334" on="0"/>
        <pt x="199" y="289" on="1"/>
        <pt x="199" y="282" on="0"/>
        <pt x="199" y="242" on="0"/>
        <pt x="201" y="197" on="0"/>
        <pt x="205" y="159" on="0"/>
        <pt x="209" y="154" on="1"/>
      </contour>
    </TTGlyph>
    <TTGlyph name="exclamdown" xMin="41" yMin="-15" xMax="237" yMax="738">
      <contour>
        <pt x="71" y="687" on="1"/>
        <pt x="71" y="701" on="0"/>
        <pt x="89" y="720" on="0"/>
        <pt x="114" y="732" on="0"/>
        <pt x="143" y="738" on="0"/>
        <pt x="154" y="738" on="1"/>
        <pt x="165" y="738" on="0"/>
        <pt x="194" y="732" on="0"/>
        <pt x="219" y="720" on="0"/>
        <pt x="237" y="701" on="0"/>
        <pt x="237" y="687" on="1"/>
        <pt x="237" y="673" on="0"/>
        <pt x="219" y="654" on="0"/>
        <pt x="194" y="642" on="0"/>
        <pt x="165" y="637" on="0"/>
        <pt x="154" y="637" on="1"/>
        <pt x="143" y="637" on="0"/>
        <pt x="114" y="642" on="0"/>
        <pt x="89" y="654" on="0"/>
        <pt x="71" y="673" on="0"/>
      </contour>
      <contour>
        <pt x="231" y="570" on="1"/>
        <pt x="226" y="563" on="0"/>
        <pt x="218" y="500" on="0"/>
        <pt x="211" y="410" on="0"/>
        <pt x="205" y="307" on="0"/>
        <pt x="201" y="213" on="0"/>
        <pt x="199" y="141" on="0"/>
        <pt x="199" y="129" on="1"/>
        <pt x="199" y="122" on="0"/>
        <pt x="199" y="78" on="0"/>
        <pt x="202" y="29" on="0"/>
        <pt x="210" y="-12" on="0"/>
        <pt x="217" y="-15" on="1"/>
        <pt x="41" y="-14" on="1"/>
        <pt x="46" y="-13" on="0"/>
        <pt x="50" y="5" on="0"/>
        <pt x="51" y="8" on="1"/>
        <pt x="61" y="52" on="0"/>
        <pt x="73" y="163" on="0"/>
        <pt x="77" y="278" on="0"/>
        <pt x="78" y="390" on="0"/>
        <pt x="78" y="435" on="1"/>
        <pt x="78" y="442" on="0"/>
        <pt x="78" y="482" on="0"/>
        <pt x="76" y="527" on="0"/>
        <pt x="73" y="565" on="0"/>
        <pt x="69" y="570" on="1"/>
      </contour>
    </TTGlyph>
    <TTGlyph name="f" xMin="-5" yMin="10" xMax="703" yMax="841">
      <contour>
        <pt x="477" y="841" on="1"/>
        <pt x="525" y="841" on="0"/>
        <pt x="608" y="822" on="0"/>
        <pt x="668" y="777" on="0"/>
        <pt x="703" y="704" on="0"/>
        <pt x="703" y="651" on="1"/>
        <pt x="703" y="627" on="0"/>
        <pt x="697" y="579" on="0"/>
        <pt x="692" y="555" on="1"/>
        <pt x="690" y="544" on="0"/>
        <pt x="684" y="521" on="0"/>
        <pt x="684" y="510" on="1"/>
        <pt x="684" y="507" on="1"/>
        <pt x="526" y="537" on="1"/>
        <pt x="532" y="546" on="0"/>
        <pt x="540" y="572" on="0"/>
        <pt x="545" y="601" on="0"/>
        <pt x="548" y="629" on="0"/>
        <pt x="548" y="640" on="1"/>
        <pt x="548" y="694" on="0"/>
        <pt x="497" y="759" on="0"/>
        <pt x="440" y="759" on="1"/>
        <pt x="396" y="759" on="0"/>
        <pt x="328" y="717" on="0"/>
        <pt x="281" y="651" on="0"/>
        <pt x="256" y="569" on="0"/>
        <pt x="256" y="530" on="1"/>
        <pt x="256" y="507" on="0"/>
        <pt x="255" y="462" on="0"/>
        <pt x="255" y="439" on="1"/>
        <pt x="287" y="440" on="0"/>
        <pt x="353" y="441" on="0"/>
        <pt x="386" y="443" on="1"/>
        <pt x="403" y="444" on="0"/>
        <pt x="443" y="446" on="0"/>
        <pt x="460" y="451" on="1"/>
        <pt x="457" y="350" on="1"/>
        <pt x="449" y="353" on="0"/>
        <pt x="393" y="357" on="0"/>
        <pt x="327" y="359" on="0"/>
        <pt x="267" y="359" on="0"/>
        <pt x="254" y="359" on="1"/>
        <pt x="254" y="259" on="1"/>
        <pt x="254" y="251" on="0"/>
        <pt x="254" y="210" on="0"/>
        <pt x="255" y="157" on="0"/>
        <pt x="256" y="99" on="0"/>
        <pt x="258" y="49" on="0"/>
        <pt x="262" y="14" on="0"/>
        <pt x="265" y="10" on="1"/>
        <pt x="104" y="10" on="1"/>
        <pt x="108" y="14" on="0"/>
        <pt x="112" y="53" on="0"/>
        <pt x="114" y="100" on="0"/>
        <pt x="114" y="143" on="0"/>
        <pt x="114" y="151" on="1"/>
        <pt x="114" y="254" on="0"/>
        <pt x="111" y="358" on="1"/>
        <pt x="83" y="358" on="0"/>
        <pt x="25" y="359" on="0"/>
        <pt x="-2" y="353" on="1"/>
        <pt x="-5" y="444" on="1"/>
        <pt x="5" y="441" on="0"/>
        <pt x="35" y="438" on="0"/>
        <pt x="68" y="437" on="0"/>
        <pt x="99" y="437" on="0"/>
        <pt x="110" y="437" on="1"/>
        <pt x="109" y="452" on="0"/>
        <pt x="107" y="481" on="0"/>
        <pt x="107" y="495" on="1"/>
        <pt x="107" y="572" on="0"/>
        <pt x="136" y="642" on="1"/>
        <pt x="159" y="696" on="0"/>
        <pt x="229" y="772" on="0"/>
        <pt x="317" y="820" on="0"/>
        <pt x="420" y="841" on="0"/>
      </contour>
    </TTGlyph>
    <TTGlyph name="fi" xMin="-5" yMin="-8" xMax="703" yMax="841">
      <contour>
        <pt x="692" y="446" on="1"/>
        <pt x="687" y="439" on="0"/>
        <pt x="681" y="403" on="0"/>
        <pt x="677" y="355" on="0"/>
        <pt x="674" y="300" on="0"/>
        <pt x="672" y="249" on="0"/>
        <pt x="672" y="209" on="0"/>
        <pt x="672" y="200" on="1"/>
        <pt x="672" y="193" on="0"/>
        <pt x="672" y="160" on="0"/>
        <pt x="673" y="116" on="0"/>
        <pt x="676" y="68" on="0"/>
        <pt x="680" y="26" on="0"/>
        <pt x="686" y="-4" on="0"/>
        <pt x="690" y="-8" on="1"/>
        <pt x="509" y="-8" on="1"/>
        <pt x="514" y="-1" on="0"/>
        <pt x="523" y="46" on="0"/>
        <pt x="530" y="110" on="0"/>
        <pt x="536" y="184" on="0"/>
        <pt x="540" y="251" on="0"/>
        <pt x="542" y="302" on="0"/>
        <pt x="542" y="313" on="1"/>
        <pt x="542" y="322" on="0"/>
        <pt x="542" y="339" on="0"/>
        <pt x="541" y="347" on="1"/>
        <pt x="484" y="348" on="0"/>
        <pt x="372" y="349" on="0"/>
        <pt x="315" y="349" on="1"/>
        <pt x="254" y="349" on="1"/>
        <pt x="254" y="282" on="1"/>
        <pt x="254" y="275" on="0"/>
        <pt x="254" y="231" on="0"/>
        <pt x="254" y="173" on="0"/>
        <pt x="256" y="108" on="0"/>
        <pt x="258" y="53" on="0"/>
        <pt x="262" y="13" on="0"/>
        <pt x="265" y="10" on="1"/>
        <pt x="104" y="10" on="1"/>
        <pt x="108" y="13" on="0"/>
        <pt x="112" y="56" on="0"/>
        <pt x="114" y="108" on="0"/>
        <pt x="114" y="155" on="0"/>
        <pt x="114" y="161" on="1"/>
        <pt x="114" y="208" on="0"/>
        <pt x="112" y="300" on="0"/>
        <pt x="111" y="347" on="1"/>
        <pt x="101" y="347" on="0"/>
        <pt x="70" y="347" on="0"/>
        <pt x="38" y="346" on="0"/>
        <pt x="8" y="344" on="0"/>
        <pt x="-2" y="342" on="1"/>
        <pt x="-5" y="433" on="1"/>
        <pt x="2" y="431" on="0"/>
        <pt x="34" y="429" on="0"/>
        <pt x="69" y="428" on="0"/>
        <pt x="102" y="427" on="0"/>
        <pt x="110" y="427" on="1"/>
        <pt x="109" y="444" on="0"/>
        <pt x="107" y="478" on="0"/>
        <pt x="107" y="495" on="1"/>
        <pt x="107" y="570" on="0"/>
        <pt x="136" y="642" on="1"/>
        <pt x="159" y="696" on="0"/>
        <pt x="229" y="772" on="0"/>
        <pt x="317" y="819" on="0"/>
        <pt x="420" y="841" on="0"/>
        <pt x="477" y="841" on="1"/>
        <pt x="526" y="841" on="0"/>
        <pt x="609" y="821" on="0"/>
        <pt x="669" y="776" on="0"/>
        <pt x="703" y="703" on="0"/>
        <pt x="703" y="651" on="1"/>
        <pt x="703" y="633" on="0"/>
        <pt x="697" y="592" on="0"/>
        <pt x="689" y="553" on="0"/>
        <pt x="684" y="519" on="0"/>
        <pt x="684" y="507" on="1"/>
        <pt x="526" y="537" on="1"/>
        <pt x="532" y="545" on="0"/>
        <pt x="540" y="572" on="0"/>
        <pt x="545" y="602" on="0"/>
        <pt x="548" y="630" on="0"/>
        <pt x="548" y="640" on="1"/>
        <pt x="548" y="693" on="0"/>
        <pt x="497" y="759" on="0"/>
        <pt x="440" y="759" on="1"/>
        <pt x="396" y="759" on="0"/>
        <pt x="328" y="717" on="0"/>
        <pt x="281" y="651" on="0"/>
        <pt x="256" y="569" on="0"/>
        <pt x="256" y="530" on="1"/>
        <pt x="256" y="504" on="0"/>
        <pt x="255" y="453" on="0"/>
        <pt x="255" y="427" on="1"/>
        <pt x="364" y="428" on="0"/>
        <pt x="583" y="439" on="0"/>
      </contour>
    </TTGlyph>
</ttFont>
